<svg width="100" height="24" viewBox="0 0 100 24" fill="none" xmlns="http://www.w3.org/2000/svg">
<g clip-path="url(#clip0_2169_804)">
<path d="M30.1631 17.1648H37.1937V15.0575H32.6619V7.11993H30.1631V17.1648Z" fill="white"/>
<path d="M41.359 15.7599C40.3566 15.7599 39.8343 14.8889 39.8343 13.5824C39.8343 12.2758 40.3566 11.3908 41.359 11.3908C42.3614 11.3908 42.8978 12.2758 42.8978 13.5824C42.8978 14.8889 42.3614 15.7599 41.359 15.7599ZM41.3731 17.3896C43.7025 17.3896 45.2272 15.7459 45.2272 13.5824C45.2272 11.4189 43.7025 9.77515 41.3731 9.77515C39.0578 9.77515 37.5049 11.4189 37.5049 13.5824C37.5049 15.7459 39.0578 17.3896 41.3731 17.3896Z" fill="white"/>
<path d="M49.2589 19.6515C50.3319 19.6515 51.2777 19.4126 51.913 18.8507C52.4919 18.3309 52.873 17.5441 52.873 16.4624V9.97184H50.6707V10.7445H50.6425C50.2189 10.1404 49.5695 9.76111 48.6095 9.76111C46.8166 9.76111 45.5742 11.2503 45.5742 13.3576C45.5742 15.5633 47.0848 16.7715 48.7083 16.7715C49.5836 16.7715 50.1342 16.4202 50.5577 15.9426H50.6142V16.6591C50.6142 17.5301 50.2048 18.0358 49.2307 18.0358C48.4683 18.0358 48.0872 17.7127 47.9601 17.3334H45.7295C45.9554 18.8366 47.2683 19.6515 49.2589 19.6515ZM49.2448 15.0715C48.3836 15.0715 47.8189 14.3691 47.8189 13.2874C47.8189 12.1915 48.3836 11.4891 49.2448 11.4891C50.2048 11.4891 50.713 12.3039 50.713 13.2733C50.713 14.2848 50.2472 15.0715 49.2448 15.0715Z" fill="white"/>
<path d="M57.402 15.7599C56.3996 15.7599 55.8773 14.8889 55.8773 13.5824C55.8773 12.2758 56.3996 11.3908 57.402 11.3908C58.4043 11.3908 58.9406 12.2758 58.9406 13.5824C58.9406 14.8889 58.4043 15.7599 57.402 15.7599ZM57.4161 17.3896C59.7453 17.3896 61.27 15.7459 61.27 13.5824C61.27 11.4189 59.7453 9.77515 57.4161 9.77515C55.1008 9.77515 53.5479 11.4189 53.5479 13.5824C53.5479 15.7459 55.1008 17.3896 57.4161 17.3896Z" fill="white"/>
<path d="M61.9424 17.1648H64.2436V9.97184H61.9424V17.1648ZM61.9424 8.97437H64.2436V7.11993H61.9424V8.97437Z" fill="white"/>
<path d="M65.2422 19.5391H67.5434V16.4202H67.5716C68.0234 17.0243 68.6869 17.3896 69.6187 17.3896C71.5104 17.3896 72.7669 15.9004 72.7669 13.5683C72.7669 11.4048 71.5951 9.76111 69.6751 9.76111C68.6869 9.76111 67.981 10.1966 67.4869 10.8429H67.4445V9.97184H65.2422V19.5391ZM69.0257 15.6195C68.0375 15.6195 67.4728 14.8187 67.4728 13.6526C67.4728 12.4866 67.981 11.6015 68.9834 11.6015C69.9716 11.6015 70.4375 12.4163 70.4375 13.6526C70.4375 14.8749 69.901 15.6195 69.0257 15.6195Z" fill="white"/>
<path d="M76.5133 17.3896C78.4051 17.3896 79.8028 16.5748 79.8028 15.0013C79.8028 13.1609 78.3063 12.8378 77.0357 12.6271C76.1181 12.4585 75.2992 12.3882 75.2992 11.8825C75.2992 11.4329 75.7369 11.2222 76.3016 11.2222C76.9369 11.2222 77.3745 11.4189 77.4592 12.0651H79.5769C79.4639 10.6462 78.3627 9.76111 76.3157 9.76111C74.6075 9.76111 73.1957 10.5478 73.1957 12.0651C73.1957 13.751 74.5369 14.0881 75.7933 14.2989C76.7533 14.4675 77.6286 14.5377 77.6286 15.1839C77.6286 15.6475 77.191 15.9004 76.4992 15.9004C75.7369 15.9004 75.2569 15.5492 75.1722 14.8327H72.998C73.0686 16.4202 74.3957 17.3896 76.5133 17.3896Z" fill="white"/>
<path d="M82.9279 17.3755C83.9302 17.3755 84.5655 16.9821 85.0879 16.2797H85.1302V17.1648H87.3326V9.9718H85.0314V13.9898C85.0314 14.8467 84.5514 15.4368 83.7608 15.4368C83.0267 15.4368 82.6738 15.0013 82.6738 14.2145V9.9718H80.3867V14.6922C80.3867 16.2938 81.262 17.3755 82.9279 17.3755Z" fill="white"/>
<path d="M88.334 17.1648H90.6352V13.1328C90.6352 12.2758 91.0587 11.6717 91.7787 11.6717C92.4705 11.6717 92.7952 12.1213 92.7952 12.894V17.1648H95.0963V13.1328C95.0963 12.2758 95.5058 11.6717 96.2399 11.6717C96.9316 11.6717 97.2563 12.1213 97.2563 12.894V17.1648H99.5575V12.4866C99.5575 10.871 98.7387 9.76111 97.101 9.76111C96.1693 9.76111 95.3928 10.1545 94.8281 11.0255H94.7999C94.4328 10.2528 93.7128 9.76111 92.7669 9.76111C91.7222 9.76111 91.0305 10.2528 90.5787 10.9974H90.5363V9.97184H88.334V17.1648Z" fill="white"/>
<path fill-rule="evenodd" clip-rule="evenodd" d="M11.8243 23.6038C18.3218 23.6038 23.589 18.3623 23.589 11.8965C23.589 5.43075 18.3218 0.189209 11.8243 0.189209C5.3268 0.189209 0.0595703 5.43075 0.0595703 11.8965C0.0595703 18.3623 5.3268 23.6038 11.8243 23.6038ZM13.6401 9.23461C14.643 8.23662 14.643 6.61861 13.6401 5.62062C12.6373 4.62264 11.0113 4.62264 10.0084 5.62062C9.0056 6.61861 9.0056 8.23662 10.0084 9.23461L11.8243 11.0416L13.6401 9.23461ZM14.4993 13.7035C15.5021 14.7015 17.1281 14.7015 18.131 13.7035C19.1338 12.7055 19.1338 11.0875 18.131 10.0895C17.1281 9.0916 15.5021 9.0916 14.4993 10.0895L12.6834 11.8966L14.4993 13.7035ZM13.6401 18.1724C14.643 17.1745 14.643 15.5564 13.6401 14.5585L11.8243 12.7515L10.0084 14.5585C9.0056 15.5564 9.0056 17.1745 10.0084 18.1724C11.0113 19.1704 12.6373 19.1704 13.6401 18.1724ZM5.51759 13.7035C4.51474 12.7055 4.51474 11.0875 5.51759 10.0895C6.52049 9.0916 8.14643 9.0916 9.14931 10.0895L10.9651 11.8966L9.14931 13.7035C8.14643 14.7015 6.52049 14.7015 5.51759 13.7035Z" fill="white"/>
</g>
<defs>
<clipPath id="clip0_2169_804">
<rect width="100" height="24" fill="white"/>
</clipPath>
</defs>
</svg>
