<svg width="100" height="24" viewBox="0 0 100 24" fill="none" xmlns="http://www.w3.org/2000/svg">
<g clip-path="url(#clip0_2169_869)">
<path d="M30.5059 16.471H37.5364V14.3637H33.0047V6.42615H30.5059V16.471Z" fill="white"/>
<path d="M41.7018 15.0661C40.6994 15.0661 40.1771 14.1951 40.1771 12.8886C40.1771 11.582 40.6994 10.697 41.7018 10.697C42.7041 10.697 43.2406 11.582 43.2406 12.8886C43.2406 14.1951 42.7041 15.0661 41.7018 15.0661ZM41.7159 16.6958C44.0453 16.6958 45.57 15.0521 45.57 12.8886C45.57 10.7251 44.0453 9.08136 41.7159 9.08136C39.4006 9.08136 37.8477 10.7251 37.8477 12.8886C37.8477 15.0521 39.4006 16.6958 41.7159 16.6958Z" fill="white"/>
<path d="M49.6017 18.9577C50.6746 18.9577 51.6205 18.7188 52.2558 18.1569C52.8346 17.6371 53.2158 16.8503 53.2158 15.7686V9.27805H51.0135V10.0507H50.9852C50.5617 9.44664 49.9123 9.06732 48.9523 9.06732C47.1593 9.06732 45.917 10.5565 45.917 12.6638C45.917 14.8695 47.4276 16.0777 49.0511 16.0777C49.9264 16.0777 50.477 15.7264 50.9005 15.2488H50.957V15.9653C50.957 16.8363 50.5476 17.3421 49.5735 17.3421C48.8111 17.3421 48.4299 17.0189 48.3029 16.6396H46.0723C46.2982 18.1428 47.6111 18.9577 49.6017 18.9577ZM49.5876 14.3778C48.7264 14.3778 48.1617 13.6753 48.1617 12.5936C48.1617 11.4978 48.7264 10.7953 49.5876 10.7953C50.5476 10.7953 51.0558 11.6102 51.0558 12.5795C51.0558 13.591 50.5899 14.3778 49.5876 14.3778Z" fill="white"/>
<path d="M57.7447 15.0661C56.7424 15.0661 56.22 14.1951 56.22 12.8886C56.22 11.582 56.7424 10.697 57.7447 10.697C58.7471 10.697 59.2836 11.582 59.2836 12.8886C59.2836 14.1951 58.7471 15.0661 57.7447 15.0661ZM57.7589 16.6958C60.0883 16.6958 61.613 15.0521 61.613 12.8886C61.613 10.7251 60.0883 9.08136 57.7589 9.08136C55.4436 9.08136 53.8906 10.7251 53.8906 12.8886C53.8906 15.0521 55.4436 16.6958 57.7589 16.6958Z" fill="white"/>
<path d="M62.2852 16.471H64.5863V9.27805H62.2852V16.471ZM62.2852 8.28059H64.5863V6.42615H62.2852V8.28059Z" fill="white"/>
<path d="M65.585 18.8453H67.8861V15.7264H67.9144C68.3661 16.3305 69.0297 16.6958 69.9614 16.6958C71.8532 16.6958 73.1097 15.2066 73.1097 12.8745C73.1097 10.711 71.9379 9.06732 70.0179 9.06732C69.0297 9.06732 68.3238 9.50283 67.8297 10.1491H67.7873V9.27805H65.585V18.8453ZM69.3685 14.9257C68.3803 14.9257 67.8155 14.1249 67.8155 12.9588C67.8155 11.7928 68.3238 10.9077 69.3261 10.9077C70.3144 10.9077 70.7803 11.7225 70.7803 12.9588C70.7803 14.1811 70.2438 14.9257 69.3685 14.9257Z" fill="white"/>
<path d="M76.8561 16.6958C78.7479 16.6958 80.1455 15.881 80.1455 14.3075C80.1455 12.4671 78.6491 12.144 77.3785 11.9333C76.4608 11.7647 75.642 11.6944 75.642 11.1887C75.642 10.7391 76.0796 10.5284 76.6443 10.5284C77.2796 10.5284 77.7173 10.7251 77.802 11.3713H79.9196C79.8067 9.9524 78.7055 9.06732 76.6585 9.06732C74.9502 9.06732 73.5385 9.85405 73.5385 11.3713C73.5385 13.0572 74.8796 13.3943 76.1361 13.6051C77.0961 13.7737 77.9714 13.8439 77.9714 14.4902C77.9714 14.9538 77.5338 15.2066 76.842 15.2066C76.0796 15.2066 75.5996 14.8554 75.5149 14.1389H73.3408C73.4114 15.7264 74.7385 16.6958 76.8561 16.6958Z" fill="white"/>
<path d="M83.2716 16.6818C84.274 16.6818 84.9093 16.2884 85.4316 15.586H85.474V16.4711H87.6764V9.27808H85.3752V13.296C85.3752 14.153 84.8952 14.7431 84.1046 14.7431C83.3705 14.7431 83.0175 14.3075 83.0175 13.5208V9.27808H80.7305V13.9985C80.7305 15.6 81.6058 16.6818 83.2716 16.6818Z" fill="white"/>
<path d="M88.6768 16.471H90.9779V12.439C90.9779 11.5821 91.4015 10.978 92.1215 10.978C92.8132 10.978 93.1379 11.4275 93.1379 12.2002V16.471H95.4391V12.439C95.4391 11.5821 95.8485 10.978 96.5826 10.978C97.2744 10.978 97.5991 11.4275 97.5991 12.2002V16.471H99.9003V11.7928C99.9003 10.1772 99.0815 9.06732 97.4438 9.06732C96.5121 9.06732 95.7356 9.46069 95.1709 10.3317H95.1426C94.7756 9.55903 94.0556 9.06732 93.1097 9.06732C92.065 9.06732 91.3732 9.55903 90.9215 10.3036H90.8791V9.27805H88.6768V16.471Z" fill="white"/>
<path fill-rule="evenodd" clip-rule="evenodd" d="M12.1671 23.4954C18.6645 23.4954 23.9318 18.2539 23.9318 11.7881C23.9318 5.32236 18.6645 0.0808105 12.1671 0.0808105C5.66957 0.0808105 0.402344 5.32236 0.402344 11.7881C0.402344 18.2539 5.66957 23.4954 12.1671 23.4954ZM15.8372 5.53457C16.0159 4.90308 15.4001 4.52967 14.8376 4.9284L6.98653 10.4942C6.37659 10.9266 6.47253 11.7881 7.13065 11.7881H9.19806V11.7722H13.2274L9.94424 12.9249L8.49688 18.0417C8.31824 18.6732 8.934 19.0466 9.49647 18.6478L17.3476 13.0821C17.9575 12.6496 17.8615 11.7881 17.2035 11.7881H14.0683L15.8372 5.53457Z" fill="white"/>
</g>
<defs>
<clipPath id="clip0_2169_869">
<rect width="100" height="24" fill="white"/>
</clipPath>
</defs>
</svg>
