<svg width="98" height="24" viewBox="0 0 98 24" fill="none" xmlns="http://www.w3.org/2000/svg">
<g clip-path="url(#clip0_2169_830)">
<path d="M28.5381 16.8548H35.5518V14.7475H31.0309V6.80994H28.5381V16.8548Z" fill="white"/>
<path d="M39.7072 15.4499C38.7072 15.4499 38.1861 14.5789 38.1861 13.2724C38.1861 11.9658 38.7072 11.0808 39.7072 11.0808C40.7071 11.0808 41.2423 11.9658 41.2423 13.2724C41.2423 14.5789 40.7071 15.4499 39.7072 15.4499ZM39.7213 17.0796C42.0451 17.0796 43.5662 15.4359 43.5662 13.2724C43.5662 11.1089 42.0451 9.46515 39.7213 9.46515C37.4115 9.46515 35.8623 11.1089 35.8623 13.2724C35.8623 15.4359 37.4115 17.0796 39.7213 17.0796Z" fill="white"/>
<path d="M47.588 19.3415C48.6584 19.3415 49.602 19.1026 50.2358 18.5407C50.8132 18.0209 51.1934 17.2341 51.1934 16.1524V9.66184H48.9964V10.4345H48.9682C48.5457 9.83043 47.8978 9.45111 46.9401 9.45111C45.1515 9.45111 43.9121 10.9403 43.9121 13.0476C43.9121 15.2533 45.4191 16.4615 47.0387 16.4615C47.9119 16.4615 48.4612 16.1102 48.8837 15.6326H48.94V16.3491C48.94 17.2201 48.5316 17.7258 47.5598 17.7258C46.7993 17.7258 46.419 17.4027 46.2923 17.0234H44.067C44.2924 18.5266 45.6022 19.3415 47.588 19.3415ZM47.5739 14.7616C46.7148 14.7616 46.1514 14.0591 46.1514 12.9774C46.1514 11.8816 46.7148 11.1791 47.5739 11.1791C48.5316 11.1791 49.0386 11.9939 49.0386 12.9633C49.0386 13.9748 48.5739 14.7616 47.5739 14.7616Z" fill="white"/>
<path d="M55.7111 15.4499C54.7111 15.4499 54.19 14.5789 54.19 13.2724C54.19 11.9658 54.7111 11.0808 55.7111 11.0808C56.7111 11.0808 57.2462 11.9658 57.2462 13.2724C57.2462 14.5789 56.7111 15.4499 55.7111 15.4499ZM55.7252 17.0796C58.049 17.0796 59.5702 15.4359 59.5702 13.2724C59.5702 11.1089 58.049 9.46515 55.7252 9.46515C53.4154 9.46515 51.8662 11.1089 51.8662 13.2724C51.8662 15.4359 53.4154 17.0796 55.7252 17.0796Z" fill="white"/>
<path d="M60.2402 16.8548H62.5359V9.66184H60.2402V16.8548ZM60.2402 8.66438H62.5359V6.80994H60.2402V8.66438Z" fill="white"/>
<path d="M63.5322 19.2291H65.8279V16.1102H65.8561C66.3067 16.7143 66.9687 17.0796 67.8982 17.0796C69.7854 17.0796 71.0389 15.5904 71.0389 13.2583C71.0389 11.0948 69.87 9.45111 67.9546 9.45111C66.9687 9.45111 66.2645 9.88662 65.7716 10.5329H65.7293V9.66184H63.5322V19.2291ZM67.3067 15.3095C66.3208 15.3095 65.7575 14.5087 65.7575 13.3426C65.7575 12.1766 66.2645 11.2915 67.2644 11.2915C68.2503 11.2915 68.7151 12.1063 68.7151 13.3426C68.7151 14.5649 68.1799 15.3095 67.3067 15.3095Z" fill="white"/>
<path d="M74.7774 17.0796C76.6646 17.0796 78.0589 16.2648 78.0589 14.6913C78.0589 12.8509 76.566 12.5278 75.2985 12.3171C74.383 12.1485 73.5662 12.0782 73.5662 11.5725C73.5662 11.1229 74.0028 10.9122 74.5661 10.9122C75.1999 10.9122 75.6365 11.1089 75.721 11.7551H77.8336C77.7209 10.3362 76.6224 9.45111 74.5802 9.45111C72.8761 9.45111 71.4677 10.2378 71.4677 11.7551C71.4677 13.441 72.8056 13.7781 74.0591 13.9889C75.0168 14.1575 75.89 14.2277 75.89 14.8739C75.89 15.3375 75.4534 15.5904 74.7633 15.5904C74.0028 15.5904 73.5239 15.2392 73.4394 14.5227H71.2705C71.3409 16.1102 72.6648 17.0796 74.7774 17.0796Z" fill="white"/>
<path d="M81.1767 17.0655C82.1766 17.0655 82.8104 16.6721 83.3315 15.9697H83.3738V16.8548H85.5708V9.6618H83.2752V13.6798C83.2752 14.5367 82.7963 15.1268 82.0076 15.1268C81.2753 15.1268 80.9232 14.6913 80.9232 13.9045V9.6618H78.6416V14.3822C78.6416 15.9838 79.5148 17.0655 81.1767 17.0655Z" fill="white"/>
<path d="M86.5693 16.8548H88.865V12.8228C88.865 11.9658 89.2875 11.3617 90.0058 11.3617C90.6959 11.3617 91.0198 11.8113 91.0198 12.584V16.8548H93.3155V12.8228C93.3155 11.9658 93.7239 11.3617 94.4563 11.3617C95.1464 11.3617 95.4703 11.8113 95.4703 12.584V16.8548H97.766V12.1766C97.766 10.561 96.9491 9.45111 95.3154 9.45111C94.3859 9.45111 93.6113 9.84448 93.0479 10.7155H93.0197C92.6536 9.94282 91.9353 9.45111 90.9917 9.45111C89.9495 9.45111 89.2594 9.94282 88.8087 10.6874H88.7664V9.66184H86.5693V16.8548Z" fill="white"/>
<path fill-rule="evenodd" clip-rule="evenodd" d="M5.07854 2.27794C4.23899 2.86352 3.47981 3.55586 2.82078 4.33523C5.5139 4.08582 8.93541 4.49307 12.9078 6.47432C17.1497 8.58995 20.5655 8.66148 22.9427 8.20408C22.727 7.55262 22.4554 6.92651 22.1338 6.33131C19.4125 6.61762 15.9238 6.23865 11.858 4.21089C9.27624 2.9232 7.00041 2.39276 5.07854 2.27794ZM20.5441 4.0743C18.3951 1.67919 15.2721 0.171875 11.7961 0.171875C10.7753 0.171875 9.78484 0.301889 8.84064 0.546205C10.1195 0.894266 11.478 1.40348 12.9078 2.11662C15.8845 3.60126 18.4544 4.07928 20.5441 4.0743ZM23.451 10.4907C20.579 11.0564 16.6132 10.9403 11.858 8.56858C7.41248 6.35133 3.87419 6.37926 1.48785 6.90825C1.36467 6.93553 1.2444 6.96421 1.12703 6.99407C0.814593 7.67186 0.5652 8.3846 0.386258 9.12474C0.577378 9.07381 0.774871 9.0254 0.978634 8.98021C3.87369 8.33848 7.96416 8.36634 12.9078 10.832C17.3534 13.0493 20.8916 13.0213 23.278 12.4923C23.3598 12.4743 23.4404 12.4555 23.5196 12.4362C23.5283 12.2516 23.5326 12.0659 23.5326 11.8792C23.5326 11.4094 23.5049 10.9461 23.451 10.4907ZM23.1364 14.9069C20.2923 15.4028 16.442 15.2125 11.858 12.9263C7.41248 10.709 3.87419 10.737 1.48785 11.2659C0.958148 11.3833 0.481639 11.5263 0.0612897 11.6773C0.0601436 11.7444 0.0595703 11.8117 0.0595703 11.8792C0.0595703 18.345 5.31418 23.5865 11.7961 23.5865C17.2284 23.5865 21.7987 19.9051 23.1364 14.9069Z" fill="white"/>
</g>
<defs>
<clipPath id="clip0_2169_830">
<rect width="98" height="24" fill="white"/>
</clipPath>
</defs>
</svg>
