<svg width="121" height="24" viewBox="0 0 121 24" fill="none" xmlns="http://www.w3.org/2000/svg">
<g clip-path="url(#clip0_2169_790)">
<path fill-rule="evenodd" clip-rule="evenodd" d="M15.3081 7.01118C14.323 6.3519 13.1649 6 11.9802 6V0C14.3496 0 16.6659 0.703788 18.636 2.02237C20.6062 3.34094 22.1417 5.21509 23.0485 7.40778C23.9552 9.60048 24.1925 12.0133 23.7302 14.3411C23.2679 16.6688 22.1269 18.8071 20.4515 20.4853C18.776 22.1635 16.6413 23.3064 14.3174 23.7694C11.9935 24.2324 9.58464 23.9948 7.39556 23.0866C5.20647 22.1783 3.33542 20.6402 2.01903 18.6668C0.702627 16.6934 0 14.3734 0 12H5.9901C5.9901 13.1867 6.34142 14.3467 6.99961 15.3334C7.6578 16.3201 8.59334 17.0891 9.68791 17.5433C10.7824 17.9974 11.9868 18.1162 13.1488 17.8847C14.3108 17.6532 15.3781 17.0818 16.2159 16.2427C17.0536 15.4035 17.6241 14.3344 17.8552 13.1705C18.0863 12.0067 17.9677 10.8002 17.5143 9.70392C17.0609 8.60754 16.2932 7.67046 15.3081 7.01118Z" fill="white"/>
<path fill-rule="evenodd" clip-rule="evenodd" d="M5.9901 3.17096e-06C5.9901 0.787934 5.83516 1.56815 5.53413 2.29611C5.2331 3.02406 4.79187 3.68549 4.23564 4.24264C3.67941 4.7998 3.01907 5.24175 2.29231 5.54328C1.56556 5.84481 0.786628 6 2.61833e-07 6L0 12C1.57326 12 3.13112 11.6896 4.58463 11.0866C6.03814 10.4835 7.35883 9.59958 8.47126 8.48526C9.58374 7.371 10.4662 6.04812 11.0683 4.5922C11.6703 3.13629 11.9802 1.57586 11.9802 0L5.9901 3.17096e-06Z" fill="white"/>
<path d="M75.2472 8.67151H72.3408V17.9189H75.2472V8.67151Z" fill="white"/>
<path d="M72.6638 6.93997C72.9675 7.24441 73.3473 7.39663 73.8032 7.39663C74.259 7.39663 74.6328 7.24441 74.9239 6.93997C75.2156 6.62287 75.3612 6.24229 75.3612 5.79832C75.3612 5.34167 75.2156 4.96111 74.9239 4.65668C74.6328 4.35223 74.259 4.20001 73.8032 4.20001C73.3473 4.20001 72.9675 4.35223 72.6638 4.65668C72.3721 4.96111 72.2266 5.34167 72.2266 5.79832C72.2266 6.24229 72.3721 6.62287 72.6638 6.93997Z" fill="white"/>
<path d="M30.6436 17.9189V4.48541H33.626V15.2931H39.5718V17.9189H30.6436Z" fill="white"/>
<path fill-rule="evenodd" clip-rule="evenodd" d="M44.9426 18.1282C43.9928 18.1282 43.1317 17.9189 42.3591 17.5003C41.5993 17.069 40.9978 16.4855 40.5545 15.7497C40.1113 15.014 39.8896 14.1895 39.8896 13.2761C39.8896 12.3628 40.1113 11.5447 40.5545 10.8216C40.9978 10.0985 41.5993 9.5277 42.3591 9.10914C43.119 8.6778 43.9802 8.46216 44.9426 8.46216C45.9051 8.46216 46.7662 8.6715 47.5261 9.09006C48.2859 9.50868 48.8875 10.0859 49.3307 10.8216C49.774 11.5447 49.9956 12.3628 49.9956 13.2761C49.9956 14.1895 49.774 15.014 49.3307 15.7497C48.8875 16.4855 48.2859 17.069 47.5261 17.5003C46.7662 17.9189 45.9051 18.1282 44.9426 18.1282ZM44.9426 15.4834C45.3605 15.4834 45.7278 15.3946 46.0444 15.217C46.361 15.0267 46.6016 14.7667 46.7662 14.4368C46.9435 14.0944 47.0322 13.7074 47.0322 13.2761C47.0322 12.8449 46.9435 12.4706 46.7662 12.1535C46.5889 11.8237 46.342 11.57 46.0254 11.3924C45.7214 11.2021 45.3605 11.107 44.9426 11.107C44.5374 11.107 44.1765 11.2021 43.8598 11.3924C43.5432 11.57 43.2963 11.8237 43.119 12.1535C42.9417 12.4834 42.8531 12.8639 42.8531 13.2952C42.8531 13.7138 42.9417 14.0944 43.119 14.4368C43.2963 14.7667 43.5432 15.0267 43.8598 15.217C44.1765 15.3946 44.5374 15.4834 44.9426 15.4834Z" fill="white"/>
<path fill-rule="evenodd" clip-rule="evenodd" d="M52.2967 21.5341C53.0692 21.8893 53.962 22.0669 54.9752 22.0669C55.963 22.0669 56.8431 21.8703 57.6156 21.477C58.3882 21.0838 58.996 20.5384 59.4393 19.8407C59.8825 19.143 60.1044 18.3185 60.1044 17.3671V8.67152H57.2547V9.29282C57.0427 9.11414 56.8021 8.96414 56.5329 8.84276C56.0389 8.60174 55.4754 8.4812 54.8422 8.4812C53.9937 8.4812 53.2402 8.68418 52.5817 9.09008C51.9231 9.48332 51.4039 10.0288 51.0239 10.7265C50.644 11.4115 50.4541 12.1852 50.4541 13.0479C50.4541 13.8978 50.644 14.6715 51.0239 15.3692C51.4039 16.0669 51.9231 16.6187 52.5817 17.0246C53.2402 17.4305 53.9937 17.6335 54.8422 17.6335C55.4627 17.6335 56.0263 17.513 56.5329 17.272C56.7782 17.1552 56.9998 17.0176 57.1977 16.8592V17.4432C57.1977 18.0901 56.9888 18.5912 56.5708 18.9464C56.1656 19.3016 55.6021 19.4791 54.8802 19.4791C54.2976 19.4791 53.7974 19.3777 53.3795 19.1747C52.9743 18.9718 52.6069 18.6736 52.2777 18.2804L50.4921 20.069C50.9353 20.7033 51.5369 21.1917 52.2967 21.5341ZM56.4379 14.7793C56.1466 14.9569 55.7983 15.0457 55.3931 15.0457C54.9878 15.0457 54.6332 14.9569 54.3293 14.7793C54.038 14.6017 53.8101 14.3607 53.6454 14.0563C53.4808 13.7392 53.3985 13.403 53.3985 13.0479C53.3985 12.6673 53.4808 12.3248 53.6454 12.0204C53.8101 11.7159 54.0443 11.4749 54.3483 11.2973C54.6522 11.1197 55.0005 11.0309 55.3931 11.0309C55.7983 11.0309 56.1466 11.1197 56.4379 11.2973C56.7418 11.4749 56.9697 11.7159 57.1217 12.0204C57.2864 12.3248 57.3687 12.6673 57.3687 13.0479C57.3687 13.4284 57.2864 13.7709 57.1217 14.0753C56.9697 14.3671 56.7418 14.6017 56.4379 14.7793Z" fill="white"/>
<path fill-rule="evenodd" clip-rule="evenodd" d="M66.2212 18.1282C65.2712 18.1282 64.4098 17.9189 63.6377 17.5003C62.8775 17.069 62.2761 16.4855 61.8329 15.7497C61.3896 15.014 61.168 14.1895 61.168 13.2761C61.168 12.3628 61.3896 11.5447 61.8329 10.8216C62.2761 10.0985 62.8775 9.5277 63.6377 9.10914C64.3972 8.6778 65.2586 8.46216 66.2212 8.46216C67.1832 8.46216 68.0446 8.6715 68.8041 9.09006C69.5643 9.50868 70.1657 10.0859 70.609 10.8216C71.0522 11.5447 71.2739 12.3628 71.2739 13.2761C71.2739 14.1895 71.0522 15.014 70.609 15.7497C70.1657 16.4855 69.5643 17.069 68.8041 17.5003C68.0446 17.9189 67.1832 18.1282 66.2212 18.1282ZM66.2212 15.4834C66.6387 15.4834 67.0059 15.3946 67.3228 15.217C67.6391 15.0267 67.8799 14.7667 68.0446 14.4368C68.2219 14.0944 68.3106 13.7074 68.3106 13.2761C68.3106 12.8449 68.2219 12.4706 68.0446 12.1535C67.8673 11.8237 67.6205 11.57 67.3036 11.3924C66.9999 11.2021 66.6387 11.107 66.2212 11.107C65.8157 11.107 65.4545 11.2021 65.1382 11.3924C64.8213 11.57 64.5745 11.8237 64.3972 12.1535C64.2199 12.4834 64.1313 12.8639 64.1313 13.2952C64.1313 13.7138 64.2199 14.0944 64.3972 14.4368C64.5745 14.7667 64.8213 15.0267 65.1382 15.217C65.4545 15.3946 65.8157 15.4834 66.2212 15.4834Z" fill="white"/>
<path fill-rule="evenodd" clip-rule="evenodd" d="M82.2327 18.1092C81.6127 18.1092 81.0424 17.9887 80.5231 17.7477C80.25 17.6208 80.0032 17.4694 79.7827 17.2933V21.8196H76.9141V8.67152H79.8205V9.30974C80.0313 9.137 80.2655 8.98766 80.5231 8.86178C81.0424 8.60804 81.6127 8.4812 82.2327 8.4812C83.1066 8.4812 83.8794 8.69054 84.5502 9.10916C85.2343 9.52772 85.7662 10.0986 86.146 10.8216C86.539 11.5447 86.7348 12.3692 86.7348 13.2952C86.7348 14.2212 86.539 15.0457 86.146 15.7688C85.7662 16.4919 85.2343 17.0626 84.5502 17.4813C83.8794 17.8999 83.1066 18.1092 82.2327 18.1092ZM81.7014 15.4834C82.1189 15.4834 82.4801 15.3882 82.7838 15.198C83.1006 15.0077 83.3474 14.7476 83.5247 14.4178C83.702 14.088 83.7907 13.7138 83.7907 13.2952C83.7907 12.8639 83.702 12.4834 83.5247 12.1536C83.3474 11.8237 83.1006 11.5701 82.7838 11.3925C82.4801 11.2021 82.1255 11.107 81.7199 11.107C81.315 11.107 80.9538 11.2021 80.6375 11.3925C80.3332 11.5701 80.093 11.8237 79.9157 12.1536C79.7384 12.4834 79.6497 12.8639 79.6497 13.2952C79.6497 13.7138 79.7318 14.088 79.8965 14.4178C80.0738 14.7476 80.3206 15.0077 80.6375 15.198C80.9538 15.3882 81.3084 15.4834 81.7014 15.4834Z" fill="white"/>
<path d="M89.5793 17.9379C90.1112 18.0775 90.6491 18.1472 91.1936 18.1472C92.3461 18.1472 93.2578 17.8808 93.9293 17.348C94.6127 16.8153 94.9548 16.0986 94.9548 15.1979C94.9548 14.6144 94.8476 14.1451 94.6319 13.7899C94.4169 13.4221 94.1383 13.1303 93.7963 12.9146C93.4543 12.699 93.0931 12.5277 92.7133 12.4009C92.3335 12.274 91.9723 12.1662 91.6309 12.0774C91.2888 11.9886 91.0103 11.8871 90.7946 11.7729C90.5796 11.6588 90.4718 11.5066 90.4718 11.3163C90.4718 11.1387 90.5544 11.0055 90.7186 10.9167C90.8833 10.8152 91.1301 10.7645 91.4595 10.7645C91.8016 10.7645 92.1496 10.8343 92.5042 10.9738C92.8714 11.1133 93.2009 11.3544 93.492 11.6969L95.1447 10.0225C94.7272 9.48965 94.1827 9.09005 93.5112 8.82371C92.8528 8.54465 92.131 8.40509 91.3457 8.40509C90.5988 8.40509 89.9465 8.53193 89.3894 8.78561C88.8317 9.03935 88.401 9.38819 88.0973 9.83213C87.7936 10.2634 87.6415 10.7772 87.6415 11.3734C87.6415 11.9315 87.7493 12.3946 87.9643 12.7624C88.1794 13.1176 88.4585 13.3967 88.7999 13.5996C89.142 13.8026 89.5032 13.9612 89.883 14.0753C90.2627 14.1895 90.6239 14.2973 90.966 14.3988C91.3074 14.4876 91.5865 14.5954 91.8016 14.7223C92.0298 14.8364 92.1436 15.0077 92.1436 15.236C92.1436 15.4136 92.0484 15.5531 91.8585 15.6546C91.6812 15.7561 91.4218 15.8068 91.0798 15.8068C90.5856 15.8068 90.1298 15.718 89.7122 15.5404C89.2941 15.3502 88.9329 15.0901 88.6292 14.7603L86.9766 16.4347C87.2934 16.7772 87.6732 17.0817 88.1165 17.348C88.5723 17.6017 89.0599 17.7983 89.5793 17.9379Z" fill="white"/>
<path d="M100.255 18.1282C99.4065 18.1282 98.6529 17.9569 97.9946 17.6144C97.3483 17.2592 96.8421 16.7772 96.4749 16.1683C96.1071 15.5468 95.9238 14.8364 95.9238 14.0372V8.67151H98.8302V13.9992C98.8302 14.3163 98.8805 14.5891 98.9824 14.8174C99.0962 15.0457 99.2609 15.2233 99.476 15.3502C99.6916 15.477 99.951 15.5404 100.255 15.5404C100.685 15.5404 101.027 15.4072 101.281 15.1408C101.534 14.8618 101.661 14.4812 101.661 13.9992V8.67151H104.567V14.0182C104.567 14.8301 104.384 15.5468 104.016 16.1683C103.649 16.7772 103.142 17.2592 102.496 17.6144C101.85 17.9569 101.103 18.1282 100.255 18.1282Z" fill="white"/>
<path d="M108.918 8.67152H106.012V17.9189H108.918V12.5151C108.918 12.198 108.982 11.9316 109.108 11.7159C109.248 11.5003 109.431 11.3353 109.659 11.2212C109.887 11.0943 110.147 11.0309 110.438 11.0309C110.856 11.0309 111.204 11.1641 111.482 11.4305C111.774 11.6842 111.92 12.0457 111.92 12.5151V17.9189H114.826V12.5151C114.826 12.198 114.89 11.9316 115.016 11.7159C115.156 11.5003 115.339 11.3353 115.567 11.2212C115.795 11.0943 116.055 11.0309 116.346 11.0309C116.764 11.0309 117.112 11.1641 117.391 11.4305C117.682 11.6842 117.827 12.0457 117.827 12.5151V17.9189H120.734V12.1916C120.734 11.4178 120.569 10.7582 120.24 10.2127C119.923 9.65456 119.486 9.22964 118.929 8.93792C118.385 8.63342 117.758 8.4812 117.048 8.4812C116.327 8.4812 115.674 8.63978 115.092 8.95694C114.714 9.15896 114.383 9.41972 114.1 9.73916C113.835 9.40502 113.514 9.1316 113.135 8.91884C112.629 8.62712 112.053 8.4812 111.407 8.4812C110.723 8.4812 110.109 8.62712 109.564 8.91884C109.327 9.04022 109.112 9.1856 108.918 9.35498V8.67152Z" fill="white"/>
</g>
<defs>
<clipPath id="clip0_2169_790">
<rect width="121" height="24" fill="white"/>
</clipPath>
</defs>
</svg>
