<svg width="125" height="24" viewBox="0 0 125 24" fill="none" xmlns="http://www.w3.org/2000/svg">
<g clip-path="url(#clip0_2169_857)">
<path d="M57.9276 2.40095C57.7345 3.7765 58.6248 4.8019 60.012 4.8019C61.3996 4.8019 62.5778 3.7765 62.771 2.40095C62.9642 1.02541 62.0736 0 60.6861 0C59.2989 0 58.1207 1.02541 57.9276 2.40095Z" fill="white"/>
<path d="M57.9624 5.92737L56.7725 14.4044L60.5766 14.2584L61.7459 5.92737H57.9624Z" fill="white"/>
<path fill-rule="evenodd" clip-rule="evenodd" d="M47.9705 18.6075C50.9715 18.6075 53.5222 17.0075 54.7976 14.584L56.7361 14.6634L56.2282 18.2822H60.0121L60.4983 14.8174L62.5043 14.8996L61.2884 23.5595H65.0725L66.0025 16.9319C66.6299 18.0323 67.8105 18.6075 69.2992 18.6075C71.3111 18.6075 73.6736 17.5673 75.0857 15.4147L76.5348 15.474C76.7818 17.3442 78.5223 18.6075 81.2836 18.6075C84.487 18.6075 86.8446 16.9069 87.2029 14.3558C87.6138 11.4297 84.9307 10.9545 83.1748 10.7044L83.0217 10.681C81.9601 10.5189 81.1497 10.3952 81.2501 9.67895C81.3207 9.17879 81.7657 8.70359 82.6987 8.70359C83.4559 8.70359 83.9146 9.02873 83.9349 9.60395H87.6174C87.8542 7.37807 86.1867 5.60237 83.0839 5.60237C79.981 5.60237 77.7424 7.35305 77.3913 9.85403C76.9738 12.8302 79.7394 13.2554 81.4194 13.5055L81.5121 13.5196L81.6413 13.5391L81.6425 13.5393C82.67 13.6939 83.4451 13.8104 83.3369 14.581C83.2633 15.1061 82.8285 15.5063 81.6682 15.5063C80.6341 15.5063 80.2005 15.1812 80.2663 14.5309L53.4875 14.5304L54.8523 14.4781C55.2198 13.7518 55.4739 12.954 55.5931 12.1049C56.1197 8.35343 53.7311 5.60237 49.7961 5.60237C49.7351 5.60237 49.6743 5.60303 49.6136 5.60434L49.6257 5.59625L37.6971 5.59626C37.5262 5.59511 37.3639 5.59511 37.2119 5.59626H37.6971C40.7604 5.61694 46.598 6.00593 45.847 6.63965C43.8857 7.77059 42.5056 9.73877 42.1735 12.1049C41.6468 15.8564 44.0354 18.6075 47.9705 18.6075ZM48.462 15.1061C50.1773 15.1061 51.5096 13.8806 51.7589 12.1049C52.0082 10.3292 51.0199 9.10373 49.3046 9.10373C47.5892 9.10373 46.2569 10.3292 46.0076 12.1049C45.7584 13.8806 46.7467 15.1061 48.462 15.1061Z" fill="white"/>
<path d="M72.4314 12.1049C72.3387 12.7687 72.0941 13.3556 71.7347 13.8303L75.9201 13.6697C76.0642 13.2285 76.1742 12.7571 76.2448 12.255C76.8028 8.27842 74.4039 5.60236 70.4434 5.60236C66.6348 5.60236 63.4619 8.07832 62.8788 12.23L62.6055 14.1806L66.99 14.0123C66.691 13.5091 66.575 12.8563 66.6802 12.1049C66.9296 10.3292 68.2622 9.10372 69.9775 9.10372C71.6928 9.10372 72.6808 10.3292 72.4314 12.1049Z" fill="white"/>
<path d="M101.947 16.3836L102.657 11.3296C103.215 7.35304 105.782 5.60236 108.809 5.60236C110.574 5.60236 111.968 6.2776 112.718 7.57816C113.834 6.2776 115.392 5.60236 117.183 5.60236C120.21 5.60236 122.285 7.35304 121.727 11.3296L120.751 18.2824H116.967L117.943 11.3296C118.175 9.67894 117.449 9.10372 116.313 9.10372C115.203 9.10372 114.316 9.67894 114.084 11.3296L113.108 18.2824H109.324L110.3 11.3296C110.532 9.67894 109.806 9.10372 108.696 9.10372C107.56 9.10372 106.672 9.67894 106.441 11.3296L105.465 18.2824H103.197L103.198 18.2838H97.8965C100.096 18.0606 101.786 17.4578 101.944 16.3782L101.947 16.3836Z" fill="white"/>
<path d="M93.8748 18.6074C90.1918 18.6074 88.0148 16.5066 88.6009 12.3299L89.2636 7.61139C89.3695 6.39255 88.4107 6.24027 86.2959 5.93487H89.4986L89.4998 5.92737H93.2839L92.385 12.3299C92.1111 14.2807 92.9538 15.106 94.3665 15.106C95.7792 15.106 96.8533 14.2807 97.1272 12.3299L98.0262 5.92737H101.81L100.911 12.3299C100.328 16.4815 97.5579 18.6074 93.8748 18.6074Z" fill="white"/>
<path d="M29.436 16.8201C29.1686 16.5271 28.9377 16.203 28.7464 15.8514L26.0449 15.7041C24.6476 17.4883 22.4526 18.6075 19.9427 18.6075C16.0076 18.6075 13.619 15.8564 14.1456 12.1049C14.6722 8.35342 17.8331 5.60236 21.7682 5.60236C25.7033 5.60236 28.0919 8.35342 27.5653 12.1049C27.4449 12.9624 27.1869 13.7677 26.8135 14.4998L21.9467 14.7485C22.8943 14.2611 23.562 13.3097 23.7311 12.1049C23.9804 10.3292 22.992 9.10372 21.2767 9.10372C19.5615 9.10372 18.2291 10.3292 17.9798 12.1049C17.7932 13.4342 18.3002 14.4551 19.2864 14.8844L15.0161 15.1027H34.5411V15.1049C36.2113 15.0614 37.5001 13.8483 37.7449 12.1049C37.9941 10.3292 37.0057 9.10372 35.2904 9.10372C33.5752 9.10372 32.2428 10.3292 31.9935 12.1049C31.8735 12.9602 32.0405 13.6878 32.4376 14.2123L28.2228 14.4277C28.069 13.715 28.0429 12.9344 28.1593 12.1049C28.6859 8.35342 31.8468 5.60236 35.7819 5.60236C39.717 5.60236 42.1056 8.35342 41.579 12.1049C41.0703 15.7287 38.1037 18.419 34.3556 18.598C35.2383 19.0955 36.5205 19.4978 37.4629 19.7934C37.7773 19.8921 38.0539 19.9788 38.2652 20.0533C39.121 20.2651 39.6679 21.0558 39.5356 21.9988C39.3804 23.104 38.351 24 37.2363 24H31.1811C29.2018 24 27.7535 22.5876 27.6705 20.7239L20.202 19.9985H27.706L27.7062 19.9976H34.1633C32.6868 19.4315 31.1267 18.299 30.1237 17.4444C29.8736 17.2565 29.6443 17.0481 29.4368 16.821L29.436 16.8201Z" fill="white"/>
<path d="M0 1.92582L3.09079 2.4183L0.863971 18.2823H12.7449L13.2715 14.5308H5.47701L7.24635 1.92578L0 1.92582Z" fill="white"/>
<path d="M125 4.72612C125 5.52332 124.354 6.1696 123.558 6.1696C122.762 6.1696 122.116 5.52332 122.116 4.72612C122.116 3.92891 122.762 3.28265 123.558 3.28265C124.354 3.28265 125 3.92891 125 4.72612Z" fill="white"/>
</g>
<defs>
<clipPath id="clip0_2169_857">
<rect width="125" height="24" fill="white"/>
</clipPath>
</defs>
</svg>
