<svg width="153" height="24" viewBox="0 0 153 24" fill="none" xmlns="http://www.w3.org/2000/svg">
<g clip-path="url(#clip0_2169_754)">
<path d="M21.3489 0.923357C21.8791 0.373371 22.5991 0.0643921 23.3488 0.0643921C26.7221 0.0643921 29.901 0.0643938 33.0315 0.0644001C39.3279 0.0644132 42.4808 7.96167 38.0287 12.5804L28.3306 22.641C27.8854 23.1029 27.1242 22.7757 27.1242 22.1225V13.2615L28.2449 12.0988C29.1353 11.1751 28.5047 9.59561 27.2454 9.59561H12.9893L21.3489 0.923357Z" fill="white"/>
<path d="M18.7639 21.9338C18.2338 22.4838 17.5138 22.7928 16.764 22.7928C13.3908 22.7928 10.2119 22.7928 7.08138 22.7928C0.784957 22.7927 -2.36798 14.8955 2.08424 10.2768L11.7823 0.216211C12.2275 -0.245662 12.9887 0.0814555 12.9887 0.73464L12.9888 9.5956L11.868 10.7583C10.9775 11.6821 11.6082 13.2615 12.8675 13.2615L27.1237 13.2615L18.7639 21.9338Z" fill="white"/>
<path d="M96.3564 7.67999V19.1056H99.7213V7.67999H96.3564Z" fill="white"/>
<path d="M96.5907 5.77925C96.9884 6.17565 97.4743 6.37388 98.0496 6.37388C98.6244 6.37388 99.1074 6.17565 99.4977 5.77925C99.8954 5.3828 100.094 4.90143 100.094 4.3351C100.094 3.75461 99.8954 3.26969 99.4977 2.88035C99.1074 2.48392 98.6244 2.28571 98.0496 2.28571C97.4743 2.28571 96.9884 2.48392 96.5907 2.88035C96.193 3.26969 95.9941 3.75461 95.9941 4.3351C95.9941 4.90143 96.193 5.3828 96.5907 5.77925Z" fill="white"/>
<path fill-rule="evenodd" clip-rule="evenodd" d="M101.619 23.5654V7.67997H104.814V8.81614H104.856C105.057 8.61843 105.273 8.43792 105.506 8.2746C106.258 7.75072 107.124 7.48883 108.104 7.48883C108.963 7.48883 109.783 7.7118 110.564 8.1578C111.352 8.60374 111.991 9.26569 112.481 10.1435C112.97 11.0213 113.208 12.115 113.194 13.4246C113.201 14.4157 113.063 15.2793 112.779 16.0156C112.495 16.7447 112.111 17.35 111.629 17.8313C111.146 18.3127 110.607 18.6737 110.01 18.9144C109.414 19.1551 108.811 19.2755 108.2 19.2755C107.234 19.2755 106.368 19.0065 105.602 18.4685C105.409 18.3312 105.226 18.1826 105.053 18.0225H104.984V23.5654H101.619ZM107.412 16.4721C107.909 16.4651 108.345 16.3341 108.722 16.0793C109.098 15.8244 109.393 15.4634 109.606 14.9962C109.819 14.5289 109.922 13.9839 109.914 13.3609C109.922 12.7238 109.815 12.1787 109.595 11.7256C109.382 11.2655 109.081 10.9151 108.69 10.6744C108.3 10.4267 107.852 10.3063 107.348 10.3133C106.873 10.3063 106.446 10.4231 106.07 10.6638C105.694 10.9045 105.396 11.2549 105.176 11.715C104.956 12.1681 104.846 12.7167 104.846 13.3609C104.846 13.9839 104.956 14.5289 105.176 14.9962C105.403 15.4634 105.708 15.8244 106.092 16.0793C106.475 16.3341 106.915 16.4651 107.412 16.4721Z" fill="white"/>
<path d="M116.434 18.9251C117.059 19.1587 117.712 19.2755 118.394 19.2755C119.175 19.2755 119.888 19.1233 120.534 18.8189C121.187 18.5145 121.709 18.0898 122.099 17.5447C122.497 16.9925 122.695 16.3589 122.695 15.644C122.695 15.0776 122.575 14.5998 122.334 14.2105C122.099 13.8211 121.801 13.5025 121.439 13.2548C121.084 13.007 120.718 12.8123 120.342 12.6708C119.966 12.5221 119.636 12.4088 119.352 12.3309C118.983 12.2248 118.628 12.115 118.287 12.0018C117.947 11.8885 117.666 11.754 117.446 11.5982C117.226 11.4425 117.116 11.2372 117.116 10.9824C117.116 10.7276 117.226 10.5152 117.446 10.3453C117.666 10.1754 117.943 10.0904 118.277 10.0904C118.674 10.0904 119 10.1966 119.256 10.409C119.519 10.6213 119.717 10.8408 119.852 11.0673L122.44 9.95236C122.114 9.21613 121.56 8.62504 120.779 8.17904C120.005 7.7331 119.132 7.51007 118.159 7.51007C117.379 7.51007 116.682 7.65521 116.072 7.94544C115.469 8.23567 114.99 8.63921 114.634 9.15596C114.287 9.66567 114.113 10.2568 114.113 10.9293C114.113 11.5664 114.262 12.108 114.56 12.554C114.859 12.9999 115.245 13.368 115.721 13.6583C116.203 13.9414 116.715 14.1644 117.254 14.3273C117.489 14.391 117.744 14.4617 118.021 14.5396C118.305 14.6175 118.575 14.7095 118.83 14.8157C119.086 14.9219 119.295 15.0493 119.458 15.198C119.622 15.3466 119.704 15.5236 119.704 15.7289C119.704 15.8917 119.647 16.0439 119.533 16.1855C119.427 16.3271 119.277 16.4439 119.086 16.5359C118.894 16.6209 118.67 16.6633 118.415 16.6633C117.932 16.6633 117.513 16.5147 117.158 16.2174C116.803 15.92 116.537 15.605 116.36 15.2723L113.719 16.4297C113.96 17.0032 114.319 17.5057 114.794 17.9376C115.27 18.3623 115.817 18.6915 116.434 18.9251Z" fill="white"/>
<path d="M136.375 19.1056V7.68001H139.58V9.13476H139.638C139.889 8.78716 140.171 8.49339 140.485 8.25339C141.124 7.75784 141.88 7.51007 142.753 7.51007C143.477 7.51007 144.091 7.68704 144.596 8.04104C144.984 8.30487 145.301 8.65881 145.546 9.10287H145.607C145.969 8.64173 146.41 8.28064 146.927 8.01979C147.602 7.68001 148.337 7.51007 149.132 7.51007C149.891 7.51007 150.516 7.64458 151.006 7.91361C151.496 8.1755 151.879 8.52241 152.156 8.95424C152.433 9.37899 152.628 9.84619 152.741 10.3559C152.855 10.8585 152.912 11.3469 152.912 11.8213V19.1056H149.526V12.2354C149.526 11.6124 149.394 11.1346 149.132 10.8018C148.876 10.4621 148.5 10.2922 148.003 10.2922C147.676 10.2922 147.385 10.3665 147.13 10.5152C146.882 10.6568 146.683 10.8726 146.534 11.1629C146.392 11.4532 146.321 11.8106 146.321 12.2354V19.1056H142.956V12.2354C142.956 11.6124 142.824 11.1346 142.561 10.8018C142.299 10.4621 141.919 10.2922 141.422 10.2922C140.94 10.2922 140.539 10.4585 140.219 10.7913C139.9 11.1169 139.74 11.6053 139.74 12.2566V19.1056H136.375Z" fill="white"/>
<path d="M128.14 19.2755C127.352 19.2755 126.635 19.1091 125.99 18.7765C125.343 18.4366 124.829 17.9411 124.445 17.2898C124.069 16.6315 123.881 15.8209 123.881 14.8582V7.67999H127.246V14.4122C127.246 15.0705 127.416 15.5731 127.757 15.92C128.105 16.2598 128.528 16.4297 129.024 16.4297C129.393 16.4297 129.717 16.3483 129.993 16.1855C130.277 16.0227 130.497 15.7926 130.654 15.4952C130.817 15.1908 130.898 14.8298 130.898 14.4122V7.67999H134.263V15.1024C134.263 15.513 134.324 15.8103 134.444 15.9943C134.565 16.1784 134.81 16.3377 135.179 16.4722L133.986 19.2755C133.142 19.0561 132.524 18.7694 132.134 18.4154C131.937 18.2371 131.788 18.0318 131.687 17.7995H131.601C131.304 18.0976 130.974 18.3631 130.611 18.5959C129.894 19.049 129.07 19.2755 128.14 19.2755Z" fill="white"/>
<path fill-rule="evenodd" clip-rule="evenodd" d="M89.0696 19.2755C87.9688 19.2755 86.9643 19.0242 86.056 18.5216C85.154 18.019 84.4337 17.3252 83.8939 16.4404C83.3616 15.5554 83.0957 14.5361 83.0957 13.3822C83.0957 12.2283 83.3616 11.2089 83.8939 10.324C84.4337 9.43916 85.154 8.74893 86.056 8.25339C86.9643 7.75784 87.9688 7.51007 89.0696 7.51007C90.191 7.51007 91.2024 7.75784 92.1044 8.25339C93.0057 8.74893 93.7192 9.43916 94.2446 10.324C94.777 11.2089 95.0429 12.2283 95.0429 13.3822C95.0429 14.5361 94.777 15.5554 94.2446 16.4404C93.7192 17.3252 93.0023 18.019 92.0935 18.5216C91.1921 19.0242 90.1841 19.2755 89.0696 19.2755ZM89.0696 16.4085C89.5945 16.4085 90.0667 16.2811 90.4855 16.0262C90.9044 15.7714 91.2345 15.4174 91.4757 14.9644C91.717 14.5113 91.8379 13.9839 91.8379 13.3822C91.8379 12.8017 91.721 12.2849 91.4866 11.8318C91.2523 11.3788 90.9291 11.0249 90.5176 10.77C90.1056 10.5081 89.63 10.3771 89.0908 10.3771C88.5584 10.3771 88.0788 10.5045 87.653 10.7594C87.2342 11.0072 86.9041 11.3576 86.6628 11.8106C86.4216 12.2637 86.3007 12.7876 86.3007 13.3822C86.3007 13.9839 86.4216 14.5113 86.6628 14.9644C86.911 15.4174 87.245 15.7714 87.6639 16.0262C88.0828 16.2811 88.551 16.4085 89.0696 16.4085Z" fill="white"/>
<path fill-rule="evenodd" clip-rule="evenodd" d="M73.1366 23.3849C73.9314 23.6185 74.8047 23.7353 75.756 23.7353C76.6436 23.7353 77.4562 23.6221 78.1948 23.3956C78.9329 23.1761 79.5718 22.8434 80.111 22.3974C80.6577 21.9515 81.08 21.3993 81.3786 20.7409C81.6766 20.0825 81.8256 19.318 81.8256 18.4473V7.6694H78.7696V8.78431H78.706C78.5025 8.5902 78.2825 8.41323 78.0453 8.2534C77.3072 7.75077 76.4448 7.49951 75.458 7.49951C74.6059 7.49951 73.7859 7.7154 72.998 8.14723C72.21 8.57197 71.5642 9.20911 71.06 10.0586C70.5632 10.901 70.3145 11.9593 70.3145 13.2336C70.3145 14.1892 70.46 15.021 70.7511 15.7289C71.0422 16.4368 71.429 17.0279 71.9121 17.5023C72.402 17.9695 72.9447 18.3199 73.5412 18.5535C74.1377 18.78 74.7371 18.8933 75.3405 18.8933C76.3135 18.8933 77.1794 18.6278 77.9392 18.0969C78.1793 17.9267 78.404 17.7391 78.612 17.5341H78.663V18.6384C78.663 19.1835 78.4859 19.6224 78.1306 19.9551C77.7759 20.2949 77.3462 20.5427 76.8425 20.6984C76.3382 20.8542 75.8517 20.932 75.3835 20.932C74.8368 20.932 74.297 20.8436 73.7647 20.6666C73.2392 20.4967 72.7779 20.2914 72.3808 20.0507L71.2731 22.6841C71.7276 22.9248 72.3487 23.1584 73.1366 23.3849ZM77.5238 15.782C77.1336 16.0369 76.6826 16.1643 76.1714 16.1643C75.6672 16.1643 75.2236 16.0369 74.8403 15.782C74.4569 15.5201 74.1555 15.1626 73.9354 14.7095C73.7154 14.2494 73.6048 13.722 73.6048 13.1273C73.6048 12.5327 73.7154 12.0159 73.9354 11.5771C74.1624 11.1381 74.4747 10.8019 74.8724 10.5683C75.2701 10.3276 75.7205 10.2072 76.2247 10.2072C76.7284 10.2072 77.1725 10.324 77.5559 10.5576C77.9392 10.7913 78.2407 11.1275 78.4607 11.5664C78.6807 11.9983 78.7908 12.5185 78.7908 13.1273C78.7908 13.7291 78.6773 14.26 78.4504 14.7201C78.2229 15.1732 77.914 15.5272 77.5238 15.782Z" fill="white"/>
<path fill-rule="evenodd" clip-rule="evenodd" d="M63.4866 19.2755C62.3863 19.2755 61.3818 19.0242 60.473 18.5216C59.5716 18.019 58.8507 17.3252 58.3115 16.4404C57.7792 15.5554 57.5127 14.5361 57.5127 13.3822C57.5127 12.2283 57.7792 11.2089 58.3115 10.324C58.8507 9.43916 59.5716 8.74893 60.473 8.25339C61.3818 7.75784 62.3863 7.51007 63.4866 7.51007C64.608 7.51007 65.62 7.75784 66.5214 8.25339C67.4227 8.74893 68.1362 9.43916 68.6616 10.324C69.194 11.2089 69.4604 12.2283 69.4604 13.3822C69.4604 14.5361 69.194 15.5554 68.6616 16.4404C68.1362 17.3252 67.4193 18.019 66.5105 18.5216C65.6091 19.0242 64.6011 19.2755 63.4866 19.2755ZM63.4866 16.4085C64.012 16.4085 64.4837 16.2811 64.9025 16.0262C65.3214 15.7714 65.6515 15.4174 65.8933 14.9644C66.1346 14.5113 66.2549 13.9839 66.2549 13.3822C66.2549 12.8017 66.138 12.2849 65.9036 11.8318C65.6693 11.3788 65.3466 11.0249 64.9346 10.77C64.5232 10.5081 64.047 10.3771 63.5078 10.3771C62.9754 10.3771 62.4964 10.5045 62.07 10.7594C61.6511 11.0072 61.3211 11.3576 61.0798 11.8106C60.8386 12.2637 60.7177 12.7876 60.7177 13.3822C60.7177 13.9839 60.8386 14.5113 61.0798 14.9644C61.3285 15.4174 61.662 15.7714 62.0809 16.0262C62.4998 16.2811 62.968 16.4085 63.4866 16.4085Z" fill="white"/>
<path d="M48.416 3.45374V19.1056H57.5632V16.0049H51.9087V3.45374H48.416Z" fill="white"/>
</g>
<defs>
<clipPath id="clip0_2169_754">
<rect width="153" height="24" fill="white"/>
</clipPath>
</defs>
</svg>
