<svg width="140" height="22" viewBox="0 0 140 22" fill="none" xmlns="http://www.w3.org/2000/svg">
<g clip-path="url(#clip0_2169_816)">
<path d="M19.5341 0.846406C20.0192 0.342252 20.6781 0.059021 21.3641 0.059021C24.4507 0.059021 27.3595 0.0590226 30.2241 0.0590283C35.9855 0.0590404 38.8705 7.29819 34.7966 11.532L25.9226 20.7542C25.5153 21.1776 24.8187 20.8777 24.8187 20.279V12.1564L25.8442 11.0906C26.659 10.2438 26.0819 8.79597 24.9296 8.79597H11.8848L19.5341 0.846406Z" fill="white"/>
<path d="M17.1696 20.106C16.6845 20.6102 16.0257 20.8934 15.3396 20.8934C12.253 20.8934 9.34424 20.8934 6.47969 20.8934C0.718261 20.8933 -2.16678 13.6542 1.90715 9.4204L10.7812 0.198193C11.1885 -0.22519 11.8851 0.0746676 11.8851 0.67342L11.8852 8.79597L10.8596 9.86182C10.0448 10.7086 10.6219 12.1564 11.7742 12.1564L24.8191 12.1564L17.1696 20.106Z" fill="white"/>
<path d="M88.1689 7.03998V17.5134H91.2479V7.03998H88.1689Z" fill="white"/>
<path d="M88.3837 5.29763C88.7476 5.661 89.1923 5.84271 89.7187 5.84271C90.2446 5.84271 90.6867 5.661 91.0437 5.29763C91.4076 4.93422 91.5896 4.49296 91.5896 3.97383C91.5896 3.44171 91.4076 2.9972 91.0437 2.64031C90.6867 2.27691 90.2446 2.09521 89.7187 2.09521C89.1923 2.09521 88.7476 2.27691 88.3837 2.64031C88.0198 2.9972 87.8379 3.44171 87.8379 3.97383C87.8379 4.49296 88.0198 4.93422 88.3837 5.29763Z" fill="white"/>
<path fill-rule="evenodd" clip-rule="evenodd" d="M92.9854 21.6017V7.04002H95.9086V8.08151H95.9468C96.1309 7.90027 96.3291 7.7348 96.542 7.5851C97.2304 7.10487 98.0227 6.86481 98.9194 6.86481C99.7054 6.86481 100.456 7.0692 101.17 7.47803C101.891 7.88681 102.476 8.49359 102.924 9.29822C103.372 10.1029 103.59 11.1055 103.577 12.3059C103.583 13.2144 103.457 14.0061 103.197 14.681C102.937 15.3494 102.586 15.9042 102.145 16.3454C101.703 16.7867 101.209 17.1176 100.663 17.3383C100.118 17.5589 99.5659 17.6692 99.0069 17.6692C98.1234 17.6692 97.3311 17.4227 96.6295 16.9295C96.4528 16.8037 96.2856 16.6674 96.1277 16.5207H96.0643V21.6017H92.9854ZM98.286 15.0995C98.7406 15.093 99.1401 14.973 99.4846 14.7394C99.8286 14.5058 100.099 14.1748 100.293 13.7466C100.488 13.3182 100.583 12.8186 100.576 12.2475C100.583 11.6635 100.485 11.1639 100.284 10.7485C100.089 10.3268 99.8128 10.0055 99.4552 9.78489C99.0982 9.55782 98.6886 9.44745 98.2277 9.45395C97.7925 9.44745 97.4024 9.55457 97.0585 9.7752C96.714 9.99583 96.4413 10.317 96.24 10.7388C96.0386 11.1541 95.9379 11.657 95.9379 12.2475C95.9379 12.8186 96.0386 13.3182 96.24 13.7466C96.4476 14.1748 96.7271 14.5058 97.0779 14.7394C97.4287 14.973 97.8313 15.093 98.286 15.0995Z" fill="white"/>
<path d="M106.542 17.348C107.113 17.5621 107.711 17.6692 108.334 17.6692C109.049 17.6692 109.702 17.5297 110.293 17.2507C110.89 16.9716 111.368 16.5823 111.725 16.0826C112.089 15.5765 112.27 14.9957 112.27 14.3403C112.27 13.8211 112.16 13.3831 111.94 13.0262C111.725 12.6693 111.452 12.3773 111.121 12.1502C110.796 11.9231 110.462 11.7446 110.118 11.6148C109.773 11.4785 109.471 11.3747 109.211 11.3033C108.873 11.206 108.549 11.1054 108.237 11.0016C107.925 10.8978 107.668 10.7745 107.467 10.6317C107.266 10.489 107.165 10.3008 107.165 10.0671C107.165 9.83358 107.266 9.63888 107.467 9.48315C107.668 9.32742 107.922 9.24953 108.227 9.24953C108.591 9.24953 108.89 9.34685 109.123 9.54155C109.364 9.7362 109.545 9.9374 109.669 10.145L112.037 9.12298C111.738 8.4481 111.231 7.90627 110.517 7.49744C109.809 7.08866 109.01 6.88422 108.12 6.88422C107.406 6.88422 106.769 7.01726 106.21 7.28331C105.658 7.54935 105.22 7.91926 104.895 8.39294C104.576 8.86018 104.417 9.40201 104.417 10.0185C104.417 10.6025 104.554 11.0989 104.826 11.5078C105.1 11.9166 105.453 12.254 105.889 12.5201C106.33 12.7796 106.798 12.984 107.292 13.1333C107.506 13.1917 107.74 13.2566 107.993 13.328C108.253 13.3994 108.5 13.4837 108.734 13.5811C108.968 13.6784 109.159 13.7952 109.308 13.9314C109.458 14.0677 109.533 14.23 109.533 14.4182C109.533 14.5674 109.481 14.7069 109.377 14.8367C109.28 14.9665 109.143 15.0736 108.968 15.1579C108.792 15.2358 108.587 15.2747 108.354 15.2747C107.912 15.2747 107.529 15.1385 107.204 14.8659C106.879 14.5933 106.636 14.3046 106.473 13.9996L104.057 15.0606C104.277 15.5862 104.606 16.0469 105.041 16.4427C105.476 16.8321 105.976 17.1339 106.542 17.348Z" fill="white"/>
<path d="M124.787 17.5135V7.04H127.72V8.37351H127.773C128.003 8.05488 128.261 7.78559 128.548 7.56559C129.133 7.11134 129.824 6.88422 130.624 6.88422C131.286 6.88422 131.848 7.04644 132.309 7.37094C132.665 7.61278 132.955 7.93723 133.179 8.34428H133.234C133.566 7.92157 133.969 7.59057 134.443 7.35145C135.06 7.04 135.732 6.88422 136.46 6.88422C137.155 6.88422 137.727 7.00752 138.175 7.25413C138.623 7.49419 138.974 7.8122 139.227 8.20804C139.48 8.59739 139.659 9.02565 139.763 9.49289C139.867 9.95358 139.919 10.4013 139.919 10.8362V17.5135H136.82V11.2158C136.82 10.6447 136.7 10.2067 136.46 9.90167C136.226 9.59022 135.882 9.43449 135.427 9.43449C135.128 9.43449 134.862 9.50264 134.628 9.63888C134.401 9.76868 134.219 9.96657 134.083 10.2326C133.953 10.4987 133.888 10.8264 133.888 11.2158V17.5135H130.809V11.2158C130.809 10.6447 130.689 10.2067 130.448 9.90167C130.208 9.59022 129.86 9.43449 129.406 9.43449C128.964 9.43449 128.597 9.58697 128.304 9.89198C128.012 10.1905 127.866 10.6382 127.866 11.2352V17.5135H124.787Z" fill="white"/>
<path d="M117.252 17.6692C116.531 17.6692 115.875 17.5167 115.284 17.2117C114.693 16.9002 114.222 16.446 113.871 15.849C113.527 15.2455 113.354 14.5025 113.354 13.62V7.03998H116.433V13.2111C116.433 13.8146 116.59 14.2754 116.901 14.5933C117.219 14.9048 117.606 15.0605 118.061 15.0605C118.399 15.0605 118.694 14.9859 118.948 14.8367C119.207 14.6874 119.409 14.4766 119.552 14.204C119.701 13.9249 119.776 13.594 119.776 13.2111V7.03998H122.855V13.8438C122.855 14.2202 122.91 14.4927 123.02 14.6615C123.131 14.8302 123.355 14.9762 123.692 15.0995L122.601 17.6692C121.828 17.468 121.263 17.2052 120.906 16.8808C120.726 16.7173 120.59 16.5291 120.497 16.3162H120.419C120.147 16.5894 119.845 16.8328 119.513 17.0463C118.856 17.4615 118.103 17.6692 117.252 17.6692Z" fill="white"/>
<path fill-rule="evenodd" clip-rule="evenodd" d="M81.5024 17.6692C80.4952 17.6692 79.576 17.4389 78.7449 16.9781C77.9196 16.5174 77.2605 15.8814 76.7665 15.0703C76.2794 14.2591 76.0361 13.3247 76.0361 12.267C76.0361 11.2093 76.2794 10.2748 76.7665 9.46366C77.2605 8.65254 77.9196 8.01984 78.7449 7.56559C79.576 7.11134 80.4952 6.88422 81.5024 6.88422C82.5286 6.88422 83.454 7.11134 84.2794 7.56559C85.1041 8.01984 85.757 8.65254 86.2378 9.46366C86.7249 10.2748 86.9682 11.2093 86.9682 12.267C86.9682 13.3247 86.7249 14.2591 86.2378 15.0703C85.757 15.8814 85.101 16.5174 84.2694 16.9781C83.4446 17.4389 82.5223 17.6692 81.5024 17.6692ZM81.5024 15.0411C81.9827 15.0411 82.4148 14.9243 82.7981 14.6907C83.1814 14.4571 83.4834 14.1326 83.7041 13.7173C83.9249 13.302 84.0355 12.8186 84.0355 12.267C84.0355 11.7349 83.9286 11.2612 83.7141 10.8458C83.4997 10.4306 83.2039 10.1061 82.8274 9.8725C82.4504 9.63238 82.0152 9.51233 81.5218 9.51233C81.0347 9.51233 80.5958 9.62914 80.2062 9.86275C79.823 10.0899 79.5209 10.4111 79.3002 10.8264C79.0794 11.2417 78.9688 11.7219 78.9688 12.267C78.9688 12.8186 79.0794 13.302 79.3002 13.7173C79.5272 14.1326 79.8329 14.4571 80.2162 14.6907C80.5995 14.9243 81.0279 15.0411 81.5024 15.0411Z" fill="white"/>
<path fill-rule="evenodd" clip-rule="evenodd" d="M66.9222 21.4362C67.6495 21.6503 68.4486 21.7574 69.319 21.7574C70.1312 21.7574 70.8747 21.6535 71.5506 21.4459C72.226 21.2448 72.8106 20.9397 73.304 20.5309C73.8043 20.1221 74.1907 19.616 74.4639 19.0124C74.7366 18.409 74.8729 17.7081 74.8729 16.91V7.03024H72.0765V8.05225H72.0183C71.8322 7.87431 71.6309 7.71208 71.4138 7.56557C70.7384 7.10483 69.9493 6.87451 69.0464 6.87451C68.2667 6.87451 67.5163 7.07241 66.7953 7.46825C66.0744 7.8576 65.4834 8.44165 65.022 9.22034C64.5674 9.99254 64.3398 10.9626 64.3398 12.1307C64.3398 13.0068 64.473 13.7692 64.7394 14.4182C65.0058 15.067 65.3597 15.6089 65.8017 16.0437C66.25 16.472 66.7466 16.7932 67.2924 17.0073C67.8383 17.215 68.3867 17.3188 68.9389 17.3188C69.8292 17.3188 70.6215 17.0754 71.3168 16.5888C71.5365 16.4327 71.742 16.2608 71.9324 16.0729H71.979V17.0852C71.979 17.5848 71.817 17.9872 71.4919 18.2921C71.1673 18.6037 70.7741 18.8308 70.3132 18.9735C69.8518 19.1163 69.4066 19.1876 68.9782 19.1876C68.478 19.1876 67.984 19.1066 67.4969 18.9443C67.0161 18.7886 66.594 18.6004 66.2306 18.3798L65.2171 20.7938C65.6329 21.0144 66.2013 21.2285 66.9222 21.4362ZM70.9366 14.4668C70.5795 14.7004 70.1669 14.8172 69.6992 14.8172C69.2377 14.8172 68.8319 14.7004 68.4811 14.4668C68.1303 14.2267 67.8545 13.899 67.6532 13.4837C67.4518 13.0619 67.3506 12.5785 67.3506 12.0334C67.3506 11.4883 67.4518 11.0145 67.6532 10.6123C67.8608 10.2099 68.1466 9.90166 68.5105 9.68753C68.8744 9.4669 69.2865 9.35658 69.7479 9.35658C70.2088 9.35658 70.6152 9.46365 70.966 9.67778C71.3168 9.89197 71.5926 10.2002 71.7939 10.6025C71.9953 10.9984 72.0959 11.4753 72.0959 12.0334C72.0959 12.5849 71.9921 13.0717 71.7845 13.4934C71.5763 13.9087 71.2937 14.2332 70.9366 14.4668Z" fill="white"/>
<path fill-rule="evenodd" clip-rule="evenodd" d="M58.0923 17.6692C57.0855 17.6692 56.1664 17.4389 55.3347 16.9781C54.5099 16.5174 53.8503 15.8814 53.3569 15.0703C52.8698 14.2591 52.626 13.3247 52.626 12.267C52.626 11.2093 52.8698 10.2748 53.3569 9.46366C53.8503 8.65254 54.5099 8.01984 55.3347 7.56559C56.1664 7.11134 57.0855 6.88422 58.0923 6.88422C59.1184 6.88422 60.0444 7.11134 60.8692 7.56559C61.694 8.01984 62.3468 8.65254 62.8276 9.46366C63.3147 10.2748 63.5586 11.2093 63.5586 12.267C63.5586 13.3247 63.3147 14.2591 62.8276 15.0703C62.3468 15.8814 61.6908 16.5174 60.8592 16.9781C60.0344 17.4389 59.1121 17.6692 58.0923 17.6692ZM58.0923 15.0411C58.5731 15.0411 59.0046 14.9243 59.3879 14.6907C59.7712 14.4571 60.0732 14.1326 60.2945 13.7173C60.5153 13.302 60.6254 12.8186 60.6254 12.267C60.6254 11.7349 60.5184 11.2612 60.304 10.8458C60.0895 10.4306 59.7943 10.1061 59.4173 9.8725C59.0408 9.63238 58.6051 9.51233 58.1117 9.51233C57.6246 9.51233 57.1862 9.62914 56.7961 9.86275C56.4128 10.0899 56.1108 10.4111 55.89 10.8264C55.6693 11.2417 55.5586 11.7219 55.5586 12.267C55.5586 12.8186 55.6693 13.302 55.89 13.7173C56.1176 14.1326 56.4228 14.4571 56.8061 14.6907C57.1893 14.9243 57.6177 15.0411 58.0923 15.0411Z" fill="white"/>
<path d="M44.3018 3.16595V17.5135H52.6718V14.6712H47.4977V3.16595H44.3018Z" fill="white"/>
</g>
<defs>
<clipPath id="clip0_2169_816">
<rect width="140" height="22" fill="white"/>
</clipPath>
</defs>
</svg>
