<svg width="750" height="250" viewBox="0 0 750 250" fill="none" xmlns="http://www.w3.org/2000/svg">
<rect width="750" height="250" fill="black"/>
<rect x="61" y="77.9058" width="31.2736" height="31.2736" fill="#00A8FF"/>
<rect x="154.821" y="77.9058" width="31.2736" height="31.2736" fill="#00A8FF"/>
<rect x="154.821" y="47" width="31.2736" height="31.2736" fill="#00A8FF"/>
<rect x="61" y="109.179" width="31.2736" height="31.2736" fill="#00A8FF"/>
<rect x="154.821" y="109.179" width="31.2736" height="31.2736" fill="#00A8FF"/>
<rect x="61" y="140.453" width="31.2736" height="31.2736" fill="#00A8FF"/>
<rect x="61" y="171.726" width="31.2736" height="31.2736" fill="#00A8FF"/>
<rect x="154.821" y="140.453" width="31.2736" height="31.2736" fill="#00A8FF"/>
<rect x="154.821" y="171.726" width="31.2736" height="31.2736" fill="#00A8FF"/>
<rect x="92.2734" y="171.726" width="31.2736" height="31.2736" fill="#00A8FF"/>
<rect x="91.9055" y="47" width="30.9057" height="30.9057" fill="#00A8FF"/>
<rect x="123.547" y="171.726" width="31.2736" height="31.2736" fill="#00A8FF"/>
<rect x="122.812" y="47" width="35.3208" height="30.9057" fill="#00A8FF"/>
<path d="M260.528 148V96.52H298.832V107.248H273.272V117.688H294.656V127.984H273.272V148H260.528ZM301.292 148V111.136H312.524V116.896H312.74C315.236 112.672 318.596 110.56 322.82 110.56C323.924 110.56 324.692 110.656 325.124 110.848V120.928H324.836C321.188 120.4 318.308 121.048 316.196 122.872C314.084 124.648 313.028 127.504 313.028 131.44V148H301.292ZM338.672 148.936C334.88 148.936 331.832 147.952 329.528 145.984C327.224 144.016 326.072 141.256 326.072 137.704C326.072 133.96 327.32 131.248 329.816 129.568C332.312 127.84 335.768 126.688 340.184 126.112C343.784 125.68 346.232 125.2 347.528 124.672C348.872 124.096 349.544 123.208 349.544 122.008C349.544 119.368 347.864 118.048 344.504 118.048C340.904 118.048 338.912 119.632 338.528 122.8H327.728C327.872 119.152 329.36 116.128 332.192 113.728C335.072 111.328 339.152 110.128 344.432 110.128C349.712 110.128 353.696 111.136 356.384 113.152C359.504 115.408 361.064 118.912 361.064 123.664V142.24C361.064 145.168 361.496 146.92 362.36 147.496V148H350.984C350.504 147.328 350.096 145.96 349.76 143.896H349.616C347.264 147.256 343.616 148.936 338.672 148.936ZM342.416 141.448C344.624 141.448 346.4 140.848 347.744 139.648C349.136 138.4 349.832 136.792 349.832 134.824V130.432C348.68 131.008 346.664 131.656 343.784 132.376C341.432 132.904 339.776 133.528 338.816 134.248C337.856 134.968 337.376 136 337.376 137.344C337.376 140.08 339.056 141.448 342.416 141.448ZM366.753 148V111.136H377.985V116.392H378.201C380.745 112.168 384.465 110.056 389.361 110.056C394.209 110.056 397.665 112.216 399.729 116.536H399.873C402.657 112.216 406.521 110.056 411.465 110.056C415.545 110.056 418.641 111.328 420.753 113.872C422.913 116.368 423.993 119.752 423.993 124.024V148H412.257V126.112C412.257 121.936 410.529 119.848 407.073 119.848C405.249 119.848 403.809 120.544 402.753 121.936C401.745 123.28 401.241 125.08 401.241 127.336V148H389.505V126.112C389.505 121.936 387.777 119.848 384.321 119.848C382.497 119.848 381.057 120.544 380.001 121.936C378.993 123.28 378.489 125.08 378.489 127.336V148H366.753ZM447.331 149.08C441.379 149.08 436.603 147.256 433.003 143.608C429.451 139.912 427.675 135.208 427.675 129.496C427.675 123.928 429.427 119.296 432.931 115.6C436.483 111.904 441.043 110.056 446.611 110.056C451.651 110.056 455.851 111.592 459.211 114.664C463.627 118.696 465.787 124.672 465.691 132.592H439.195C439.579 135.136 440.467 137.128 441.859 138.568C443.251 139.96 445.123 140.656 447.475 140.656C450.499 140.656 452.539 139.432 453.595 136.984H465.043C464.179 140.536 462.115 143.44 458.851 145.696C455.635 147.952 451.795 149.08 447.331 149.08ZM439.267 125.608H453.811C453.619 123.4 452.875 121.648 451.579 120.352C450.331 119.056 448.747 118.408 446.827 118.408C442.651 118.408 440.131 120.808 439.267 125.608ZM502.04 149.224C495.08 149.224 489.536 147.736 485.408 144.76C481.328 141.736 479.216 137.416 479.072 131.8H491.888C492.416 136.696 495.776 139.144 501.968 139.144C504.272 139.144 506.216 138.712 507.8 137.848C509.432 136.936 510.248 135.568 510.248 133.744C510.248 132.496 509.744 131.464 508.736 130.648C507.728 129.784 506.696 129.184 505.64 128.848C504.632 128.512 502.688 127.984 499.808 127.264C499.664 127.216 499.568 127.192 499.52 127.192C499.472 127.144 499.4 127.12 499.304 127.12C499.208 127.072 499.112 127.048 499.016 127.048C496.808 126.52 494.984 126.064 493.544 125.68C492.152 125.248 490.544 124.624 488.72 123.808C486.944 122.944 485.528 122.008 484.472 121C483.416 119.992 482.504 118.672 481.736 117.04C481.016 115.36 480.656 113.488 480.656 111.424C480.656 106.144 482.528 102.184 486.272 99.544C490.064 96.904 495.008 95.584 501.104 95.584C506.96 95.584 511.736 96.928 515.432 99.616C519.176 102.304 521.168 106.24 521.408 111.424H508.952C508.712 109.456 507.872 107.944 506.432 106.888C504.992 105.784 503.072 105.232 500.672 105.232C498.464 105.232 496.664 105.688 495.272 106.6C493.928 107.464 493.256 108.616 493.256 110.056C493.256 111.688 494.072 112.888 495.704 113.656C497.336 114.376 500.408 115.24 504.92 116.248C507.752 116.92 510.08 117.592 511.904 118.264C513.728 118.888 515.576 119.8 517.448 121C519.368 122.2 520.784 123.76 521.696 125.68C522.656 127.552 523.136 129.808 523.136 132.448C523.136 137.68 521.144 141.784 517.16 144.76C513.224 147.736 508.184 149.224 502.04 149.224ZM541.541 148.432C537.797 148.432 534.893 147.688 532.829 146.2C530.813 144.664 529.805 142.024 529.805 138.28V118.48H524.909V111.136H529.805V99.472H541.253V111.136H547.949V118.48H541.253V135.76C541.253 137.104 541.589 138.04 542.261 138.568C542.981 139.096 544.013 139.36 545.357 139.36C545.741 139.36 546.245 139.36 546.869 139.36C547.493 139.312 547.853 139.288 547.949 139.288V147.856C546.605 148.24 544.469 148.432 541.541 148.432ZM564.839 149.08C560.663 149.08 557.447 147.856 555.191 145.408C552.983 142.912 551.879 139.552 551.879 135.328V111.136H563.543V132.88C563.543 137.056 565.391 139.144 569.087 139.144C571.103 139.144 572.687 138.472 573.839 137.128C574.991 135.736 575.567 133.936 575.567 131.728V111.136H587.303V148H576.071V143.464H575.855C573.071 147.208 569.399 149.08 564.839 149.08ZM607.421 149.152C602.621 149.152 598.733 147.4 595.757 143.896C592.781 140.392 591.293 135.616 591.293 129.568C591.293 123.808 592.781 119.128 595.757 115.528C598.781 111.88 602.669 110.056 607.421 110.056C611.837 110.056 615.269 111.808 617.717 115.312H617.933V96.52H629.669V148H618.437V143.032H618.293C615.893 147.112 612.269 149.152 607.421 149.152ZM610.445 139.864C612.845 139.864 614.741 138.928 616.133 137.056C617.525 135.136 618.221 132.64 618.221 129.568C618.221 126.352 617.573 123.784 616.277 121.864C614.981 119.896 613.085 118.912 610.589 118.912C608.285 118.912 606.461 119.872 605.117 121.792C603.821 123.712 603.173 126.256 603.173 129.424C603.173 132.64 603.821 135.184 605.117 137.056C606.413 138.928 608.189 139.864 610.445 139.864ZM635.277 148V111.136H647.013V148H635.277ZM635.277 106.024V96.52H647.013V106.024H635.277ZM664.884 137.776C666.228 139.792 668.148 140.8 670.644 140.8C673.14 140.8 675.06 139.792 676.404 137.776C677.796 135.76 678.492 133.048 678.492 129.64C678.492 126.232 677.796 123.52 676.404 121.504C675.06 119.44 673.14 118.408 670.644 118.408C668.148 118.408 666.228 119.416 664.884 121.432C663.54 123.448 662.868 126.184 662.868 129.64C662.868 133.048 663.54 135.76 664.884 137.776ZM684.9 143.608C681.3 147.304 676.572 149.152 670.716 149.152C664.86 149.152 660.108 147.304 656.46 143.608C652.812 139.912 650.988 135.256 650.988 129.64C650.988 124.024 652.812 119.368 656.46 115.672C660.108 111.976 664.86 110.128 670.716 110.128C676.572 110.128 681.3 111.976 684.9 115.672C688.548 119.368 690.372 124.024 690.372 129.64C690.372 135.256 688.548 139.912 684.9 143.608Z" fill="white"/>
</svg>
