<svg width="88" height="36" viewBox="0 0 88 36" fill="none" xmlns="http://www.w3.org/2000/svg">
<path opacity="0.5" d="M4.64997 4.20563C4.87617 3.12588 5.94627 2.25 7.03638 2.25H12.9628L8.03426 25.7201H2.10783C1.01685 25.7201 0.31563 24.8451 0.5427 23.7645L4.64997 4.20563ZM24.405 4.20563C24.6321 3.12588 25.7013 2.25 26.7914 2.25H32.7179L27.7893 25.7201H21.8629C20.7719 25.7201 20.0707 24.8451 20.2978 23.7645L24.405 4.20563ZM63.9161 4.20563C64.1423 3.12588 65.2106 2.25 66.3025 2.25H72.2289L67.3004 25.7201H61.3731C60.2821 25.7201 59.5817 24.8451 59.8088 23.7645L63.9161 4.20563ZM34.6937 2.25H40.6201C41.7111 2.25 42.4123 3.125 42.1852 4.20563L38.078 23.7645C37.8518 24.8451 36.7825 25.7201 35.6915 25.7201H29.7651L34.6937 2.25ZM74.2047 2.25H80.1311C81.2221 2.25 81.9233 3.125 81.6962 4.20563L77.5881 23.7645C77.3619 24.8451 76.2935 25.7201 75.2026 25.7201H69.2753L74.2047 2.25ZM44.161 4.20563C44.3872 3.12588 45.4555 2.25 46.5465 2.25H52.4738L47.5444 25.7201H41.618C40.527 25.7201 39.8258 24.8451 40.0537 23.7645L44.1601 4.20563H44.161ZM54.4487 2.25H60.376C61.467 2.25 62.1674 3.125 61.9403 4.20563L55.7798 33.5444C55.5519 34.6241 54.4835 35.5 53.3926 35.5H47.4652L54.4487 2.25ZM11.6526 17.8967H19.5548L18.3229 23.7645C18.0958 24.8451 17.0266 25.7201 15.9365 25.7201H10.0092L11.6517 17.8976L11.6526 17.8967ZM39.2324 27.6766H47.1338L45.4912 35.5H39.5648C38.4729 35.5 37.7726 34.625 37.9997 33.5444L39.2324 27.6766ZM60.6814 29.4958L59.6809 34.261C59.6374 34.4657 59.5695 34.5218 59.3625 34.5218H58.9075C58.7004 34.5218 58.6552 34.4657 58.6987 34.261L59.6992 29.4958C59.7427 29.2919 59.8105 29.235 60.0176 29.235H60.4726C60.6797 29.235 60.7249 29.2919 60.6814 29.4958ZM61.9968 32.7105H61.9038C61.8046 32.7105 61.7698 32.7385 61.7498 32.8374L61.4505 34.261C61.407 34.4657 61.3383 34.5218 61.1321 34.5218H60.6762C60.47 34.5218 60.4248 34.4657 60.4674 34.261L61.4679 29.4958C61.5114 29.2919 61.581 29.235 61.7872 29.235H62.7268C63.8091 29.235 64.2188 29.6226 64.0187 30.5737L63.8517 31.3709C63.6516 32.3229 63.0791 32.7105 61.9968 32.7105ZM62.2718 30.3489L62.0108 31.5966C61.989 31.6955 62.0116 31.7235 62.1117 31.7235H62.2613C62.6093 31.7235 62.7964 31.5826 62.8721 31.223L62.9765 30.7225C63.0521 30.3638 62.9251 30.222 62.5763 30.222H62.4266C62.3274 30.222 62.2926 30.25 62.2718 30.3489ZM65.5238 31.1171L66.2633 31.9352C66.6513 32.3579 66.7053 32.6116 66.6061 33.0841L66.58 33.211C66.393 34.0991 65.9475 34.5926 64.9148 34.5926C63.883 34.5926 63.6281 34.177 63.8665 33.0412L63.8961 32.9012C63.9396 32.6965 64.0083 32.6396 64.2145 32.6396H64.6982C64.9053 32.6396 64.9505 32.6965 64.907 32.9004L64.8417 33.211C64.7826 33.4927 64.8731 33.6056 65.1219 33.6056C65.3716 33.6056 65.5073 33.5006 65.5612 33.2469L65.5891 33.1121C65.6308 32.9144 65.6082 32.8164 65.3942 32.5836L64.6982 31.8294C64.3084 31.4137 64.2588 31.1731 64.358 30.7006L64.3902 30.5466C64.5773 29.6585 65.0227 29.1641 66.0545 29.1641C67.0872 29.1641 67.3421 29.5806 67.1037 30.7155L67.0742 30.8564C67.0307 31.0611 66.9619 31.1171 66.7557 31.1171H66.2711C66.065 31.1171 66.0197 31.0611 66.0623 30.8564L66.1276 30.5466C66.1868 30.264 66.0971 30.152 65.8475 30.152C65.5986 30.152 65.4621 30.257 65.409 30.5107L65.3838 30.6306C65.3402 30.8354 65.3629 30.9343 65.5238 31.1171ZM69.6929 29.4958C69.7364 29.2919 69.8042 29.235 70.0113 29.235H70.4663C70.6733 29.235 70.7186 29.2919 70.6751 29.4958L69.9304 33.0421C69.692 34.177 69.2631 34.5926 68.2304 34.5926C67.1986 34.5926 66.9437 34.177 67.182 33.0412L67.9268 29.4958C67.9703 29.2919 68.039 29.235 68.2452 29.235H68.7011C68.9072 29.235 68.9525 29.2919 68.9099 29.4958L68.1295 33.211C68.0703 33.4927 68.1677 33.6056 68.4383 33.6056C68.701 33.6056 68.8533 33.4927 68.9125 33.211L69.6929 29.4958ZM72.6561 32.3649C72.6587 32.4217 72.6769 32.4349 72.7126 32.4349C72.7474 32.4349 72.7727 32.4217 72.7988 32.3649L74.0289 29.4187C74.089 29.27 74.1603 29.235 74.3387 29.235H75.0294C75.2356 29.235 75.2809 29.2919 75.2382 29.4958L74.2377 34.261C74.1942 34.4657 74.1246 34.5218 73.9184 34.5218H73.5913C73.3851 34.5218 73.339 34.4657 73.3825 34.261L73.8628 31.9772C73.8758 31.9142 73.8645 31.8994 73.8219 31.8994C73.7932 31.8994 73.761 31.9142 73.7436 31.9632L72.75 34.2899C72.6787 34.4588 72.5873 34.5218 72.3812 34.5218H72.188C71.974 34.5218 71.9096 34.4588 71.9096 34.2899L71.8853 31.9624C71.8809 31.9134 71.8696 31.8994 71.8339 31.8994C71.7913 31.8994 71.7739 31.9142 71.7608 31.9772L71.2815 34.261C71.238 34.4657 71.1701 34.5218 70.9631 34.5218H70.6359C70.4289 34.5218 70.3836 34.4657 70.4271 34.261L71.4276 29.4958C71.4711 29.2919 71.5399 29.235 71.746 29.235H72.3377C72.5865 29.235 72.6665 29.2919 72.6648 29.5386L72.6552 32.3649H72.6561ZM87.5 2.25C87.5 3.21688 86.7257 4 85.7713 4C85.5435 3.99931 85.3181 3.95349 85.108 3.86516C84.8978 3.77684 84.707 3.64773 84.5465 3.48521C84.3859 3.3227 84.2588 3.12996 84.1724 2.91802C84.0859 2.70608 84.0418 2.47908 84.0426 2.25C84.0426 1.28312 84.8169 0.5 85.7713 0.5C86.7257 0.5 87.5 1.28312 87.5 2.25Z" fill="#8799A8"/>
</svg>
