<svg width="134" height="30" viewBox="0 0 134 30" fill="none" xmlns="http://www.w3.org/2000/svg">
<g opacity="0.5" clip-path="url(#clip0_2731_427)">
<path d="M38.6621 15.6015C38.6887 15.0891 38.6887 14.5756 38.6621 14.0631H9.43699C9.43083 14.1908 9.42544 14.3192 9.42236 14.4477H3.29994L3.29686 14.64H0V15.0246H3.29609L3.30071 15.2169H9.42236C9.42544 15.3462 9.43006 15.4738 9.43776 15.6015H17.8282C17.7963 15.3464 17.7804 15.0895 17.7804 14.8323H30.1023C30.1023 15.0931 30.0869 15.35 30.0545 15.6015H38.6621ZM38.6012 13.2938H29.909C29.8414 13.0321 29.7565 12.7751 29.6548 12.5246H18.2302C18.1293 12.7738 18.0438 13.03 17.976 13.2938H9.49706C9.51092 13.1654 9.52632 13.0369 9.54326 12.9092H3.42085L3.44703 12.7215H0V12.3369H3.50787L3.5433 12.14H9.66571C9.68882 12.0115 9.715 11.8831 9.74272 11.7554H38.3571C38.4649 12.2592 38.5473 12.7723 38.6012 13.2938ZM38.17 10.9862H28.7515C28.5293 10.7092 28.2838 10.4519 28.0176 10.2169H19.8667C19.601 10.4523 19.3545 10.7092 19.1327 10.9862H9.92986C9.96452 10.8577 10.0015 10.7292 10.04 10.6015H3.91757L3.98535 10.3854H0V10H4.11395L4.17402 9.83154H10.2964C10.3426 9.70231 10.3919 9.57461 10.4428 9.44692H37.6563C37.855 9.94692 38.0267 10.4615 38.17 10.9862ZM37.3252 8.67846H10.7739C10.834 8.54923 10.8956 8.42154 10.9595 8.29385H4.83786L4.94645 8.08154H0V7.69692H5.15515L5.25295 7.52461H11.3754C11.4501 7.39538 11.5271 7.26692 11.6056 7.14H36.4934C36.7999 7.63385 37.0787 8.14769 37.3252 8.67846ZM9.49706 16.3708H38.602C38.5473 16.8923 38.4649 17.4062 38.3571 17.9092H29.279C29.4215 17.6631 29.5478 17.4062 29.6556 17.14H18.2286C18.3364 17.4062 18.462 17.6631 18.6044 17.9092H9.74195C9.71454 17.7814 9.68887 17.6532 9.66494 17.5246H3.5433C3.53076 17.457 3.51869 17.3893 3.5071 17.3215H0V16.9369H3.44626C3.43742 16.8765 3.42895 16.8159 3.42085 16.7554H9.54326C9.52617 16.6274 9.51077 16.4992 9.49706 16.3708ZM9.92909 18.6785H38.1692C38.0267 19.2038 37.855 19.7169 37.6563 20.2169H26.9271C27.3173 20.0006 27.6829 19.7427 28.0176 19.4477H19.8667C20.2013 19.7427 20.5669 20.0006 20.9571 20.2169H10.4428C10.3922 20.0894 10.3434 19.9612 10.2964 19.8323H4.17402L4.10779 19.6469H0V19.2623H3.97995C3.95895 19.196 3.93841 19.1296 3.91834 19.0631H10.04C10.0015 18.9354 9.96452 18.8077 9.92909 18.6785ZM10.7739 20.9862H37.3252C37.079 21.5151 36.8012 22.0289 36.4934 22.5246H11.6056C11.5266 22.3976 11.4496 22.2694 11.3746 22.14H5.25295C5.21445 22.0738 5.17671 22.0077 5.13975 21.9408H0V21.5562H4.93259L4.83786 21.3715H10.9603C10.8963 21.2442 10.8342 21.116 10.7739 20.9869V20.9862ZM13.0303 24.4477C13.1436 24.5785 13.2598 24.7062 13.3784 24.8323H34.7206C35.1752 24.3485 35.5964 23.8345 35.9813 23.2938H12.1178C12.2102 23.4238 12.3041 23.5523 12.4012 23.6785H6.27875L6.43123 23.8746H0V24.2592H6.74621C6.79935 24.3231 6.85325 24.3854 6.90793 24.4477H13.0303ZM15.5848 26.7554C15.772 26.8885 15.9622 27.0169 16.1547 27.14H31.9444C32.6532 26.6853 33.3215 26.1706 33.942 25.6015H14.1578C14.3003 25.7323 14.4458 25.8608 14.5937 25.9862H8.47126C8.55444 26.0569 8.63838 26.1262 8.72309 26.1938H0V26.5785H9.21982C9.29991 26.6385 9.38154 26.6977 9.46317 26.7554H15.5856H15.5848ZM20.9887 29.1277C21.976 29.3377 22.9995 29.4477 24.0492 29.4477C26.4011 29.4477 28.6229 28.8938 30.5913 27.9092H17.507C17.7812 28.0462 18.0592 28.1746 18.3418 28.2938H12.2194C12.3288 28.34 12.4389 28.3854 12.549 28.4292H0V28.8138H13.6503C15.0034 29.2262 16.4396 29.4477 17.9275 29.4477C18.9772 29.4477 20.0014 29.3377 20.9887 29.1277ZM12.1178 6.37077H35.9813C35.5964 5.83009 35.1752 5.31609 34.7206 4.83231H13.3784C13.2598 4.95846 13.1436 5.08615 13.0296 5.21692H6.90793L6.77239 5.37538H0V5.76H6.4551C6.3958 5.83461 6.33728 5.91 6.27952 5.98615H12.4012C12.3041 6.11308 12.2102 6.24154 12.1178 6.37077ZM14.157 4.06308H33.9413C33.321 3.49404 32.6529 2.97932 31.9444 2.52462H16.1547C15.9622 2.64846 15.772 2.77692 15.5848 2.90923H9.46317C9.37846 2.97 9.29375 3.03077 9.21058 3.09308H0V3.47769H8.71462C8.63299 3.54385 8.55213 3.61077 8.47204 3.67846H14.5937C14.4458 3.80385 14.3003 3.93231 14.157 4.06308ZM17.5078 1.75538H30.592C28.5612 0.740335 26.3209 0.2135 24.0499 0.216923C22.9995 0.216923 21.976 0.327692 20.9887 0.537692C19.9824 0.324 18.9563 0.216487 17.9275 0.216923C16.2841 0.216923 14.7046 0.487692 13.2298 0.986154H0V1.37077H18.3418C18.0598 1.49017 17.7817 1.61844 17.5078 1.75538ZM85.6738 0C86.1797 0 86.5771 0.126154 86.8659 0.378462C87.167 0.619231 87.3172 0.955385 87.3172 1.38923C87.3172 1.82231 87.167 2.16462 86.8659 2.41692C86.5771 2.65769 86.1797 2.77846 85.6738 2.77846C85.1686 2.77846 84.765 2.65769 84.4639 2.41692C84.1751 2.16462 84.0303 1.82231 84.0303 1.38923C84.0303 0.956154 84.1751 0.62 84.4639 0.378462C84.765 0.126154 85.1686 0 85.6738 0ZM87.0823 4.45538V12.3023C87.0823 12.8077 87.167 13.1508 87.3357 13.3308C87.5159 13.5115 87.817 13.6015 88.2382 13.6015V13.98C87.9014 13.9636 87.5643 13.9515 87.2271 13.9438C86.7639 13.9196 86.3001 13.9076 85.8362 13.9077C85.3672 13.9077 84.8913 13.92 84.41 13.9438C84.0487 13.9518 83.6875 13.9639 83.3264 13.98V13.6015C83.7477 13.6015 84.0426 13.5115 84.2113 13.3308C84.3915 13.1508 84.4824 12.8077 84.4824 12.3023V6.62C84.4824 6.07923 84.3977 5.68154 84.229 5.43C84.0727 5.16538 83.7716 5.03308 83.3264 5.03308V4.65385C83.7115 4.69 84.085 4.70769 84.4462 4.70769C84.9514 4.70769 85.4212 4.69 85.8547 4.65385C86.2999 4.60615 86.7096 4.54 87.0823 4.45538Z" fill="#8799A8"/>
<path fill-rule="evenodd" clip-rule="evenodd" d="M92.1648 6.10989V4.45451C91.7921 4.53912 91.3824 4.60528 90.9373 4.65297C90.4914 4.68912 90.0216 4.70682 89.5279 4.70682C89.1668 4.70682 88.794 4.68912 88.4082 4.65297V5.0322C88.8418 5.0322 89.1429 5.16451 89.3115 5.42912C89.4802 5.68143 89.5641 6.07836 89.5641 6.61912V15.6391C89.5641 16.1199 89.4802 16.4445 89.3115 16.613C89.1552 16.7814 88.878 16.8653 88.4806 16.8653V17.2445L89.4378 17.1907C89.8772 17.1784 90.3167 17.1723 90.7563 17.1722C91.3701 17.1722 91.9484 17.1784 92.4898 17.1899C93.0435 17.2145 93.4771 17.2322 93.7905 17.2437V16.8653C93.2846 16.8653 92.8872 16.7691 92.5984 16.5768C92.3096 16.3968 92.1648 16.0237 92.1648 15.4584V13.6507C92.3235 13.783 92.5098 13.8922 92.7247 13.9791C93.1098 14.1484 93.5372 14.2322 94.0069 14.2322C94.6454 14.2322 95.2168 14.1176 95.7228 13.8891C96.2371 13.6632 96.6893 13.3167 97.0412 12.8791C97.4139 12.4222 97.6973 11.863 97.8899 11.2014C98.0947 10.5399 98.1971 9.77066 98.1971 8.8922C98.1971 7.89451 98.0523 7.06451 97.7636 6.40297C97.4748 5.72912 97.0889 5.23066 96.6076 4.90605C96.1266 4.5693 95.5515 4.39247 94.9642 4.40066C94.2657 4.40066 93.6519 4.58066 93.1221 4.94143C92.7054 5.2222 92.3866 5.61143 92.1648 6.11066V6.10989ZM92.1648 6.72989V13.2691C92.2649 13.3876 92.3858 13.486 92.526 13.5645C92.7547 13.6845 93.0135 13.7445 93.3031 13.7445C93.8444 13.7445 94.2719 13.5645 94.5853 13.2037C94.898 12.8307 95.1205 12.3137 95.253 11.6522C95.3978 10.9791 95.4702 10.1791 95.4702 9.25297C95.4702 8.21912 95.4039 7.40682 95.2715 6.81759C95.139 6.22836 94.958 5.80759 94.7293 5.55528C94.5006 5.3022 94.2241 5.17605 93.8984 5.17605C93.4655 5.17605 93.0682 5.34528 92.707 5.68143C92.4351 5.94297 92.2542 6.29297 92.1648 6.72989Z" fill="#8799A8"/>
<path d="M102.342 4.40056C102.848 4.40056 103.287 4.46672 103.661 4.59903C104.046 4.71903 104.323 4.8398 104.492 4.9598C104.901 5.23672 105.154 5.05595 105.25 4.41826H105.629C105.605 4.75518 105.587 5.17056 105.575 5.66287C105.563 6.14441 105.557 6.78749 105.557 7.59364H105.178C105.116 7.14261 105.001 6.70052 104.834 6.27672C104.681 5.86541 104.427 5.49929 104.094 5.2121C103.781 4.93518 103.372 4.79672 102.866 4.79672C102.517 4.79672 102.222 4.8998 101.981 5.10441C101.74 5.29672 101.62 5.57903 101.62 5.9521C101.62 6.31287 101.729 6.63133 101.945 6.90826C102.162 7.17287 102.439 7.43133 102.776 7.68364C103.125 7.92441 103.486 8.18287 103.859 8.45903C104.257 8.7598 104.618 9.06056 104.943 9.36133C105.255 9.63338 105.517 9.95679 105.719 10.3175C105.913 10.6659 106.009 11.0806 106.009 11.5621C106.009 12.1029 105.852 12.5775 105.539 12.9867C105.226 13.3836 104.811 13.6906 104.293 13.9067C103.787 14.1236 103.221 14.2321 102.596 14.2321C102.267 14.2358 101.94 14.1994 101.62 14.1236C101.37 14.0613 101.127 13.9705 100.898 13.8529C100.741 13.7806 100.59 13.7144 100.446 13.6544C100.323 13.5869 100.197 13.5268 100.067 13.4744C99.9465 13.4383 99.8379 13.4798 99.7416 13.6006C99.6577 13.7206 99.5915 13.889 99.543 14.1052H99.1641C99.1879 13.7206 99.2064 13.2513 99.218 12.6983C99.2303 12.1452 99.2364 11.4113 99.2364 10.4983H99.6153C99.6877 11.1475 99.8202 11.7244 100.013 12.229C100.205 12.7229 100.464 13.1136 100.789 13.4021C101.126 13.679 101.548 13.8175 102.054 13.8175C102.258 13.8175 102.457 13.7752 102.65 13.6906C102.842 13.6059 102.998 13.4675 103.119 13.2752C103.252 13.0829 103.318 12.8367 103.318 12.5367C103.318 12.0067 103.143 11.5675 102.794 11.219C102.457 10.8706 102.024 10.4913 101.494 10.0829C101.109 9.7698 100.741 9.46364 100.392 9.16287C100.069 8.86723 99.7891 8.52716 99.5614 8.15287C99.3415 7.76865 99.2292 7.33234 99.2364 6.8898C99.2364 6.34903 99.3805 5.8921 99.6693 5.51903C99.9641 5.14206 100.358 4.85464 100.807 4.68903C101.296 4.49539 101.817 4.39745 102.342 4.40056ZM124.761 4.59903C124.448 4.46672 124.039 4.40056 123.533 4.40056C122.966 4.39482 122.408 4.53131 121.908 4.79749C121.414 5.0498 121.023 5.47672 120.733 6.07826V4.45518C120.361 4.53903 119.951 4.60518 119.506 4.65287C119.072 4.68903 118.603 4.70672 118.097 4.70672C117.736 4.70672 117.363 4.68903 116.978 4.65287V5.0321C117.423 5.0321 117.724 5.16441 117.88 5.42903C118.049 5.68133 118.133 6.07826 118.133 6.61903V12.3013C118.133 12.8067 118.043 13.1498 117.862 13.3298C117.694 13.5106 117.399 13.6006 116.978 13.6006V13.979C117.339 13.9629 117.7 13.9508 118.061 13.9429C118.53 13.9191 119 13.9071 119.47 13.9067C119.891 13.9067 120.301 13.919 120.697 13.9429C121.107 13.9552 121.408 13.9675 121.601 13.979V13.6006C121.288 13.6006 121.065 13.5106 120.932 13.3298C120.8 13.1498 120.733 12.8067 120.733 12.3013V7.28672C120.733 6.8898 120.812 6.53518 120.968 6.2221C121.137 5.89749 121.353 5.64518 121.618 5.46518C121.873 5.28811 122.175 5.19357 122.485 5.19441C122.763 5.19441 122.967 5.26056 123.099 5.39287C123.244 5.51287 123.34 5.68749 123.389 5.91595C123.437 6.1321 123.46 6.39056 123.46 6.69133V12.3013C123.46 12.8067 123.394 13.1498 123.262 13.3298C123.142 13.5106 122.919 13.6006 122.594 13.6006V13.979C122.81 13.9675 123.129 13.9552 123.551 13.9429C124.405 13.8942 125.262 13.8942 126.116 13.9429C126.561 13.9552 126.892 13.9675 127.108 13.979V13.6006C126.723 13.6006 126.452 13.5106 126.296 13.3298C126.14 13.1498 126.061 12.8067 126.061 12.3013V7.36672L126.06 7.31056L126.057 7.12826C126.085 6.82673 126.166 6.53245 126.296 6.25903C126.465 5.93364 126.681 5.67518 126.946 5.48287C127.211 5.29056 127.5 5.19441 127.813 5.19441C128.126 5.19441 128.355 5.26056 128.499 5.39287C128.656 5.51287 128.758 5.68749 128.807 5.91595C128.867 6.1321 128.897 6.39056 128.897 6.69133V12.3013C128.897 12.8067 128.83 13.1498 128.698 13.3298C128.578 13.5106 128.355 13.6006 128.03 13.6006V13.979C128.247 13.9675 128.566 13.9552 128.987 13.9429C129.414 13.9187 129.841 13.9066 130.269 13.9067C130.715 13.9067 131.166 13.919 131.624 13.9429C132.081 13.9552 132.425 13.9675 132.653 13.979V13.6006C132.232 13.6006 131.931 13.5106 131.75 13.3298C131.581 13.1498 131.497 12.8067 131.497 12.3013V7.44903C131.497 6.84749 131.455 6.36672 131.371 6.00595C131.286 5.63287 131.148 5.33287 130.955 5.10441C130.763 4.88749 130.51 4.7198 130.197 4.59903C129.884 4.46672 129.474 4.40056 128.969 4.40056C128.355 4.40056 127.777 4.52672 127.236 4.77903C126.716 5.02672 126.296 5.49903 125.973 6.19595C125.962 6.13227 125.949 6.06891 125.935 6.00595C125.851 5.63287 125.712 5.33287 125.52 5.10441C125.327 4.88749 125.074 4.7198 124.761 4.59903ZM115.561 12.0129V4.45441C115.187 4.53903 114.778 4.60518 114.332 4.65287C113.899 4.68903 113.43 4.70672 112.924 4.70672C112.563 4.70672 112.19 4.68903 111.804 4.65287V5.0321C112.25 5.0321 112.551 5.16441 112.707 5.42903C112.876 5.68133 112.96 6.07826 112.96 6.61903V11.3452C112.96 11.7421 112.876 12.1029 112.707 12.4275C112.564 12.7247 112.346 12.9797 112.075 13.1675C111.822 13.348 111.518 13.4429 111.208 13.4383C110.908 13.4383 110.679 13.3775 110.522 13.2575C110.359 13.1156 110.246 12.9265 110.197 12.7167C110.146 12.4553 110.121 12.1893 110.124 11.9229V4.45441C109.752 4.53903 109.342 4.60518 108.897 4.65287C108.463 4.68903 107.993 4.70672 107.488 4.70672C107.127 4.70672 106.754 4.68903 106.368 4.65287V5.0321C106.814 5.0321 107.115 5.16441 107.271 5.42903C107.44 5.68133 107.524 6.07826 107.524 6.61903V11.1829C107.524 11.7721 107.566 12.2536 107.651 12.6259C107.735 12.999 107.879 13.2998 108.084 13.5283C108.265 13.7329 108.511 13.9013 108.824 14.0336C109.137 14.1652 109.547 14.2321 110.053 14.2321C110.679 14.2321 111.244 14.1052 111.75 13.8529C112.268 13.5883 112.671 13.1552 112.96 12.5544V14.1775C113.363 14.0783 113.774 14.0119 114.188 13.979C114.622 13.9429 115.091 13.9252 115.597 13.9252C115.97 13.9252 116.343 13.9429 116.717 13.979V13.6006C116.283 13.6006 115.982 13.4744 115.813 13.2213C115.645 12.9567 115.561 12.5544 115.561 12.0136V12.0129Z" fill="#8799A8"/>
<path fill-rule="evenodd" clip-rule="evenodd" d="M80.6272 4.88744C79.9649 4.56282 79.194 4.40052 78.3153 4.40052C77.4605 4.40052 76.6958 4.56282 76.0219 4.88744C75.3597 5.21206 74.836 5.73513 74.4509 6.45667C74.0774 7.17821 73.8903 8.13436 73.8903 9.32513C73.8903 10.5159 74.0774 11.4713 74.4501 12.1936C74.8352 12.9028 75.3589 13.4197 76.0212 13.7444C76.6958 14.069 77.4605 14.2321 78.3153 14.2321C79.194 14.2321 79.9649 14.069 80.6272 13.7444C81.2888 13.4197 81.807 12.9028 82.1798 12.1936C82.5533 11.4721 82.7397 10.5159 82.7397 9.32513C82.7397 8.13436 82.5533 7.17898 82.1798 6.45667C81.807 5.73513 81.2888 5.21206 80.6272 4.88744ZM77.1055 5.84359C77.4305 5.12206 77.834 4.76129 78.3153 4.76129C78.809 4.76129 79.2125 5.12206 79.5252 5.84359C79.8502 6.55282 80.0127 7.71359 80.0127 9.32513C80.0127 10.9367 79.8502 12.0974 79.5252 12.8067C79.2125 13.5159 78.809 13.8713 78.3153 13.8713C77.834 13.8713 77.4305 13.5159 77.1055 12.8067C76.7805 12.0974 76.618 10.9367 76.618 9.32513C76.618 7.71359 76.7797 6.55282 77.1055 5.84359ZM68.0012 17.3705C67.2542 17.3705 66.5865 17.3044 65.9966 17.1721C65.419 17.0521 64.9616 16.8597 64.6242 16.5951C64.2993 16.3421 64.1368 16.0297 64.1368 15.6567C64.1368 15.2836 64.3047 14.9474 64.642 14.6467C64.9793 14.3582 65.4791 14.1297 66.1414 13.9613L66.3031 14.2497C66.0963 14.4048 65.9243 14.6013 65.7979 14.8267C65.7016 15.0436 65.6531 15.2659 65.6531 15.4944C65.6531 15.9997 65.8818 16.3844 66.3401 16.6482C66.8098 16.9251 67.4413 17.0636 68.2361 17.0636C68.7775 17.0636 69.2596 16.9913 69.6808 16.8474C70.1144 16.7028 70.4509 16.4859 70.692 16.1982C70.9453 15.909 71.0716 15.5544 71.0716 15.1336C71.0716 14.7728 70.9392 14.4659 70.6743 14.2136C70.4094 13.9728 69.8795 13.8528 69.0848 13.8528H67.965C67.4721 13.8528 67.0378 13.799 66.6651 13.6905C66.3031 13.5828 66.0205 13.4136 65.8156 13.1851C65.6115 12.9451 65.5091 12.6444 65.5091 12.2836C65.5091 11.7782 65.7078 11.3336 66.1052 10.9482C66.4163 10.6467 66.846 10.3597 67.3944 10.0882C67.0339 10.0434 66.6798 9.95696 66.3393 9.83052C65.7979 9.6259 65.3705 9.31282 65.0578 8.89206C64.7444 8.47129 64.5881 7.93052 64.5881 7.26898C64.5881 6.60744 64.7444 6.0659 65.0578 5.64513C65.3705 5.21206 65.7979 4.89898 66.3401 4.70667C66.8815 4.50282 67.4952 4.40052 68.1814 4.40052C68.8684 4.40052 69.4821 4.50282 70.0235 4.70744C70.3809 4.83359 70.6874 5.01282 70.9453 5.24359C71.0986 5.02282 71.285 4.8259 71.5045 4.65282C71.9142 4.34052 72.3539 4.18359 72.8229 4.18359C73.2079 4.18359 73.4975 4.29206 73.69 4.50898C73.8949 4.71282 73.9973 4.98359 73.9973 5.32052C73.9973 5.68129 73.9003 5.95129 73.7078 6.13206C73.5152 6.30129 73.2988 6.38513 73.0578 6.38513C72.8458 6.38233 72.6415 6.30559 72.4802 6.16821C72.3108 6.02359 72.2153 5.80744 72.1914 5.51898C72.1706 5.26052 72.243 4.94052 72.4086 4.55744C72.0574 4.70667 71.7863 4.87667 71.5953 5.06821C71.4513 5.20687 71.3256 5.36325 71.2211 5.53359C71.2503 5.56975 71.2788 5.60744 71.3058 5.64513C71.6192 6.0659 71.7755 6.60667 71.7755 7.26821C71.7755 7.92975 71.6192 8.47129 71.3058 8.89206C70.9931 9.31282 70.5657 9.6259 70.0235 9.83052C69.4821 10.0344 68.8684 10.1367 68.1814 10.1367C68.0787 10.1368 67.976 10.1345 67.8734 10.1297C67.7109 10.2397 67.5545 10.3567 67.4051 10.4797C67.3123 10.5523 67.2379 10.6455 67.1877 10.752C67.1376 10.8584 67.1131 10.9752 67.1163 11.0928C67.1163 11.4774 67.3574 11.6697 67.8387 11.6697H69.8071C70.4694 11.6697 71.0593 11.7482 71.5768 11.9044C72.1067 12.0613 72.5218 12.3197 72.8229 12.6805C73.1363 13.029 73.2927 13.4859 73.2927 14.0513C73.2927 14.6405 73.1001 15.1874 72.7151 15.6928C72.3416 16.1982 71.764 16.6005 70.9808 16.9013C70.1983 17.2144 69.2049 17.3705 68.0012 17.3705ZM68.1814 9.81206C68.5072 9.81206 68.759 9.63205 68.94 9.27129C69.1209 8.89821 69.2111 8.23052 69.2111 7.26898C69.2111 6.30667 69.1209 5.64513 68.94 5.28436C68.7598 4.91129 68.5072 4.72513 68.1822 4.72513C67.8687 4.72513 67.6161 4.91129 67.4236 5.28436C67.2426 5.64513 67.1525 6.30667 67.1525 7.26898C67.1525 8.23052 67.2426 8.89821 67.4236 9.27129C67.6161 9.63205 67.8687 9.81206 68.1814 9.81206ZM61.7987 4.88744C61.1364 4.56282 60.3663 4.40052 59.4876 4.40052C58.6328 4.40052 57.868 4.56282 57.1942 4.88744C56.5319 5.21206 56.0082 5.73513 55.6231 6.45667C55.2496 7.17821 55.0625 8.13436 55.0625 9.32513C55.0625 10.5159 55.2496 11.4713 55.6224 12.1936C56.0074 12.9028 56.5311 13.4197 57.1934 13.7444C57.868 14.069 58.6328 14.2321 59.4876 14.2321C60.3663 14.2321 61.1372 14.069 61.7987 13.7444C62.461 13.4197 62.9785 12.9028 63.352 12.1936C63.7255 11.4721 63.9119 10.5159 63.9119 9.32513C63.9119 8.13436 63.7255 7.17898 63.352 6.45667C62.9793 5.73513 62.461 5.21206 61.7987 4.88744ZM58.277 5.84359C58.6027 5.12206 59.0055 4.76129 59.4876 4.76129C59.9805 4.76129 60.384 5.12206 60.6967 5.84359C61.0224 6.55282 61.1849 7.71359 61.1849 9.32513C61.1849 10.9367 61.0224 12.0974 60.6974 12.8067C60.384 13.5159 59.9812 13.8713 59.4876 13.8713C59.0055 13.8713 58.602 13.5159 58.277 12.8067C57.952 12.0974 57.7895 10.9367 57.7895 9.32513C57.7895 7.71359 57.952 6.55282 58.277 5.84359Z" fill="#8799A8"/>
<path d="M50.1998 1.20703V1.56857C49.7909 1.58011 49.4774 1.6278 49.261 1.71242C49.162 1.74591 49.0724 1.80276 49.0001 1.87815C48.9277 1.95354 48.8745 2.04524 48.8452 2.14549C48.7735 2.34934 48.7373 2.67472 48.7373 3.11934V12.2832C48.7373 12.6555 48.7612 12.9324 48.8097 13.1132C48.8698 13.2932 48.9784 13.4132 49.1347 13.474C49.3034 13.534 49.5506 13.564 49.8748 13.564H50.7604C51.1686 13.564 51.5544 13.4678 51.9156 13.2755C52.2776 13.0832 52.6018 12.8124 52.8906 12.4632C53.1952 12.0753 53.439 11.6435 53.6137 11.1824C53.8062 10.6901 53.9502 10.1424 54.0465 9.54088H54.4624C54.4262 9.95011 54.4085 10.4793 54.4085 11.1286C54.4085 11.4055 54.4139 11.8078 54.4262 12.337C54.4385 12.8663 54.4739 13.414 54.534 13.9786C53.8422 13.9531 53.15 13.941 52.4578 13.9424C51.6876 13.9309 51.0007 13.9247 50.3985 13.9247H49.2433C48.7735 13.9247 48.2676 13.9309 47.7262 13.9424C47.184 13.9424 46.6365 13.9486 46.0828 13.9609C45.5283 13.9609 45.0046 13.967 44.5117 13.9786V13.6178C44.8968 13.594 45.1856 13.5455 45.3781 13.474C45.5706 13.4016 45.6969 13.257 45.7578 13.0409C45.8294 12.824 45.8656 12.4993 45.8656 12.0663V3.11934C45.8656 2.67395 45.8294 2.35011 45.7578 2.14549C45.734 2.04543 45.6851 1.95309 45.6155 1.87728C45.546 1.80147 45.4581 1.74472 45.3604 1.71242C45.1679 1.6278 44.8845 1.58011 44.5117 1.5678V1.20703C45.4624 1.24222 46.4137 1.26017 47.365 1.26088C47.8948 1.26088 48.4124 1.25549 48.9175 1.24319C49.4358 1.23088 49.8632 1.21934 50.1998 1.20703Z" fill="#8799A8"/>
<path fill-rule="evenodd" clip-rule="evenodd" d="M130.821 28.8866C130.796 28.7573 130.813 28.5889 130.874 28.3812L133.417 19.1758C133.01 19.3426 132.589 19.4726 132.158 19.5642C131.717 19.6512 131.211 19.6981 130.64 19.7073L130.549 19.9796C130.973 19.9796 131.237 20.0489 131.341 20.1873C131.444 20.3258 131.457 20.5412 131.38 20.835L130.777 23.1035C130.74 22.994 130.674 22.8961 130.588 22.8189C130.441 22.6804 130.238 22.6112 129.978 22.6112C129.459 22.6112 128.978 22.7281 128.537 22.9612C128.093 23.2034 127.694 23.5192 127.356 23.895C127.001 24.2759 126.699 24.7034 126.46 25.1658C126.224 25.6157 126.037 26.0894 125.902 26.5789C125.779 27.0005 125.713 27.4367 125.707 27.8758C125.707 28.2904 125.772 28.6319 125.902 28.8996C126.032 29.1589 126.209 29.3535 126.434 29.4827C126.659 29.6042 126.91 29.6642 127.187 29.6642C127.611 29.6642 127.992 29.5396 128.329 29.2889C128.667 29.0296 128.982 28.6319 129.277 28.0958C129.401 27.8773 129.524 27.6319 129.648 27.3596L129.562 27.6812C129.484 27.9344 129.432 28.195 129.407 28.4589C129.39 28.6835 129.407 28.8742 129.459 29.0296C129.562 29.4527 129.883 29.665 130.419 29.665C130.618 29.665 130.821 29.6258 131.029 29.5481C131.237 29.4704 131.431 29.3365 131.613 29.1458C131.804 28.9558 131.955 28.6842 132.067 28.3289L132.379 27.3827H132.133L131.925 27.9658C131.769 28.4073 131.622 28.705 131.484 28.8604C131.354 29.0081 131.22 29.0812 131.081 29.0812C130.934 29.0812 130.848 29.0166 130.821 28.8866ZM130.129 25.5481C130.031 25.8642 129.925 26.165 129.809 26.4489C129.593 27.0027 129.364 27.4781 129.121 27.8758C128.888 28.2642 128.658 28.5665 128.433 28.7835C128.208 28.9904 128.009 29.0942 127.836 29.0942C127.672 29.0942 127.551 29.0166 127.473 28.8612C127.404 28.6966 127.369 28.4504 127.369 28.1219C127.369 27.655 127.421 27.1796 127.525 26.6958C127.628 26.2035 127.771 25.7319 127.953 25.2827C128.12 24.8611 128.329 24.4571 128.576 24.0765C128.81 23.7135 129.056 23.4281 129.316 23.2204C129.584 23.0127 129.848 22.9096 130.107 22.9096C130.281 22.9096 130.419 22.9704 130.523 23.0912C130.596 23.1696 130.651 23.2835 130.69 23.4342L130.129 25.5481Z" fill="#8799A8"/>
<path d="M122.182 29.4829H120.586L122.143 23.8952C122.222 23.636 122.247 23.4544 122.222 23.3506C122.195 23.2467 122.118 23.1952 121.988 23.1952C121.824 23.1952 121.672 23.2775 121.533 23.4413C121.395 23.6052 121.252 23.8952 121.105 24.3106L120.884 24.919H120.638L120.975 23.9467C121.097 23.6006 121.247 23.3337 121.429 23.1429C121.611 22.9444 121.81 22.806 122.027 22.7283C122.243 22.6506 122.463 22.6113 122.688 22.6113C122.966 22.6113 123.169 22.6675 123.298 22.7806C123.437 22.8929 123.524 23.0398 123.559 23.2213C123.602 23.417 123.611 23.6188 123.584 23.8175C123.567 24.0252 123.532 24.2283 123.48 24.4267L123.271 25.2398L123.324 25.1013C123.567 24.4875 123.8 23.999 124.025 23.636C124.259 23.2644 124.506 23.0006 124.765 22.8452C125.02 22.6908 125.312 22.6099 125.609 22.6113C125.921 22.6113 126.158 22.7021 126.323 22.8837C126.497 23.0652 126.583 23.2898 126.583 23.5583C126.583 23.7737 126.53 23.9775 126.427 24.1675C126.326 24.3458 126.184 24.497 126.011 24.6083C125.847 24.7121 125.657 24.7637 125.441 24.7637C125.224 24.7637 125.051 24.7075 124.921 24.5952C124.8 24.4829 124.739 24.3183 124.739 24.1029C124.739 23.9121 124.783 23.7398 124.869 23.5837C124.953 23.4316 125.068 23.2992 125.207 23.1952C125.345 23.0829 125.497 23.0052 125.661 22.9613C125.643 22.9435 125.621 22.9303 125.596 22.9229C125.567 22.9137 125.536 22.9093 125.505 22.9098C125.315 22.9098 125.12 22.979 124.921 23.1175C124.722 23.2467 124.514 23.459 124.298 23.7529C124.081 24.0467 123.861 24.4352 123.636 24.919C123.383 25.4912 123.157 26.0755 122.961 26.6698C122.863 26.9575 122.765 27.2667 122.666 27.5983L122.182 29.4829Z" fill="#8799A8"/>
<path fill-rule="evenodd" clip-rule="evenodd" d="M117.332 27.4796L117.277 27.6812C117.195 27.9739 117.139 28.2733 117.108 28.5758C117.082 28.8527 117.125 29.0858 117.238 29.2758C117.411 29.535 117.705 29.665 118.12 29.665C118.32 29.665 118.518 29.6258 118.718 29.5481C118.925 29.4704 119.12 29.3365 119.302 29.1458C119.483 28.9473 119.635 28.6704 119.756 28.3166L120.081 27.3704H119.834L119.639 27.9535C119.483 28.4027 119.332 28.7012 119.185 28.8481C119.038 28.9942 118.895 29.0681 118.756 29.0681C118.644 29.0681 118.571 29.0335 118.536 28.9642C118.509 28.8762 118.5 28.7835 118.51 28.6919C118.527 28.582 118.553 28.4737 118.588 28.3681L120.263 22.6112C120.002 22.6734 119.737 22.7168 119.47 22.7412C119.202 22.7673 118.913 22.7842 118.601 22.7927L118.413 23.4866C118.405 23.3104 118.354 23.1389 118.264 22.9873C118.196 22.8692 118.097 22.7717 117.978 22.7054C117.859 22.6391 117.724 22.6065 117.588 22.6112C117.208 22.6112 116.827 22.7281 116.446 22.9612C116.041 23.2155 115.678 23.5304 115.369 23.895C115.019 24.2926 114.715 24.7273 114.46 25.1912C114.205 25.6564 114 26.1477 113.85 26.6565C113.708 27.1144 113.634 27.5904 113.63 28.0696C113.63 28.5542 113.742 28.9427 113.967 29.2365C114.192 29.5219 114.538 29.6642 115.005 29.6642C115.334 29.6642 115.65 29.5696 115.953 29.3796C116.264 29.1889 116.559 28.8735 116.836 28.4335C117.007 28.1681 117.172 27.8504 117.332 27.4796ZM116.213 28.7958C116.013 28.9773 115.836 29.0681 115.681 29.0681C115.55 29.0681 115.451 29.0035 115.382 28.8735C115.321 28.735 115.291 28.5066 115.291 28.1866C115.291 27.7281 115.342 27.2573 115.446 26.7735C115.55 26.2889 115.689 25.8227 115.862 25.3735C116.044 24.9235 116.243 24.5219 116.459 24.1673C116.676 23.8135 116.892 23.5319 117.108 23.3242C117.333 23.1166 117.545 23.0135 117.744 23.0135C117.952 23.0135 118.099 23.1173 118.186 23.3242C118.272 23.5119 118.294 23.7635 118.253 24.0781L117.869 25.495L117.913 25.2696C117.775 25.8227 117.61 26.3327 117.419 26.7996C117.254 27.2171 117.054 27.6202 116.823 28.005C116.615 28.3419 116.411 28.6058 116.213 28.7958ZM111.885 28.3812C111.824 28.5889 111.807 28.7573 111.833 28.8866C111.858 29.0166 111.946 29.0812 112.093 29.0812C112.231 29.0812 112.365 29.0081 112.495 28.8612C112.633 28.705 112.78 28.4073 112.936 27.9658L113.144 27.3827H113.39L113.079 28.3289C112.967 28.6835 112.815 28.9558 112.625 29.1458C112.463 29.3225 112.263 29.46 112.04 29.5481C111.846 29.6236 111.639 29.6632 111.43 29.665C110.894 29.665 110.574 29.4527 110.47 29.0296C110.415 28.8446 110.398 28.6507 110.418 28.4589C110.435 28.2342 110.487 27.9742 110.574 27.6812L110.659 27.3596C110.535 27.6319 110.411 27.8773 110.288 28.0958C109.994 28.6319 109.678 29.0296 109.341 29.2881C109.012 29.5362 108.61 29.6687 108.198 29.665C107.922 29.665 107.671 29.6035 107.446 29.4835C107.214 29.3465 107.028 29.1431 106.914 28.8996C106.783 28.6319 106.719 28.2904 106.719 27.8758C106.719 27.4781 106.783 27.045 106.914 26.5789C107.043 26.1035 107.229 25.6327 107.471 25.1658C107.711 24.7036 108.012 24.2761 108.367 23.895C108.722 23.5058 109.115 23.195 109.548 22.9612C109.992 22.7272 110.487 22.6069 110.989 22.6112C111.249 22.6112 111.452 22.6804 111.599 22.8189C111.684 22.8935 111.748 22.9881 111.789 23.1035L112.391 20.835C112.469 20.5412 112.456 20.325 112.352 20.1865C112.248 20.0481 111.984 19.9789 111.56 19.9789L111.651 19.7073C112.161 19.7044 112.669 19.6565 113.17 19.5642C113.6 19.4726 114.022 19.3426 114.429 19.1758L111.885 28.3812ZM110.82 26.4489C110.936 26.1642 111.043 25.8642 111.14 25.5481L111.701 23.4342C111.674 23.308 111.617 23.1903 111.534 23.0912C111.483 23.0316 111.419 22.9843 111.348 22.9528C111.276 22.9214 111.198 22.9066 111.119 22.9096C110.86 22.9096 110.596 23.0135 110.328 23.2204C110.067 23.4281 109.821 23.7135 109.587 24.0765C109.34 24.4567 109.131 24.8605 108.964 25.2819C108.78 25.7396 108.637 26.2127 108.536 26.6958C108.434 27.1643 108.381 27.6424 108.38 28.1219C108.38 28.4504 108.415 28.6966 108.484 28.8604C108.562 29.0166 108.683 29.0942 108.847 29.0942C109.021 29.0942 109.219 28.9904 109.444 28.7827C109.67 28.5673 109.899 28.2642 110.133 27.875C110.402 27.4202 110.632 26.943 110.82 26.4489Z" fill="#8799A8"/>
<path d="M99.5703 29.4829H101.167L101.317 28.8967L101.309 28.939C101.474 28.3336 101.66 27.7506 101.868 27.1883C102.07 26.6516 102.295 26.1239 102.542 25.6067C102.776 25.1221 103.01 24.699 103.244 24.3359C103.477 23.9729 103.702 23.6921 103.918 23.4929C104.135 23.2852 104.333 23.1821 104.515 23.1821C104.662 23.1821 104.753 23.2336 104.788 23.3375C104.824 23.4553 104.828 23.5805 104.801 23.7006C104.775 23.8411 104.74 23.9798 104.697 24.1159L103.516 27.6813C103.395 28.0444 103.325 28.3552 103.308 28.6144C103.291 28.8736 103.338 29.0859 103.451 29.2498C103.538 29.3798 103.659 29.479 103.814 29.5482C103.979 29.6252 104.174 29.6652 104.399 29.6652C104.606 29.6652 104.814 29.6259 105.022 29.5482C105.238 29.479 105.437 29.349 105.619 29.159C105.809 28.969 105.965 28.6921 106.086 28.329L106.41 27.3829H106.164L105.956 27.9659C105.792 28.4159 105.637 28.7136 105.489 28.8606C105.351 29.0083 105.217 29.0813 105.087 29.0813C104.948 29.0813 104.862 29.0252 104.827 28.9121C104.792 28.7921 104.814 28.6144 104.892 28.3813L106.164 24.569C106.276 24.2321 106.333 23.9167 106.333 23.6229C106.341 23.3206 106.26 23.0783 106.086 22.8967C105.921 22.7067 105.627 22.6121 105.204 22.6121C104.883 22.6121 104.576 22.6813 104.282 22.819C103.988 22.9575 103.702 23.199 103.426 23.5452C103.148 23.8821 102.863 24.3406 102.568 24.919C102.373 25.3092 102.194 25.7072 102.032 26.1121L102.464 24.4267C102.517 24.219 102.555 24.0113 102.581 23.8044C102.608 23.589 102.598 23.3936 102.555 23.2206C102.514 23.0418 102.408 22.8848 102.257 22.7798C102.11 22.6675 101.894 22.6113 101.608 22.6113C101.261 22.6113 100.946 22.7067 100.66 22.8967C100.375 23.0867 100.141 23.4367 99.9592 23.9467L99.6219 24.919H99.8683L100.089 24.3098C100.245 23.8867 100.387 23.5967 100.518 23.4413C100.656 23.2775 100.807 23.1952 100.972 23.1952C101.093 23.1952 101.167 23.2298 101.193 23.299C101.227 23.3683 101.236 23.4544 101.218 23.5583C101.199 23.672 101.173 23.7845 101.141 23.8952L99.5703 29.4829Z" fill="#8799A8"/>
<path fill-rule="evenodd" clip-rule="evenodd" d="M96.2613 27.6813L96.316 27.4798C96.1773 27.8109 96.0114 28.1299 95.82 28.4336C95.5428 28.8736 95.2486 29.1898 94.9367 29.3798C94.6341 29.5698 94.3183 29.6644 93.9895 29.6644C93.522 29.6644 93.1762 29.5221 92.9514 29.2367C92.7257 28.9429 92.6133 28.5544 92.6133 28.0698C92.6133 27.6206 92.6872 27.1498 92.8343 26.6567C92.9845 26.1478 93.189 25.6566 93.4442 25.1913C93.6986 24.7273 94.0033 24.2926 94.353 23.8952C94.6621 23.5306 95.0254 23.2156 95.4304 22.9613C95.8108 22.7283 96.192 22.6113 96.5724 22.6113C96.8666 22.6113 97.0915 22.7367 97.2478 22.9883C97.331 23.1167 97.3811 23.2829 97.3972 23.4867L97.5851 22.7929C97.8963 22.7844 98.1866 22.7675 98.4546 22.7413C98.7318 22.7152 98.9952 22.6721 99.2463 22.6113L97.572 28.369C97.5368 28.4745 97.5108 28.5829 97.4943 28.6929C97.4844 28.7845 97.4933 28.8771 97.5205 28.9652C97.5551 29.0344 97.6283 29.069 97.7407 29.069C97.8793 29.069 98.0218 28.9959 98.1689 28.849C98.316 28.7021 98.4677 28.4029 98.6233 27.9544L98.8181 27.3706H99.0645L98.7403 28.3167C98.6194 28.6713 98.4677 28.9475 98.2859 29.1475C98.1243 29.3237 97.9247 29.461 97.7022 29.549C97.5121 29.6251 97.3094 29.6648 97.1046 29.6659C96.6895 29.6659 96.3953 29.5359 96.222 29.2767C96.1096 29.0867 96.0665 28.8536 96.0927 28.5767C96.1229 28.2742 96.1793 27.9741 96.2613 27.6813ZM94.6641 29.0683C94.8204 29.0683 94.9976 28.9775 95.197 28.7959C95.3957 28.6059 95.599 28.3421 95.8069 28.0052C96.0141 27.6683 96.2136 27.2667 96.4038 26.7998C96.594 26.3329 96.7588 25.8229 96.8974 25.269L96.8535 25.4952L97.237 24.079C97.2779 23.7636 97.2555 23.5121 97.1701 23.3252C97.083 23.1175 96.9359 23.0136 96.728 23.0136C96.5293 23.0136 96.3175 23.1175 96.0927 23.3244C95.8763 23.5321 95.6599 23.8129 95.4434 24.1675C95.227 24.5213 95.0276 24.9236 94.8458 25.3729C94.6715 25.8281 94.5327 26.2962 94.4308 26.7729C94.329 27.2373 94.2769 27.7113 94.2752 28.1867C94.2752 28.5067 94.3052 28.7359 94.3661 28.8736C94.4354 29.0036 94.5347 29.0683 94.6641 29.0683Z" fill="#8799A8"/>
<path d="M93.5157 23.0511L93.555 22.7919H92.0086L92.6201 20.6657C92.3642 20.7286 92.1039 20.7721 91.8415 20.7957C91.5735 20.8211 91.2831 20.8388 90.972 20.8472L90.4137 22.7919H89.2323L89.1676 23.0511H90.3397L89.0113 27.6803C88.8989 28.0603 88.8604 28.4019 88.895 28.7042C88.9381 28.998 89.059 29.2319 89.2585 29.4042C89.4657 29.5772 89.7645 29.6642 90.1541 29.6642C90.5954 29.6642 90.9759 29.5472 91.2962 29.3134C91.6166 29.0803 91.8677 28.6957 92.0494 28.1596L92.3089 27.3819H92.0617L91.8677 27.9134C91.7113 28.3457 91.5388 28.648 91.3478 28.8211C91.1661 28.9942 90.9843 29.0803 90.8026 29.0803C90.7312 29.0827 90.6601 29.0687 90.595 29.0393C90.5298 29.01 90.4723 28.9661 90.4268 28.9111C90.3397 28.7996 90.3313 28.6226 90.4006 28.3803L91.9339 23.0511H93.5157ZM89.2169 20.2119C89.1307 20.4365 89.0136 20.7657 88.8665 21.1972C88.7279 21.6203 88.59 22.1742 88.4514 22.8565H88.1919C88.2173 22.7357 88.235 22.6103 88.2435 22.4811C88.2601 22.3651 88.2688 22.2482 88.2697 22.1311C88.2697 21.7934 88.2004 21.5003 88.0617 21.2496C87.9286 20.9866 87.7149 20.7729 87.4518 20.6396C87.1838 20.4842 86.8373 20.4065 86.4137 20.4065C85.9547 20.4065 85.565 20.5272 85.2454 20.7696C84.9251 21.0026 84.7649 21.3788 84.7649 21.8972C84.7649 22.2172 84.838 22.5203 84.9851 22.8049C85.1415 23.0819 85.3363 23.3542 85.5697 23.6219C85.8122 23.8811 86.0671 24.1449 86.3351 24.4126C86.6039 24.6719 86.855 24.9403 87.0883 25.2165C87.3217 25.4934 87.5126 25.7872 87.6597 26.098C87.8153 26.4011 87.8931 26.7334 87.8931 27.0965C87.8931 27.5549 87.7807 27.948 87.5558 28.2765C87.3364 28.5991 87.0481 28.8692 86.7117 29.0672C86.3591 29.2687 85.9787 29.4172 85.5827 29.508C85.2016 29.6097 84.809 29.6622 84.4145 29.6642C84.0248 29.6642 83.7006 29.6334 83.4411 29.5734C83.2192 29.5317 83.0049 29.4573 82.8049 29.3526C82.635 29.2596 82.4661 29.1647 82.2982 29.068C82.2218 29.004 82.1337 28.9554 82.0387 28.9249C81.9782 28.8946 81.9122 28.8768 81.8446 28.8726C81.7314 28.8726 81.6367 28.9288 81.5589 29.0419C81.4568 29.2107 81.3699 29.3884 81.2994 29.5726H81.0391C81.2535 29.0454 81.4315 28.5041 81.572 27.9526C81.6752 27.5549 81.7922 27.058 81.9224 26.4611H82.1819C82.1457 26.6328 82.1154 26.8057 82.091 26.9796C82.0649 27.1526 82.0564 27.3257 82.0649 27.4988C82.091 28.1034 82.2766 28.5703 82.6232 28.8988C82.9782 29.2272 83.4973 29.3911 84.1804 29.3911C84.7603 29.3911 85.1977 29.2703 85.4919 29.0288C85.7861 28.778 85.9331 28.4149 85.9331 27.9396C85.9331 27.5765 85.8638 27.2472 85.7252 26.9542C85.5944 26.6493 85.4195 26.3653 85.2062 26.1111C84.9862 25.8481 84.7568 25.593 84.5184 25.3465C84.2796 25.0999 84.05 24.8446 83.83 24.5811C83.6175 24.3193 83.4387 24.0319 83.2978 23.7257C83.1561 23.3983 83.0855 23.0447 83.0906 22.688C83.0906 22.2565 83.1815 21.8803 83.3633 21.5603C83.5464 21.2482 83.7939 20.9786 84.0895 20.7696C84.3926 20.5534 84.7308 20.391 85.0891 20.2896C85.4377 20.1796 85.8009 20.1228 86.1665 20.1211C86.634 20.1211 87.019 20.1772 87.3217 20.2903C87.6251 20.4019 87.8846 20.5365 88.101 20.6919L88.3475 20.8472C88.4252 20.8819 88.4861 20.8988 88.5292 20.8988C88.6501 20.8988 88.7934 20.6703 88.9574 20.2119H89.2169Z" fill="#8799A8"/>
<path fill-rule="evenodd" clip-rule="evenodd" d="M76.6866 28.8866C76.6604 28.7573 76.6781 28.5889 76.739 28.3812L79.2827 19.1758C78.8754 19.3426 78.454 19.4726 78.0235 19.5642C77.5822 19.6512 77.0763 19.6981 76.5049 19.7073L76.414 19.9796C76.8375 19.9796 77.1025 20.0489 77.2057 20.1873C77.3096 20.3258 77.3227 20.5412 77.2449 20.835L76.6427 23.1035C76.6049 22.994 76.5397 22.896 76.4533 22.8189C76.3062 22.6804 76.1029 22.6112 75.8433 22.6112C75.3235 22.6112 74.8437 22.7281 74.4024 22.9612C73.9586 23.2034 73.5591 23.5192 73.2211 23.895C72.866 24.2759 72.5646 24.7034 72.3254 25.1658C72.0897 25.6157 71.9025 26.0894 71.7671 26.5789C71.6439 27.0004 71.5783 27.4367 71.5723 27.8758C71.5723 28.2904 71.6377 28.6319 71.7671 28.8996C71.8973 29.1589 72.0744 29.3535 72.2993 29.4827C72.5241 29.6042 72.7752 29.6642 73.0524 29.6642C73.476 29.6642 73.8572 29.5396 74.1945 29.2889C74.5318 29.0296 74.8476 28.6319 75.1418 28.0958C75.265 27.8773 75.389 27.6319 75.5129 27.3596L75.4282 27.6812C75.3495 27.9343 75.2971 28.1949 75.2719 28.4589C75.2512 28.6507 75.2688 28.8446 75.3235 29.0296C75.4275 29.4527 75.7471 29.665 76.2846 29.665C76.4833 29.665 76.6866 29.6258 76.8945 29.5481C77.1025 29.4704 77.2965 29.3365 77.4783 29.1458C77.6693 28.9558 77.8202 28.6842 77.9326 28.3289L78.2445 27.3827H77.9981L77.7902 27.9658C77.6346 28.4073 77.4875 28.705 77.3489 28.8604C77.2188 29.0081 77.0848 29.0812 76.9461 29.0812C76.7998 29.0812 76.7128 29.0166 76.6866 28.8866ZM75.9935 25.5481C75.8965 25.8642 75.7902 26.165 75.6739 26.4489C75.4583 27.0027 75.2288 27.4781 74.9862 27.8758C74.7528 28.2642 74.5233 28.5665 74.2985 28.7835C74.0736 28.9904 73.8749 29.0942 73.7009 29.0942C73.5368 29.0942 73.4159 29.0166 73.3381 28.8612C73.2688 28.6966 73.2342 28.4504 73.2342 28.1219C73.2342 27.655 73.2858 27.1796 73.3897 26.6958C73.4937 26.2035 73.6362 25.7319 73.8179 25.2827C73.9854 24.861 74.1943 24.457 74.4417 24.0765C74.6751 23.7135 74.9215 23.4281 75.181 23.2204C75.449 23.0127 75.7132 22.9096 75.9727 22.9096C76.146 22.9096 76.2846 22.9704 76.3886 23.0912C76.461 23.1696 76.5164 23.2835 76.5549 23.4342L75.9935 25.5481Z" fill="#8799A8"/>
<path d="M66.0203 29.4829H64.4238L65.9949 23.8952C66.0295 23.7744 66.0549 23.6621 66.0719 23.5583C66.0912 23.4713 66.0823 23.3805 66.0465 23.299C66.0203 23.2298 65.9463 23.1952 65.8254 23.1952C65.6614 23.1952 65.5097 23.2775 65.3711 23.4413C65.2417 23.5967 65.0985 23.8867 64.9429 24.3106L64.7226 24.919H64.4762L64.8135 23.9467C64.9953 23.4367 65.2294 23.0867 65.5143 22.8967C65.7993 22.7067 66.115 22.6121 66.4616 22.6121C66.7473 22.6121 66.9637 22.6675 67.1108 22.7798C67.2616 22.8847 67.3681 23.0417 67.4096 23.2206C67.4527 23.3936 67.4612 23.5883 67.4358 23.8044C67.4093 24.014 67.3702 24.2218 67.3187 24.4267L66.8859 26.1129C67.0692 25.6598 67.2478 25.2629 67.4227 24.919C67.7168 24.3406 68.0018 23.8821 68.279 23.5452C68.5563 23.199 68.8412 22.9575 69.1354 22.819C69.4303 22.6806 69.7369 22.6113 70.0572 22.6113C70.4808 22.6113 70.7757 22.7067 70.9398 22.8967C71.113 23.0783 71.1954 23.3198 71.1862 23.6229C71.1862 23.9167 71.1308 24.2321 71.0176 24.569L69.7461 28.3813C69.6675 28.6144 69.646 28.7921 69.6806 28.9121C69.7153 29.0252 69.8023 29.0813 69.9409 29.0813C70.0703 29.0813 70.2043 29.0083 70.3429 28.8613C70.49 28.7136 70.6456 28.4152 70.8104 27.9659L71.0183 27.3829H71.2648L70.9398 28.329C70.8189 28.6921 70.6625 28.969 70.4731 29.1598C70.31 29.3377 70.1044 29.4713 69.8755 29.5482C69.6766 29.6245 69.4655 29.6641 69.2525 29.6652C69.0276 29.6652 68.8327 29.6259 68.6687 29.5482C68.5124 29.479 68.3915 29.379 68.3052 29.2498C68.1928 29.0859 68.145 28.8736 68.162 28.6144C68.1797 28.3552 68.249 28.0444 68.3699 27.6813L69.5513 24.1159C69.5944 23.9775 69.629 23.839 69.6552 23.7006C69.6825 23.5804 69.6779 23.4553 69.6421 23.3375C69.6075 23.2336 69.5166 23.1821 69.3695 23.1821C69.1878 23.1821 68.9883 23.2859 68.7727 23.4929C68.5563 23.6921 68.3306 23.9729 68.0973 24.3359C67.8383 24.745 67.6042 25.1694 67.3965 25.6067C67.1631 26.0913 66.9375 26.6175 66.7211 27.1883C66.5132 27.7498 66.3283 28.3336 66.1635 28.939L66.1712 28.8967L66.0203 29.4829Z" fill="#8799A8"/>
<path fill-rule="evenodd" clip-rule="evenodd" d="M61.1707 27.4802L61.1168 27.6817C61.035 27.9746 60.9783 28.2739 60.9474 28.5764C60.9212 28.8533 60.9643 29.0864 61.0767 29.2764C61.25 29.5356 61.5442 29.6656 61.9601 29.6656C62.182 29.664 62.4013 29.6171 62.6044 29.5278C62.8076 29.4385 62.9903 29.3087 63.1414 29.1464C63.3232 28.9479 63.4741 28.671 63.5958 28.3171L63.9192 27.371H63.6728L63.4787 27.954C63.3224 28.4033 63.1707 28.7017 63.0244 28.8487C62.8773 28.9948 62.734 29.0687 62.5962 29.0687C62.483 29.0687 62.4098 29.034 62.3752 28.9648C62.3481 28.8767 62.3392 28.7841 62.349 28.6925C62.3667 28.5802 62.3921 28.4725 62.4275 28.3687L64.1017 22.6117C63.8413 22.6739 63.5767 22.7174 63.3101 22.7417C63.0413 22.7679 62.7517 22.7848 62.4398 22.7933L62.2519 23.4871C62.2439 23.311 62.1926 23.1395 62.1025 22.9879C62.035 22.8698 61.9364 22.7724 61.8176 22.7062C61.6987 22.6399 61.564 22.6072 61.4279 22.6117C61.0467 22.6117 60.6655 22.7287 60.2851 22.9617C59.9046 23.1956 59.5457 23.5064 59.2077 23.8956C58.858 24.293 58.5533 24.7277 58.2989 25.1917C58.0437 25.657 57.8392 26.1482 57.689 26.6571C57.5474 27.115 57.4732 27.591 57.4688 28.0702C57.4688 28.5548 57.5812 28.9433 57.8061 29.2371C58.0309 29.5225 58.3775 29.6648 58.8442 29.6648C59.173 29.6648 59.4895 29.5702 59.7914 29.3802C60.1033 29.1894 60.3983 28.874 60.6747 28.434C60.8465 28.1687 61.0113 27.851 61.1707 27.4802ZM60.0517 28.7964C59.853 28.9779 59.6751 29.0687 59.5196 29.0687C59.3894 29.0687 59.2901 29.004 59.2208 28.874C59.1607 28.7356 59.1299 28.5071 59.1299 28.1871C59.1299 27.7287 59.1823 27.2579 59.2862 26.774C59.3894 26.2894 59.528 25.8233 59.7013 25.374C59.8831 24.924 60.0817 24.5225 60.2981 24.1679C60.5146 23.814 60.731 23.5325 60.9474 23.3248C61.1722 23.1171 61.384 23.014 61.5835 23.014C61.7914 23.014 61.9377 23.1179 62.0248 23.3248C62.111 23.5125 62.1326 23.764 62.0917 24.0787L61.7082 25.4956L61.7521 25.2702C61.6135 25.8233 61.4495 26.3333 61.2593 26.8002C61.0683 27.2664 60.8696 27.6687 60.6616 28.0056C60.4537 28.3425 60.2504 28.6064 60.0517 28.7964Z" fill="#8799A8"/>
<path d="M53.9949 29.4829H52.3984L53.9556 23.8952C54.0334 23.636 54.0596 23.4544 54.0334 23.3506C54.008 23.2467 53.9302 23.1952 53.8 23.1952C53.636 23.1952 53.4843 23.2775 53.3457 23.4413C53.2071 23.6052 53.0646 23.8952 52.9175 24.3106L52.6965 24.919H52.45L52.7873 23.9467C52.909 23.6006 53.06 23.3337 53.2417 23.1429C53.4235 22.9444 53.6229 22.806 53.8393 22.7283C54.055 22.6506 54.276 22.6113 54.5016 22.6113C54.7781 22.6113 54.9814 22.6675 55.1108 22.7806C55.2484 22.8909 55.341 23.0476 55.3711 23.2213C55.4142 23.4029 55.4227 23.6013 55.3965 23.8175C55.3796 24.0252 55.3449 24.2283 55.2925 24.4267L55.0846 25.2398L55.1054 25.1837L55.137 25.1013C55.3796 24.4875 55.6129 23.999 55.8378 23.636C56.0719 23.2644 56.3183 23.0006 56.5779 22.8452C56.8321 22.6908 57.1243 22.6099 57.4219 22.6113C57.733 22.6113 57.971 22.7021 58.1358 22.8837C58.3083 23.0652 58.3953 23.2898 58.3953 23.5583C58.3953 23.7737 58.343 23.9775 58.239 24.1675C58.1383 24.3457 57.9959 24.497 57.8239 24.6083C57.6524 24.7139 57.4539 24.7678 57.2525 24.7637C57.0368 24.7637 56.8636 24.7075 56.7334 24.5952C56.6125 24.4829 56.5517 24.3183 56.5517 24.1029C56.5517 23.9121 56.5948 23.7398 56.6818 23.5837C56.7681 23.4283 56.8805 23.299 57.0191 23.1952C57.1577 23.0829 57.3087 23.0052 57.4735 22.9613C57.4552 22.9436 57.4331 22.9305 57.4088 22.9229C57.3916 22.917 57.3738 22.9132 57.3557 22.9113C57.3429 22.9101 57.33 22.9096 57.3172 22.9098C57.1277 22.9098 56.9321 22.979 56.7334 23.1175C56.5347 23.2467 56.3268 23.459 56.1104 23.7529C55.8948 24.0467 55.6737 24.4352 55.4481 24.919C55.1944 25.4911 54.9692 26.0754 54.7735 26.6698C54.6757 26.9567 54.5771 27.2667 54.4785 27.5983L53.9949 29.4829Z" fill="#8799A8"/>
<path fill-rule="evenodd" clip-rule="evenodd" d="M51.5685 20.7827C51.1357 20.4712 50.4433 20.3158 49.4915 20.3158C49.1973 20.3158 48.9031 20.3204 48.6082 20.3289C48.3232 20.3374 47.9944 20.342 47.6224 20.342H46.9732C46.7391 20.3327 46.5188 20.3289 46.3109 20.3289C46.1378 20.3213 45.9648 20.3125 45.7918 20.3027L45.7272 20.562C46.0645 20.562 46.294 20.605 46.4149 20.692C46.545 20.7689 46.6051 20.8904 46.5966 21.055C46.5792 21.265 46.5444 21.4731 46.4926 21.6773L44.7791 28.1081C44.7021 28.4189 44.6151 28.6527 44.5196 28.8081C44.4334 28.9567 44.2947 29.0678 44.1307 29.1197C43.9659 29.1712 43.7364 29.2058 43.4422 29.2227L43.3906 29.482C43.5369 29.4743 43.7148 29.4697 43.922 29.4697C44.1299 29.4604 44.351 29.4566 44.5843 29.4566C45.2376 29.4367 45.8913 29.4411 46.5442 29.4697C46.8993 29.4774 47.2243 29.4827 47.5184 29.4827C48.0806 29.4827 48.6128 29.4258 49.1149 29.3135C49.5777 29.2086 50.0204 29.0294 50.4256 28.7827C50.7882 28.567 51.095 28.2693 51.3213 27.9135C51.5461 27.5674 51.6586 27.162 51.6586 26.695C51.6586 26.1674 51.4429 25.7135 51.0101 25.3335C50.5866 24.9527 49.915 24.7281 48.9978 24.6589C49.5701 24.5768 50.1261 24.4063 50.6459 24.1535C51.1311 23.9027 51.5115 23.5958 51.7887 23.2327C52.0678 22.888 52.2191 22.4576 52.2169 22.0143C52.2169 21.4958 52.0021 21.085 51.5685 20.7827ZM47.4253 24.8281L46.5573 28.1081C46.5057 28.3235 46.4711 28.5143 46.4541 28.6781C46.4449 28.8427 46.488 28.9681 46.5835 29.055C46.679 29.1412 46.8561 29.1843 47.1157 29.1843C47.7302 29.1843 48.2323 29.0673 48.6212 28.8343C49.0023 28.6104 49.3059 28.2758 49.4915 27.875C49.6817 27.4597 49.7764 26.9927 49.7764 26.475C49.7764 26.1543 49.7202 25.8735 49.6078 25.632C49.5088 25.3866 49.3307 25.1811 49.1018 25.0481C48.8685 24.9012 48.5566 24.8281 48.1669 24.8281H47.4253ZM47.4838 24.6073H48.0768C48.5697 24.6073 48.9894 24.482 49.3351 24.2312C49.6902 23.972 49.9589 23.635 50.1407 23.2204C50.3299 22.8097 50.4272 22.3626 50.4256 21.9104C50.4256 21.4781 50.3394 21.1458 50.1661 20.912C50.0021 20.6789 49.7117 20.562 49.2959 20.562C48.994 20.562 48.7776 20.6227 48.6474 20.7435C48.5181 20.8558 48.4056 21.102 48.3101 21.482L47.4838 24.6073Z" fill="#8799A8"/>
</g>
<defs>
<clipPath id="clip0_2731_427">
<rect width="134" height="30" fill="white"/>
</clipPath>
</defs>
</svg>
