<svg width="42" height="42" viewBox="0 0 42 42" fill="none" xmlns="http://www.w3.org/2000/svg">
<path opacity="0.5" fill-rule="evenodd" clip-rule="evenodd" d="M14.4003 0C12.0311 0 9.75902 0.941154 8.08375 2.61642L0 10.7001V14.4003C0 17.0145 1.12291 19.3664 2.91271 21C1.12291 22.6336 0 24.9855 0 27.5997V31.2999L8.08375 39.3836C9.75902 41.0589 12.0311 42 14.4003 42C17.0145 42 19.3664 40.8771 21 39.0873C22.6336 40.8771 24.9855 42 27.5997 42C29.9689 42 32.241 41.0589 33.9163 39.3836L42 31.2999V27.5997C42 24.9855 40.8771 22.6336 39.0873 21C40.8771 19.3664 42 17.0145 42 14.4003V10.7001L33.9163 2.61642C32.241 0.941154 29.9689 0 27.5997 0C24.9855 0 22.6336 1.12291 21 2.91271C19.3664 1.12291 17.0145 0 14.4003 0ZM27.0467 21C26.946 20.9081 26.8472 20.8137 26.7504 20.7169L21 14.9665L15.2496 20.7169C15.1528 20.8137 15.054 20.9081 14.9533 21C15.054 21.0919 15.1528 21.1863 15.2496 21.2831L21 27.0335L26.7504 21.2831C26.8472 21.1863 26.946 21.0919 27.0467 21ZM23.3333 31.2999V33.067C23.3333 35.4232 25.2435 37.3334 27.5997 37.3334C28.7311 37.3334 29.8163 36.8839 30.6164 36.0838L37.3334 29.3668V27.5997C37.3334 25.2435 35.4232 23.3333 33.067 23.3333C31.9355 23.3333 30.8504 23.7828 30.0503 24.5829L23.3333 31.2999ZM18.6667 31.2999L11.9497 24.5829C11.1496 23.7828 10.0645 23.3333 8.933 23.3333C6.57677 23.3333 4.66666 25.2435 4.66666 27.5997V29.3668L11.3836 36.0838C12.1837 36.8839 13.2688 37.3334 14.4003 37.3334C16.7565 37.3334 18.6667 35.4232 18.6667 33.067V31.2999ZM18.6667 8.933V10.7001L11.9497 17.4171C11.1496 18.2172 10.0645 18.6667 8.933 18.6667C6.57677 18.6667 4.66666 16.7565 4.66666 14.4003V12.6332L11.3836 5.91624C12.1837 5.11616 13.2688 4.66667 14.4003 4.66667C16.7565 4.66667 18.6667 6.57677 18.6667 8.933ZM30.0503 17.4171L23.3333 10.7001V8.933C23.3333 6.57677 25.2435 4.66667 27.5997 4.66667C28.7311 4.66667 29.8163 5.11616 30.6164 5.91624L37.3334 12.6332V14.4003C37.3334 16.7565 35.4232 18.6667 33.067 18.6667C31.9355 18.6667 30.8504 18.2172 30.0503 17.4171Z" fill="#8799A8"/>
</svg>
