<svg width="152" height="30" viewBox="0 0 152 30" fill="none" xmlns="http://www.w3.org/2000/svg">
<g opacity="0.5" clip-path="url(#clip0_2731_385)">
<path fill-rule="evenodd" clip-rule="evenodd" d="M19.6035 8.76398C18.3742 7.93988 16.9289 7.5 15.4505 7.5V0C18.4074 0 21.2979 0.879735 23.7565 2.52796C26.2152 4.17617 28.1314 6.51886 29.263 9.25973C30.3945 12.0006 30.6906 15.0167 30.1137 17.9263C29.5368 20.8361 28.113 23.5088 26.0221 25.6066C23.9312 27.7044 21.2673 29.133 18.3672 29.7118C15.4671 30.2906 12.461 29.9935 9.72917 28.8582C6.99734 27.7229 4.66239 25.8003 3.01961 23.3335C1.37683 20.8668 0.5 17.9667 0.5 15H7.97525C7.97525 16.4834 8.41367 17.9334 9.23505 19.1668C10.0564 20.4002 11.2239 21.3614 12.5899 21.9291C13.9557 22.4968 15.4588 22.6453 16.9088 22.3559C18.3589 22.0665 19.6908 21.3522 20.7363 20.3033C21.7817 19.2544 22.4937 17.918 22.7821 16.4632C23.0705 15.0083 22.9225 13.5003 22.3567 12.1299C21.7909 10.7594 20.8328 9.58807 19.6035 8.76398Z" fill="#8799A8"/>
<path fill-rule="evenodd" clip-rule="evenodd" d="M7.97524 3.9637e-06C7.97524 0.984918 7.7819 1.96019 7.40623 2.87013C7.03056 3.78007 6.47994 4.60686 5.7858 5.30331C5.09166 5.99975 4.2676 6.55219 3.36065 6.9291C2.45371 7.30601 1.48166 7.5 0.5 7.5L0.5 15C2.46332 15 4.40743 14.612 6.22131 13.8582C8.0352 13.1044 9.68334 11.9995 11.0716 10.6066C12.4599 9.21375 13.5611 7.56015 14.3125 5.74026C15.0638 3.92037 15.4505 1.96983 15.4505 0L7.97524 3.9637e-06Z" fill="#8799A8"/>
<path d="M94.4043 10.8398H90.7773V22.3991H94.4043V10.8398Z" fill="#8799A8"/>
<path d="M91.1785 8.67495C91.5575 9.0555 92.0314 9.24577 92.6003 9.24577C93.1692 9.24577 93.6356 9.0555 93.9989 8.67495C94.363 8.27857 94.5446 7.80285 94.5446 7.24789C94.5446 6.67708 94.363 6.20137 93.9989 5.82083C93.6356 5.44027 93.1692 5.25 92.6003 5.25C92.0314 5.25 91.5575 5.44027 91.1785 5.82083C90.8145 6.20137 90.6328 6.67708 90.6328 7.24789C90.6328 7.80285 90.8145 8.27857 91.1785 8.67495Z" fill="#8799A8"/>
<path d="M38.7402 22.3993V5.60742H42.4621V19.117H49.8821V22.3993H38.7402Z" fill="#8799A8"/>
<path fill-rule="evenodd" clip-rule="evenodd" d="M56.585 22.6606C55.3998 22.6606 54.3251 22.399 53.361 21.8758C52.4128 21.3367 51.6621 20.6073 51.109 19.6876C50.5559 18.7679 50.2793 17.7373 50.2793 16.5956C50.2793 15.4539 50.5559 14.4312 51.109 13.5274C51.6621 12.6236 52.4128 11.9101 53.361 11.3869C54.3093 10.8477 55.384 10.5781 56.585 10.5781C57.7862 10.5781 58.8608 10.8398 59.809 11.363C60.7573 11.8863 61.508 12.6078 62.0611 13.5274C62.6143 14.4312 62.8909 15.4539 62.8909 16.5956C62.8909 17.7373 62.6143 18.7679 62.0611 19.6876C61.508 20.6073 60.7573 21.3367 59.809 21.8758C58.8608 22.399 57.7862 22.6606 56.585 22.6606ZM56.585 19.3546C57.1066 19.3546 57.5649 19.2436 57.96 19.0216C58.3551 18.7838 58.6554 18.4587 58.8608 18.0465C59.0821 17.6184 59.1927 17.1347 59.1927 16.5956C59.1927 16.0565 59.0821 15.5887 58.8608 15.1923C58.6395 14.7801 58.3314 14.463 57.9363 14.241C57.557 14.0031 57.1066 13.8842 56.585 13.8842C56.0793 13.8842 55.629 14.0031 55.2338 14.241C54.8387 14.463 54.5305 14.7801 54.3093 15.1923C54.088 15.6046 53.9774 16.0803 53.9774 16.6194C53.9774 17.1427 54.088 17.6184 54.3093 18.0465C54.5305 18.4587 54.8387 18.7838 55.2338 19.0216C55.629 19.2436 56.0793 19.3546 56.585 19.3546Z" fill="#8799A8"/>
<path fill-rule="evenodd" clip-rule="evenodd" d="M65.7643 26.9177C66.7283 27.3617 67.8425 27.5837 69.1069 27.5837C70.3395 27.5837 71.4379 27.3379 72.402 26.8463C73.366 26.3548 74.1245 25.673 74.6777 24.8009C75.2308 23.9288 75.5078 22.8982 75.5078 21.7089V10.8395H71.9515V11.6161C71.687 11.3927 71.3867 11.2052 71.0507 11.0535C70.4343 10.7522 69.731 10.6016 68.9409 10.6016C67.882 10.6016 66.9417 10.8553 66.1199 11.3627C65.298 11.8542 64.6501 12.536 64.176 13.4081C63.7018 14.2644 63.4648 15.2316 63.4648 16.3099C63.4648 17.3723 63.7018 18.3395 64.176 19.2116C64.6501 20.0837 65.298 20.7734 66.1199 21.2808C66.9417 21.7882 67.882 22.0419 68.9409 22.0419C69.7153 22.0419 70.4185 21.8913 71.0507 21.59C71.3569 21.4441 71.6335 21.2721 71.8804 21.074V21.8041C71.8804 22.6127 71.6197 23.2391 71.0981 23.6831C70.5924 24.1271 69.8891 24.349 68.9883 24.349C68.2613 24.349 67.6371 24.2222 67.1155 23.9684C66.6098 23.7148 66.1515 23.3421 65.7405 22.8506L63.5122 25.0863C64.0653 25.8791 64.8161 26.4896 65.7643 26.9177ZM70.9322 18.4742C70.5686 18.6962 70.1341 18.8072 69.6283 18.8072C69.1226 18.8072 68.6801 18.6962 68.3008 18.4742C67.9373 18.2522 67.6528 17.951 67.4474 17.5704C67.2419 17.174 67.1392 16.7538 67.1392 16.3099C67.1392 15.8342 67.2419 15.4061 67.4474 15.0255C67.6528 14.645 67.9452 14.3437 68.3245 14.1217C68.7038 13.8997 69.1384 13.7887 69.6283 13.7887C70.1341 13.7887 70.5686 13.8997 70.9322 14.1217C71.3115 14.3437 71.5959 14.645 71.7856 15.0255C71.991 15.4061 72.0938 15.8342 72.0938 16.3099C72.0938 16.7855 71.991 17.2136 71.7856 17.5942C71.5959 17.9589 71.3115 18.2522 70.9322 18.4742Z" fill="#8799A8"/>
<path fill-rule="evenodd" clip-rule="evenodd" d="M83.1401 22.6606C81.9545 22.6606 80.8796 22.399 79.916 21.8758C78.9674 21.3367 78.2169 20.6073 77.6637 19.6876C77.1106 18.7679 76.834 17.7373 76.834 16.5956C76.834 15.4539 77.1106 14.4312 77.6637 13.5274C78.2169 12.6236 78.9674 11.9101 79.916 11.3869C80.8639 10.8477 81.9388 10.5781 83.1401 10.5781C84.3406 10.5781 85.4156 10.8398 86.3634 11.363C87.312 11.8863 88.0626 12.6078 88.6157 13.5274C89.1689 14.4312 89.4455 15.4539 89.4455 16.5956C89.4455 17.7373 89.1689 18.7679 88.6157 19.6876C88.0626 20.6073 87.312 21.3367 86.3634 21.8758C85.4156 22.399 84.3406 22.6606 83.1401 22.6606ZM83.1401 19.3546C83.6611 19.3546 84.1194 19.2436 84.5148 19.0216C84.9095 18.7838 85.21 18.4587 85.4156 18.0465C85.6368 17.6184 85.7475 17.1347 85.7475 16.5956C85.7475 16.0565 85.6368 15.5887 85.4156 15.1923C85.1943 14.7801 84.8863 14.463 84.4909 14.241C84.1119 14.0031 83.6611 13.8842 83.1401 13.8842C82.634 13.8842 82.1833 14.0031 81.7886 14.241C81.3931 14.463 81.0852 14.7801 80.8639 15.1923C80.6426 15.6046 80.532 16.0803 80.532 16.6194C80.532 17.1427 80.6426 17.6184 80.8639 18.0465C81.0852 18.4587 81.3931 18.7838 81.7886 19.0216C82.1833 19.2436 82.634 19.3546 83.1401 19.3546Z" fill="#8799A8"/>
<path fill-rule="evenodd" clip-rule="evenodd" d="M103.122 22.6365C102.348 22.6365 101.636 22.4859 100.988 22.1846C100.647 22.0261 100.339 21.8368 100.064 21.6167V27.2745H96.4844V10.8395H100.111V11.6372C100.374 11.4213 100.667 11.2346 100.988 11.0773C101.636 10.7601 102.348 10.6016 103.122 10.6016C104.212 10.6016 105.177 10.8632 106.014 11.3865C106.867 11.9097 107.531 12.6233 108.005 13.5271C108.496 14.4309 108.74 15.4616 108.74 16.619C108.74 17.7766 108.496 18.8072 108.005 19.7111C107.531 20.6149 106.867 21.3284 106.014 21.8516C105.177 22.3749 104.212 22.6365 103.122 22.6365ZM102.459 19.3543C102.98 19.3543 103.43 19.2353 103.809 18.9975C104.205 18.7597 104.513 18.4346 104.734 18.0224C104.955 17.6101 105.066 17.1423 105.066 16.619C105.066 16.0799 104.955 15.6043 104.734 15.192C104.513 14.7797 104.205 14.4626 103.809 14.2406C103.43 14.0027 102.988 13.8839 102.482 13.8839C101.976 13.8839 101.526 14.0027 101.131 14.2406C100.751 14.4626 100.451 14.7797 100.23 15.192C100.009 15.6043 99.8983 16.0799 99.8983 16.619C99.8983 17.1423 100.001 17.6101 100.206 18.0224C100.428 18.4346 100.736 18.7597 101.131 18.9975C101.526 19.2353 101.968 19.3543 102.459 19.3543Z" fill="#8799A8"/>
<path d="M112.289 22.4219C112.953 22.5963 113.624 22.6835 114.304 22.6835C115.742 22.6835 116.88 22.3505 117.718 21.6845C118.57 21.0186 118.997 20.1227 118.997 18.9969C118.997 18.2675 118.863 17.6808 118.594 17.2369C118.326 16.7771 117.978 16.4123 117.552 16.1428C117.125 15.8732 116.674 15.6591 116.2 15.5006C115.726 15.342 115.275 15.2072 114.849 15.0962C114.422 14.9852 114.075 14.8584 113.806 14.7157C113.537 14.573 113.403 14.3827 113.403 14.1449C113.403 13.9229 113.506 13.7564 113.711 13.6454C113.916 13.5185 114.224 13.4552 114.635 13.4552C115.062 13.4552 115.497 13.5423 115.939 13.7168C116.397 13.8911 116.809 14.1925 117.172 14.6206L119.234 12.5276C118.713 11.8616 118.034 11.3621 117.196 11.0291C116.374 10.6803 115.473 10.5059 114.493 10.5059C113.561 10.5059 112.747 10.6644 112.052 10.9815C111.356 11.2987 110.819 11.7347 110.44 12.2897C110.061 12.8288 109.871 13.471 109.871 14.2163C109.871 14.9139 110.005 15.4927 110.274 15.9525C110.542 16.3964 110.89 16.7453 111.316 16.999C111.743 17.2527 112.194 17.4509 112.668 17.5936C113.142 17.7363 113.593 17.8711 114.02 17.998C114.446 18.109 114.794 18.2438 115.062 18.4023C115.347 18.545 115.489 18.7591 115.489 19.0445C115.489 19.2665 115.37 19.4408 115.133 19.5677C114.912 19.6946 114.588 19.758 114.162 19.758C113.545 19.758 112.976 19.647 112.455 19.425C111.933 19.1872 111.482 18.8621 111.103 18.4499L109.041 20.5429C109.436 20.971 109.91 21.3516 110.464 21.6845C111.032 22.0016 111.641 22.2474 112.289 22.4219Z" fill="#8799A8"/>
<path d="M125.612 22.6607C124.553 22.6607 123.613 22.4466 122.791 22.0185C121.985 21.5745 121.353 20.972 120.895 20.2109C120.436 19.4339 120.207 18.546 120.207 17.547V10.8398H123.834V17.4995C123.834 17.8958 123.897 18.2368 124.024 18.5222C124.166 18.8076 124.371 19.0296 124.64 19.1882C124.909 19.3467 125.233 19.426 125.612 19.426C126.149 19.426 126.576 19.2595 126.892 18.9265C127.208 18.5777 127.366 18.102 127.366 17.4995V10.8398H130.993V17.5232C130.993 18.5381 130.764 19.4339 130.305 20.2109C129.847 20.972 129.215 21.5745 128.409 22.0185C127.603 22.4466 126.671 22.6607 125.612 22.6607Z" fill="#8799A8"/>
<path d="M136.424 10.8395H132.797V22.3987H136.424V15.6439C136.424 15.2475 136.503 14.9145 136.661 14.645C136.835 14.3754 137.064 14.1692 137.349 14.0266C137.633 13.868 137.957 13.7887 138.32 13.7887C138.842 13.7887 139.276 13.9552 139.624 14.2882C139.988 14.6053 140.17 15.0572 140.17 15.6439V22.3987H143.797V15.6439C143.797 15.2475 143.876 14.9145 144.034 14.645C144.208 14.3754 144.437 14.1692 144.721 14.0266C145.005 13.868 145.33 13.7887 145.693 13.7887C146.215 13.7887 146.649 13.9552 146.997 14.2882C147.36 14.6053 147.542 15.0572 147.542 15.6439V22.3987H151.17V15.2396C151.17 14.2724 150.964 13.4478 150.553 12.766C150.157 12.0683 149.612 11.5371 148.917 11.1725C148.238 10.7918 147.455 10.6016 146.57 10.6016C145.669 10.6016 144.855 10.7998 144.129 11.1962C143.656 11.4488 143.244 11.7747 142.89 12.174C142.56 11.7563 142.16 11.4146 141.686 11.1486C141.055 10.784 140.336 10.6016 139.53 10.6016C138.676 10.6016 137.91 10.784 137.23 11.1486C136.934 11.3003 136.666 11.4821 136.424 11.6938V10.8395Z" fill="#8799A8"/>
</g>
<defs>
<clipPath id="clip0_2731_385">
<rect width="151" height="30" fill="white" transform="translate(0.5)"/>
</clipPath>
</defs>
</svg>
