<svg width="164" height="30" viewBox="0 0 164 30" fill="none" xmlns="http://www.w3.org/2000/svg">
<g opacity="0.5" clip-path="url(#clip0_2731_468)">
<path d="M91.4258 22.1416H94.9337V8.95012H91.4258V22.1416ZM91.4258 6.893H94.9337V3.75586H91.4258V6.893Z" fill="#8799A8"/>
<path d="M97.1953 26.4652H100.703V20.6537H100.754C101.502 21.7852 102.715 22.5309 104.572 22.5309C107.976 22.5309 110.298 19.8309 110.298 15.5624C110.298 11.448 108.054 8.59375 104.546 8.59375C102.74 8.59375 101.502 9.44238 100.651 10.5995H100.574V8.95375H97.1953V26.4652ZM103.824 19.6252C101.735 19.6252 100.626 18.0567 100.626 15.6652C100.626 13.2995 101.502 11.4224 103.695 11.4224C105.862 11.4224 106.738 13.1709 106.738 15.6652C106.738 18.1595 105.604 19.6252 103.824 19.6252Z" fill="#8799A8"/>
<path d="M117.295 22.5309C120.597 22.5309 122.867 20.9366 122.867 18.288C122.867 15.2024 120.417 14.5852 118.198 14.1224C116.315 13.7366 114.562 13.6337 114.562 12.5024C114.562 11.5509 115.464 11.0366 116.831 11.0366C118.327 11.0366 119.23 11.5509 119.384 12.9652H122.557C122.3 10.3166 120.365 8.59375 116.883 8.59375C113.865 8.59375 111.492 9.95665 111.492 12.8109C111.492 15.6909 113.814 16.3337 116.186 16.7966C117.992 17.1566 119.668 17.2852 119.668 18.5452C119.668 19.4709 118.792 20.0624 117.244 20.0624C115.67 20.0624 114.587 19.3937 114.355 17.8766H111.105C111.312 20.6795 113.453 22.5309 117.295 22.5309Z" fill="#8799A8"/>
<path d="M136.185 22.1407V8.94922H132.677V16.5607C132.677 18.3092 131.671 19.5435 130.02 19.5435C128.524 19.5435 127.828 18.6949 127.828 17.1521V8.94922H124.346V17.7435C124.346 20.6235 125.996 22.5007 128.937 22.5007C130.794 22.5007 131.826 21.8064 132.729 20.5978H132.806V22.1407H136.185Z" fill="#8799A8"/>
<path d="M138.453 22.1452H141.961V14.4824C141.961 12.7337 142.916 11.6024 144.335 11.6024C145.624 11.6024 146.372 12.3738 146.372 13.8652V22.1452H149.88V14.4824C149.88 12.7337 150.782 11.6024 152.252 11.6024C153.543 11.6024 154.29 12.3738 154.29 13.8652V22.1452H157.798V13.2737C157.798 10.3937 156.225 8.59375 153.439 8.59375C151.763 8.59375 150.369 9.46803 149.467 10.908H149.416C148.771 9.51947 147.429 8.59375 145.753 8.59375C143.922 8.59375 142.632 9.51948 141.91 10.728H141.832V8.95375H138.453V22.1452Z" fill="#8799A8"/>
<path d="M0 22.1416H3.50783V3.75586H0V22.1416Z" fill="#8799A8"/>
<path d="M12.0844 22.5309C16.1855 22.5309 18.9969 19.4966 18.9969 15.5624C18.9969 11.628 16.1855 8.59375 12.0844 8.59375C7.98329 8.59375 5.17188 11.628 5.17188 15.5624C5.17188 19.4966 7.98329 22.5309 12.0844 22.5309ZM12.0844 19.8566C9.91781 19.8566 8.73129 18.1337 8.73129 15.5624C8.73129 12.9909 9.91781 11.2424 12.0844 11.2424C14.2252 11.2424 15.4375 12.9909 15.4375 15.5624C15.4375 18.1337 14.2252 19.8566 12.0844 19.8566Z" fill="#8799A8"/>
<path d="M26.4564 26.6452C28.4167 26.6452 30.1191 26.1824 31.2281 25.1537C32.2082 24.2537 32.8015 22.9937 32.8015 21.1424V8.95375H29.4227V10.3424H29.371C28.5714 9.23665 27.3592 8.59375 25.7084 8.59375C22.3554 8.59375 19.9824 11.1137 19.9824 15.048C19.9824 19.0337 22.8712 21.348 25.8116 21.348C27.4881 21.348 28.4941 20.6795 29.2678 19.8052H29.3452V21.2452C29.3452 23.0452 28.3909 23.9966 26.4048 23.9966C24.7799 23.9966 24.0319 23.3537 23.7482 22.5309H20.2661C20.6272 25.1024 22.8454 26.6452 26.4564 26.6452ZM26.4048 18.5452C24.5993 18.5452 23.4129 17.2337 23.4129 14.9966C23.4129 12.7852 24.5993 11.3966 26.379 11.3966C28.4941 11.3966 29.5258 13.0424 29.5258 14.9709C29.5258 16.9252 28.623 18.5452 26.4048 18.5452Z" fill="#8799A8"/>
<path d="M41.3285 22.5309C45.4296 22.5309 48.2411 19.4966 48.2411 15.5624C48.2411 11.628 45.4296 8.59375 41.3285 8.59375C37.2275 8.59375 34.416 11.628 34.416 15.5624C34.416 19.4966 37.2275 22.5309 41.3285 22.5309ZM41.3285 19.8566C39.1619 19.8566 37.9755 18.1337 37.9755 15.5624C37.9755 12.9909 39.1619 11.2424 41.3285 11.2424C43.4693 11.2424 44.6817 12.9909 44.6817 15.5624C44.6817 18.1337 43.4693 19.8566 41.3285 19.8566Z" fill="#8799A8"/>
<path d="M159.074 6.78432C159.074 6.19258 159.556 5.71289 160.149 5.71289H162.299C162.892 5.71289 163.374 6.19258 163.374 6.78432C163.374 7.37605 162.892 7.85575 162.299 7.85575H160.149C159.556 7.85575 159.074 7.37605 159.074 6.78432Z" fill="#8799A8"/>
<path fill-rule="evenodd" clip-rule="evenodd" d="M69.5146 0C77.8239 0 84.5607 6.71573 84.5607 15C84.5607 23.2843 77.8239 30 69.5146 30C61.205 30 54.4688 23.2843 54.4688 15C54.4688 6.71573 61.205 0 69.5146 0ZM68.9708 1.12244C67.2543 1.36327 65.6198 2.73831 64.3511 5.03805C63.9831 5.70512 63.651 6.4421 63.3617 7.23783C65.0868 6.80563 66.9819 6.55082 68.9708 6.5114V1.12244ZM62.09 7.5981C62.4499 6.47219 62.8901 5.4363 63.3981 4.51549C64.027 3.37544 64.7734 2.39096 65.6144 1.63483C61.0413 2.95892 57.4367 6.55259 56.1085 11.1118C56.867 10.2733 57.8544 9.5292 58.998 8.9022C59.9217 8.39573 60.9607 7.95683 62.09 7.5981ZM61.7287 8.86583C61.2951 10.5857 61.0396 12.475 61 14.4578H55.5946C55.8361 12.7465 57.2154 11.1171 59.5222 9.8523C60.1913 9.4854 60.9305 9.15435 61.7287 8.86583ZM62.0879 14.4578C62.1328 12.294 62.4453 10.2626 62.9623 8.46765C64.7627 7.95225 66.8003 7.6407 68.9708 7.59593V9.9381C68.1611 12.0047 66.5097 13.6509 64.4367 14.4578H62.0879ZM61 15.5422H55.5946C55.8361 17.2535 57.2154 18.8828 59.5222 20.1477C60.1913 20.5146 60.9305 20.8456 61.7287 21.1342C61.2951 19.4143 61.0396 17.525 61 15.5422ZM62.9623 21.5324C62.4453 19.7374 62.1328 17.706 62.0879 15.5422H64.4367C66.5097 16.3491 68.1611 17.9953 68.9708 20.0619V22.4041C66.8003 22.3593 64.7627 22.0478 62.9623 21.5324ZM62.09 22.4019C60.9607 22.0432 59.9217 21.6043 58.998 21.0978C57.8544 20.4708 56.867 19.7267 56.1085 18.8882C57.4367 23.4474 61.0413 27.0411 65.6144 28.3652C64.7734 27.609 64.027 26.6246 63.3981 25.4845C62.8901 24.5637 62.4499 23.5278 62.09 22.4019ZM68.9708 28.8775C67.2543 28.6367 65.6198 27.2617 64.3511 24.962C63.9831 24.2949 63.651 23.5579 63.3617 22.7622C65.0868 23.1943 66.9819 23.4492 68.9708 23.4886V28.8775ZM73.4147 28.3652C74.2557 27.609 75.0021 26.6246 75.631 25.4845C76.1388 24.5637 76.5796 23.5278 76.9392 22.4019C78.0684 22.0432 79.1073 21.6043 80.0312 21.0978C81.1746 20.4708 82.1624 19.7267 82.9207 18.8882C81.5922 23.4474 77.9879 27.0411 73.4147 28.3652ZM75.6679 22.7622C75.3782 23.5579 75.0457 24.2949 74.6778 24.962C73.4093 27.2617 71.7749 28.6367 70.0584 28.8775V23.4886C72.0472 23.4492 73.9423 23.1943 75.6679 22.7622ZM77.3003 21.1342C78.0985 20.8456 78.838 20.5146 79.5068 20.1477C81.8141 18.8829 83.1931 17.2535 83.4345 15.5422H78.0293C77.9894 17.525 77.7337 19.4143 77.3003 21.1342ZM76.9415 15.5422C76.8964 17.706 76.5841 19.7374 76.0666 21.5324C74.2665 22.0478 72.2288 22.3593 70.0584 22.4041V20.0636C70.8678 17.9963 72.5197 16.3493 74.5931 15.5422H76.9415ZM78.0293 14.4578H83.4345C83.1931 12.7465 81.8141 11.1171 79.5068 9.8523C78.838 9.4854 78.0985 9.15435 77.3003 8.86583C77.7337 10.5857 77.9894 12.475 78.0293 14.4578ZM76.0666 8.46765C76.5841 10.2626 76.8964 12.294 76.9415 14.4578H74.5932C72.5197 13.6507 70.8678 12.0037 70.0584 9.93637V7.59593C72.2288 7.6407 74.2665 7.95225 76.0666 8.46765ZM76.9392 7.5981C78.0684 7.95683 79.1073 8.39573 80.0312 8.9022C81.1746 9.5292 82.1624 10.2733 82.9207 11.1118C81.5922 6.55259 77.9879 2.95892 73.4147 1.63483C74.2557 2.39096 75.0021 3.37544 75.631 4.51549C76.1388 5.4363 76.5796 6.47219 76.9392 7.5981ZM70.0584 1.12244C71.7749 1.36327 73.4093 2.73831 74.6778 5.03805C75.0457 5.70513 75.3782 6.4421 75.6679 7.23783C73.9423 6.80563 72.0472 6.55082 70.0584 6.5114V1.12244Z" fill="#8799A8"/>
</g>
<defs>
<clipPath id="clip0_2731_468">
<rect width="164" height="30" fill="white"/>
</clipPath>
</defs>
</svg>
