<svg width="136" height="30" viewBox="0 0 136 30" fill="none" xmlns="http://www.w3.org/2000/svg">
<g opacity="0.5" clip-path="url(#clip0_2731_449)">
<path fill-rule="evenodd" clip-rule="evenodd" d="M42.666 1.99702C42.666 0.980395 43.4985 0.15625 44.5256 0.15625H47.7652C48.4962 0.15625 49.2046 0.407005 49.7698 0.865831L50.7553 1.66579L50.78 1.68804C50.8027 1.68045 50.8254 1.67303 50.8482 1.66579C52.6262 1.10209 54.7833 0.99489 56.985 0.99489C59.1867 0.99489 61.3438 1.10209 63.1217 1.66579C63.1445 1.67303 63.1673 1.68045 63.19 1.68804L63.2147 1.66579L64.2002 0.865831C64.7654 0.407005 65.4738 0.15625 66.2048 0.15625H69.4443C70.4714 0.15625 71.304 0.980395 71.304 1.99702V3.13496C71.304 4.01539 70.9293 4.85509 70.2718 5.44806L69.4768 6.16513C69.0887 6.51519 68.6229 6.76996 68.1169 6.90885L67.9288 6.96048C68.6655 8.70043 69.0725 10.5603 69.0725 12.0648C69.0725 18.1171 65.2894 20.7309 61.9561 23.0341C59.3311 24.8478 56.985 26.4688 56.985 29.4246C56.985 26.4688 54.6389 24.8478 52.0139 23.0341C48.6806 20.7309 44.8975 18.1171 44.8975 12.0648C44.8975 10.5603 45.3045 8.70043 46.0412 6.96048L45.8531 6.90885C45.3471 6.76996 44.8813 6.51519 44.4932 6.16513L43.6982 5.44806C43.0407 4.85509 42.666 4.01539 42.666 3.13496V1.99702ZM59.4025 17.0128C59.4025 17.3019 59.2751 17.5792 59.0485 17.7837C58.8218 17.9881 58.5143 18.103 58.1937 18.103C57.917 18.103 57.6499 18.0173 57.4363 17.8624C57.8 18.826 58.7307 19.7391 60.1463 18.2707C61.3961 16.9063 60.0908 14.0286 58.8191 12.3209C58.3952 11.7517 57.6994 11.4778 56.985 11.4778C56.2706 11.4778 55.5748 11.7517 55.1509 12.3209C53.8792 14.0286 52.5739 16.9063 53.8236 18.2707C55.2393 19.7391 56.17 18.826 56.5337 17.8624C56.3201 18.0173 56.053 18.103 55.7763 18.103C55.4556 18.103 55.1482 17.9881 54.9215 17.7837C54.6948 17.5792 54.5675 17.3019 54.5675 17.0128H59.4025ZM52.3561 8.49416H48.9887L51.6425 10.5976C52.2265 11.0604 53.0801 10.9125 53.4415 10.2857C53.8977 9.49448 53.2917 8.49416 52.3561 8.49416ZM61.6139 8.49416H64.9813L62.3274 10.5976C61.7435 11.0604 60.8899 10.9125 60.5285 10.2857C60.0723 9.49448 60.6783 8.49416 61.6139 8.49416Z" fill="#8799A8"/>
<path d="M75.3164 20.8865H78.2996V9.62556H75.3164V20.8865ZM75.3164 7.86946H78.2996V5.19141H75.3164V7.86946Z" fill="#8799A8"/>
<path d="M80.2227 24.5764H83.2059V19.6154H83.2498C83.8859 20.5813 84.9168 21.2179 86.4962 21.2179C89.3917 21.2179 91.3659 18.913 91.3659 15.2691C91.3659 11.7569 89.4575 9.32031 86.4743 9.32031C84.9388 9.32031 83.8859 10.0447 83.162 11.0325H83.0962V9.62763H80.2227V24.5764ZM85.8601 18.7374C84.0833 18.7374 83.1401 17.3984 83.1401 15.3569C83.1401 13.3374 83.8859 11.7349 85.7504 11.7349C87.593 11.7349 88.3388 13.2276 88.3388 15.3569C88.3388 17.4862 87.3736 18.7374 85.8601 18.7374Z" fill="#8799A8"/>
<path d="M97.3153 21.2179C100.123 21.2179 102.053 19.8569 102.053 17.5959C102.053 14.9618 99.9695 14.4349 98.083 14.0398C96.4817 13.7106 94.9901 13.6228 94.9901 12.6569C94.9901 11.8447 95.7579 11.4057 96.9205 11.4057C98.1927 11.4057 98.9605 11.8447 99.0921 13.052H101.79C101.571 10.791 99.9256 9.32031 96.9643 9.32031C94.3979 9.32031 92.3798 10.4837 92.3798 12.9203C92.3798 15.3788 94.354 15.9276 96.3721 16.3228C97.9076 16.6301 99.3334 16.7398 99.3334 17.8154C99.3334 18.6057 98.5876 19.1106 97.2714 19.1106C95.9334 19.1106 95.0121 18.5398 94.8147 17.2447H92.0508C92.2263 19.6374 94.0469 21.2179 97.3153 21.2179Z" fill="#8799A8"/>
<path d="M113.381 20.8879V9.62695H110.398V16.1245C110.398 17.6172 109.542 18.6709 108.138 18.6709C106.866 18.6709 106.274 17.9465 106.274 16.6294V9.62695H103.312V17.1343C103.312 19.5928 104.716 21.1952 107.217 21.1952C108.796 21.1952 109.674 20.6026 110.442 19.5709H110.507V20.8879H113.381Z" fill="#8799A8"/>
<path d="M115.311 20.8886H118.294V14.3471C118.294 12.8545 119.105 11.8886 120.312 11.8886C121.409 11.8886 122.045 12.5471 122.045 13.8203V20.8886H125.028V14.3471C125.028 12.8545 125.796 11.8886 127.046 11.8886C128.143 11.8886 128.779 12.5471 128.779 13.8203V20.8886H131.762V13.3154C131.762 10.8569 130.424 9.32031 128.055 9.32031C126.629 9.32031 125.445 10.0667 124.677 11.2959H124.633C124.085 10.1106 122.944 9.32031 121.518 9.32031C119.961 9.32031 118.864 10.1106 118.25 11.1423H118.184V9.62763H115.311V20.8886Z" fill="#8799A8"/>
<path d="M0 20.8865H2.98322V5.19141H0V20.8865Z" fill="#8799A8"/>
<path d="M10.2772 21.2179C13.7649 21.2179 16.1559 18.6276 16.1559 15.2691C16.1559 11.9106 13.7649 9.32031 10.2772 9.32031C6.78941 9.32031 4.39844 11.9106 4.39844 15.2691C4.39844 18.6276 6.78941 21.2179 10.2772 21.2179ZM10.2772 18.9349C8.4346 18.9349 7.42557 17.4642 7.42557 15.2691C7.42557 13.074 8.4346 11.5813 10.2772 11.5813C12.0978 11.5813 13.1288 13.074 13.1288 15.2691C13.1288 17.4642 12.0978 18.9349 10.2772 18.9349Z" fill="#8799A8"/>
<path d="M22.4999 24.7301C24.167 24.7301 25.6148 24.3349 26.558 23.4569C27.3916 22.6886 27.8961 21.613 27.8961 20.0325V9.62763H25.0225V10.813H24.9787C24.2987 9.86909 23.2677 9.32031 21.8638 9.32031C19.0122 9.32031 16.9941 11.4715 16.9941 14.8301C16.9941 18.2325 19.4509 20.2081 21.9516 20.2081C23.3774 20.2081 24.2329 19.6374 24.8909 18.891H24.9567V20.1203C24.9567 21.6569 24.1451 22.4691 22.4561 22.4691C21.0741 22.4691 20.438 21.9203 20.1967 21.2179H17.2354C17.5425 23.413 19.429 24.7301 22.4999 24.7301ZM22.4561 17.8154C20.9206 17.8154 19.9116 16.6959 19.9116 14.7862C19.9116 12.8984 20.9206 11.713 22.4341 11.713C24.2329 11.713 25.1103 13.1179 25.1103 14.7642C25.1103 16.4325 24.3425 17.8154 22.4561 17.8154Z" fill="#8799A8"/>
<path d="M35.1482 21.2179C38.636 21.2179 41.0269 18.6276 41.0269 15.2691C41.0269 11.9106 38.636 9.32031 35.1482 9.32031C31.6605 9.32031 29.2695 11.9106 29.2695 15.2691C29.2695 18.6276 31.6605 21.2179 35.1482 21.2179ZM35.1482 18.9349C33.3057 18.9349 32.2966 17.4642 32.2966 15.2691C32.2966 13.074 33.3057 11.5813 35.1482 11.5813C36.9689 11.5813 37.9999 13.074 37.9999 15.2691C37.9999 17.4642 36.9689 18.9349 35.1482 18.9349Z" fill="#8799A8"/>
<path d="M131.627 7.16659C131.627 6.66145 132.036 6.25195 132.541 6.25195H134.369C134.873 6.25195 135.283 6.66145 135.283 7.16659C135.283 7.67169 134.873 8.08123 134.369 8.08123H132.541C132.036 8.08123 131.627 7.67169 131.627 7.16659Z" fill="#8799A8"/>
</g>
<defs>
<clipPath id="clip0_2731_449">
<rect width="136" height="30" fill="white"/>
</clipPath>
</defs>
</svg>
