<svg width="40" height="40" viewBox="0 0 40 40" fill="none" xmlns="http://www.w3.org/2000/svg">
<g opacity="0.5" clip-path="url(#clip0_2731_401)">
<path d="M39.886 21.5H32.7414C26.5005 21.5 21.4414 26.5592 21.4414 32.8V39.9446C31.2913 39.2142 39.1556 31.3499 39.886 21.5Z" fill="#8799A8"/>
<path d="M18.4446 39.9446V32.8C18.4446 26.5592 13.3854 21.5 7.1446 21.5H0C0.730334 31.3499 8.5947 39.2142 18.4446 39.9446Z" fill="#8799A8"/>
<path d="M39.886 18.4993C39.1556 8.64938 31.2913 0.785022 21.4414 0.0546875V7.19928C21.4414 13.4401 26.5005 18.4993 32.7414 18.4993H39.886Z" fill="#8799A8"/>
<path d="M18.4446 0.0546875C8.5947 0.785022 0.730334 8.64938 0 18.4993H7.1446C13.3854 18.4993 18.4446 13.4401 18.4446 7.19928V0.0546875Z" fill="#8799A8"/>
<path d="M13.5273 20.0013C16.2998 18.616 18.5593 16.3565 19.9445 13.584C21.3298 16.3565 23.5892 18.616 26.3618 20.0013C23.5892 21.3865 21.3298 23.646 19.9445 26.4185C18.5593 23.646 16.2998 21.3865 13.5273 20.0013Z" fill="#8799A8"/>
</g>
<defs>
<clipPath id="clip0_2731_401">
<rect width="40" height="40" fill="white"/>
</clipPath>
</defs>
</svg>
