<svg width="110" height="26" viewBox="0 0 110 26" fill="none" xmlns="http://www.w3.org/2000/svg">
<g opacity="0.5" clip-path="url(#clip0_2731_419)">
<path fill-rule="evenodd" clip-rule="evenodd" d="M6.51851 1.625V26H0V1.625H6.51851Z" fill="#8799A8"/>
<path fill-rule="evenodd" clip-rule="evenodd" d="M9.77734 1.625H23.6292C28.1293 1.625 31.7773 5.26269 31.7773 9.75C31.7773 14.2373 28.1293 17.875 23.6292 17.875H16.2959V26H9.77734V1.625ZM16.2959 11.375H23.6292C24.5293 11.375 25.2588 10.6475 25.2588 9.75C25.2588 8.85254 24.5293 8.125 23.6292 8.125H16.2959V11.375Z" fill="#8799A8"/>
<path fill-rule="evenodd" clip-rule="evenodd" d="M56.2216 1.625V14.2188C56.2216 17.1355 58.5928 19.5 61.5179 19.5C64.443 19.5 66.8143 17.1355 66.8143 14.2188V1.625H73.3329V14.2188C73.3329 20.7254 68.0432 26 61.5179 26C54.9928 26 49.7031 20.7254 49.7031 14.2188V1.625H56.2216Z" fill="#8799A8"/>
<path fill-rule="evenodd" clip-rule="evenodd" d="M34.2216 13C34.2216 6.71775 39.3289 1.625 45.629 1.625H47.2587V8.125H45.629C42.9289 8.125 40.7401 10.3076 40.7401 13V13.8125C40.7401 20.5434 35.2681 26 28.5179 26H27.7031V19.5H28.5179C31.668 19.5 34.2216 16.9536 34.2216 13.8125V13Z" fill="#8799A8"/>
<path d="M110.002 2.4375C110.002 3.7837 108.908 4.875 107.557 4.875C106.207 4.875 105.113 3.7837 105.113 2.4375C105.113 1.0913 106.207 0 107.557 0C108.908 0 110.002 1.0913 110.002 2.4375Z" fill="#8799A8"/>
<path d="M80.3324 26.0001L83.443 13.0118L85.7556 20.8256C87.1342 25.486 93.7544 25.486 95.1336 20.8256L97.4455 13.0118L100.556 26.0001H107.258L102.367 5.57674C101.204 0.719907 94.3401 0.540079 92.9225 5.32936L90.4446 13.7042L87.966 5.32937C86.549 0.540107 79.6848 0.719881 78.5216 5.57673L73.6309 26.0001H80.3324Z" fill="#8799A8"/>
</g>
<defs>
<clipPath id="clip0_2731_419">
<rect width="110" height="26" fill="white"/>
</clipPath>
</defs>
</svg>
