<svg width="135" height="36" viewBox="0 0 135 36" fill="none" xmlns="http://www.w3.org/2000/svg">
<path d="M50.2917 28V8.4H53.0357L59.6997 22.204L66.3077 8.4H69.0797V28H66.7277V12.628L60.5677 25.424H58.8037L52.6437 12.74V28H50.2917ZM77.2612 28.336C76.1412 28.336 75.2079 28.1307 74.4612 27.72C73.7145 27.2907 73.1545 26.7307 72.7812 26.04C72.4079 25.3307 72.2212 24.5747 72.2212 23.772C72.2212 22.8013 72.4639 21.98 72.9492 21.308C73.4532 20.6173 74.1532 20.0947 75.0492 19.74C75.9452 19.3853 76.9905 19.208 78.1852 19.208H81.8532C81.8532 18.256 81.7412 17.4627 81.5172 16.828C81.2932 16.1933 80.9292 15.7173 80.4252 15.4C79.9212 15.0827 79.2492 14.924 78.4092 14.924C77.5692 14.924 76.8505 15.1387 76.2532 15.568C75.6559 15.9787 75.2825 16.5947 75.1332 17.416H72.7252C72.8372 16.4453 73.1639 15.6333 73.7052 14.98C74.2465 14.308 74.9279 13.804 75.7492 13.468C76.5892 13.1133 77.4759 12.936 78.4092 12.936C79.7345 12.936 80.8265 13.1787 81.6852 13.664C82.5439 14.1307 83.1785 14.7933 83.5892 15.652C83.9999 16.492 84.2052 17.4907 84.2052 18.648V28H82.1052L81.9652 25.48C81.7785 25.872 81.5359 26.2453 81.2372 26.6C80.9572 26.936 80.6212 27.2347 80.2292 27.496C79.8372 27.7573 79.3892 27.9627 78.8852 28.112C78.3999 28.2613 77.8585 28.336 77.2612 28.336ZM77.5972 26.348C78.2132 26.348 78.7825 26.208 79.3052 25.928C79.8279 25.648 80.2759 25.2747 80.6492 24.808C81.0412 24.3227 81.3399 23.7813 81.5452 23.184C81.7505 22.5867 81.8532 21.9613 81.8532 21.308V21.028H78.3812C77.5039 21.028 76.7852 21.14 76.2252 21.364C75.6839 21.588 75.2919 21.9053 75.0492 22.316C74.8065 22.708 74.6852 23.156 74.6852 23.66C74.6852 24.2013 74.7972 24.6773 75.0212 25.088C75.2452 25.48 75.5719 25.788 76.0012 26.012C76.4492 26.236 76.9812 26.348 77.5972 26.348ZM87.5311 28V13.272H89.6591L89.8271 15.96C90.1631 15.288 90.6018 14.728 91.1431 14.28C91.6844 13.832 92.3378 13.496 93.1031 13.272C93.8871 13.048 94.7644 12.936 95.7351 12.936V15.4H94.2791C93.7191 15.4 93.1778 15.4747 92.6551 15.624C92.1324 15.7733 91.6564 16.016 91.2271 16.352C90.8164 16.688 90.4898 17.1453 90.2471 17.724C90.0044 18.3027 89.8831 19.0307 89.8831 19.908V28H87.5311ZM108.422 34.16V25.676C107.955 26.5907 107.283 27.2627 106.406 27.692C105.528 28.1213 104.548 28.336 103.466 28.336C102.14 28.336 100.974 28.0093 99.9657 27.356C98.9577 26.7027 98.1737 25.7973 97.6137 24.64C97.0537 23.4827 96.7737 22.1667 96.7737 20.692C96.7737 19.1987 97.0537 17.8733 97.6137 16.716C98.1737 15.54 98.9484 14.616 99.9377 13.944C100.946 13.272 102.103 12.936 103.41 12.936C104.306 12.936 105.071 13.0667 105.706 13.328C106.359 13.5893 106.91 13.9253 107.358 14.336C107.806 14.728 108.16 15.1387 108.422 15.568L108.646 13.272H110.774V34.16H108.422ZM103.746 26.292C104.679 26.292 105.491 26.068 106.182 25.62C106.872 25.1533 107.404 24.5 107.778 23.66C108.151 22.8013 108.338 21.7933 108.338 20.636C108.338 19.4787 108.151 18.48 107.778 17.64C107.404 16.7813 106.872 16.128 106.182 15.68C105.491 15.2133 104.679 14.98 103.746 14.98C102.868 14.98 102.084 15.2133 101.394 15.68C100.703 16.128 100.162 16.7813 99.7697 17.64C99.3777 18.48 99.1817 19.4787 99.1817 20.636C99.1817 21.7933 99.3777 22.8013 99.7697 23.66C100.162 24.5 100.703 25.1533 101.394 25.62C102.084 26.068 102.868 26.292 103.746 26.292ZM114.192 28V7.84H116.544V28H114.192ZM121.601 34.16L124.933 26.432H124.121L118.605 13.272H121.153L125.717 24.612L130.477 13.272H132.913L124.037 34.16H121.601Z" fill="white"/>
<g clip-path="url(#clip0_2236_510)">
<path fill-rule="evenodd" clip-rule="evenodd" d="M24.2656 2L9.86563 2L9.86563 6.44444C9.86563 6.91135 9.77247 7.3737 9.59158 7.80512C9.41067 8.23643 9.14553 8.62847 8.81119 8.95855C8.47692 9.28874 8.08003 9.55067 7.64326 9.72939C7.20649 9.90798 6.7384 10 6.26562 10L1.76562 10L1.76562 20.6667L15.2656 34L29.6656 34L29.6656 29.5556C29.6656 29.0886 29.7587 28.6263 29.9396 28.1948C30.1206 27.7636 30.3858 27.3716 30.72 27.0414C31.0543 26.7113 31.4512 26.4493 31.888 26.2706C32.3247 26.092 32.7929 26 33.2656 26L37.7656 26L37.7656 15.3333L24.2656 2ZM10.7656 17.1111L10.7656 10.8889L20.6656 10.8889L28.7656 18.8889L28.7656 25.1111L18.8656 25.1111L10.7656 17.1111Z" fill="url(#paint0_linear_2236_510)"/>
</g>
<defs>
<linearGradient id="paint0_linear_2236_510" x1="1.87552" y1="16.9714" x2="1.84121" y2="31.9428" gradientUnits="userSpaceOnUse">
<stop stop-color="#69EDFE"/>
<stop offset="1" stop-color="#0167B4"/>
</linearGradient>
<clipPath id="clip0_2236_510">
<rect width="32" height="36" fill="white" transform="translate(36 2) rotate(90)"/>
</clipPath>
</defs>
</svg>
