<svg width="24" height="24" viewBox="0 0 24 24" fill="none" xmlns="http://www.w3.org/2000/svg">
<path d="M24 12.0734C24.0004 10.4878 23.6902 8.91765 23.0873 7.45267C22.4844 5.9877 21.6005 4.65659 20.4861 3.5354C19.3717 2.41421 18.0487 1.52491 16.5926 0.918291C15.1366 0.311676 13.576 -0.000363519 12 3.17808e-07C10.424 -0.000363519 8.86344 0.311676 7.40737 0.918291C5.9513 1.52491 4.62829 2.41421 3.51391 3.5354C2.39954 4.65659 1.51564 5.9877 0.91271 7.45267C0.309781 8.91765 -0.00036131 10.4878 3.15876e-07 12.0734C3.15876e-07 18.1108 4.35463 23.1235 10.1131 24V15.5781H7.06457V12.0734H10.1131V9.44519C10.1131 6.4265 11.9023 4.72329 14.6136 4.72329C15.9679 4.72329 17.3222 4.96561 17.3222 4.96561V7.93584H15.822C14.3218 7.93584 13.8387 8.86084 13.8387 9.83291V12.0734H17.1777L16.645 15.5781H13.8374V24C16.6682 23.5616 19.2494 22.1177 21.1136 19.93C22.9778 17.7422 24.0018 14.9551 24 12.0734Z" fill="white"/>
</svg>
