<svg width="101" height="24" fill="none" xmlns="http://www.w3.org/2000/svg"><g clip-path="url(#a)" fill="#fff"><path fill-rule="evenodd" clip-rule="evenodd" d="M5.985 1.5V24H0V1.5h5.985zM8.978 1.5h12.718c4.132 0 7.481 3.358 7.481 7.5 0 4.142-3.349 7.5-7.48 7.5h-6.734V24H8.978V1.5zm5.985 9h6.733c.826 0 1.496-.672 1.496-1.5s-.67-1.5-1.496-1.5h-6.733v3zM51.622 1.5v11.625A4.869 4.869 0 0056.485 18a4.87 4.87 0 004.863-4.875V1.5h5.985v11.625C67.333 19.131 62.476 24 56.485 24c-5.991 0-10.848-4.869-10.848-10.875V1.5h5.985z"/><path fill-rule="evenodd" clip-rule="evenodd" d="M31.423 12c0-5.799 4.69-10.5 10.474-10.5h1.496v6h-1.496a4.494 4.494 0 00-4.49 4.5v.75c0 6.213-5.023 11.25-11.221 11.25h-.748v-6h.748a5.244 5.244 0 005.237-5.25V12z"/><path d="M101 2.25a2.248 2.248 0 01-2.245 2.25 2.247 2.247 0 01-2.244-2.25A2.247 2.247 0 0198.755 0 2.248 2.248 0 01101 2.25zM73.76 24l2.856-11.99 2.123 7.213c1.266 4.302 7.344 4.302 8.61 0l2.124-7.213L92.329 24h6.153l-4.49-18.853C92.922.664 86.621.498 85.32 4.92l-2.275 7.73-2.276-7.73c-1.301-4.421-7.604-4.255-8.672.228L67.607 24h6.153z"/></g><defs><clipPath id="a"><path fill="#fff" d="M0 0H101V24H0z"/></clipPath></defs></svg>