<svg width="93" height="24" fill="none" xmlns="http://www.w3.org/2000/svg"><path d="M17.236 10.125c1.79 0 2.194.779 2.194 1.75 0 1.03-.488 1.768-2.186 1.768-1.688 0-2.176-.695-2.176-1.768 0-1.055.532-1.75 2.168-1.75zM35.947 10.125c1.79 0 2.194.779 2.194 1.75 0 1.03-.488 1.768-2.186 1.768-1.687 0-2.176-.695-2.176-1.768 0-1.055.532-1.75 2.168-1.75z" fill="#fff"/><path fill-rule="evenodd" clip-rule="evenodd" d="M1.385 22V1.741h90.477v20.26H1.385zm43.121-1.143h46.215V2.884H44.506v17.973zm-27.26-5.49c3.178 0 4.514-1.373 4.514-3.517 0-2.18-1.505-3.475-4.515-3.475-2.963 0-4.523 1.407-4.523 3.475 0 2.334 1.636 3.518 4.523 3.518zM6.193 8.53v6.736h6.415V13.47H8.515V8.529h-2.32zm22.746 6.736l-.06-.653a4.104 4.104 0 01-2.673.755c-1.43 0-2.622-.429-3.29-1.295a3.547 3.547 0 01-.634-2.162 3.352 3.352 0 01.653-2.103c.677-.84 1.902-1.398 3.727-1.398 2.099 0 3.332.644 3.863 1.725.114.254.18.528.197.806h-2.22a.915.915 0 00-.3-.43 2.358 2.358 0 00-1.5-.385 2.206 2.206 0 00-1.73.54c-.265.365-.39.813-.35 1.262-.032.428.083.855.325 1.21a2.248 2.248 0 001.773.592 2.474 2.474 0 001.765-.55c.106-.133.18-.29.213-.457H26.31v-1.447h4.472v3.99H28.94zm7.016.102c3.178 0 4.515-1.373 4.515-3.517 0-2.18-1.508-3.475-4.515-3.475-2.964 0-4.524 1.407-4.524 3.475 0 2.334 1.637 3.518 4.524 3.518z" fill="#fff"/><path d="M48.415 15.24V8.503h1.655v6.735h-1.655zM58.567 12.424c-.42.55-1.141.8-2.159.807l-3.058-.009v2.017h-1.62V8.503h4.679a2.681 2.681 0 012.081.678c.37.482.55 1.084.506 1.69a2.43 2.43 0 01-.43 1.553zm-1.328-2.196c-.171-.257-.54-.4-1.165-.4h-2.733v2.05h2.715c.669 0 1.02-.136 1.183-.403a1.12 1.12 0 00.12-.609 1.307 1.307 0 00-.12-.638zM63.767 15.341c-3.05 0-3.984-1.142-3.984-2.273h1.73c0 .558.763.978 2.33.978 1.56 0 1.97-.275 1.97-.721 0-.498-.307-.652-1.755-.815a37.947 37.947 0 01-1.354-.163c-2.054-.232-2.844-.84-2.844-1.93 0-1.15 1.157-2.017 3.667-2.017 2.724 0 3.77 1.073 3.77 2.188h-1.712c0-.566-.643-.892-2.16-.892-1.559 0-1.892.214-1.892.635 0 .437.342.575 1.996.772.378.052 1.217.146 1.448.171 1.748.18 2.536.815 2.536 1.939-.003 1.339-1.202 2.129-3.746 2.129zM72.385 15.334c-2.235 0-3.692-.884-3.692-2.743V8.504h1.636v4.11c0 .85.695 1.415 2.125 1.415 1.293 0 2.065-.531 2.065-1.415v-4.11h1.619v4.24c0 1.689-1.354 2.59-3.753 2.59zM85.005 15.24v-4.497l-2.099 4.496h-1.593l-2.04-4.496v4.496h-1.54V8.504h2.087l2.314 5.13 2.364-5.13h2.054v6.735h-1.547z" fill="#fff"/></svg>