<svg width="119" height="30" fill="none" xmlns="http://www.w3.org/2000/svg"><path d="M2.941 27.825h25.65V2.175H2.941v25.65zm20.713-15.293h-5.42v-5.42h5.42v5.42zM7.877 7.112H13.3v10.356h10.354v5.42H7.877V7.112zm37.417-4.937A12.825 12.825 0 1058.12 15 12.84 12.84 0 0045.294 2.175zm0 20.713A7.888 7.888 0 1153.182 15a7.9 7.9 0 01-7.888 7.888zm58.719-20.713A12.823 12.823 0 0091.433 17.5 12.824 12.824 0 00116.838 15a12.84 12.84 0 00-12.824-12.825zm0 20.713A7.887 7.887 0 11111.9 15a7.897 7.897 0 01-7.887 7.888zM74.653 2.175A12.825 12.825 0 1087.478 15 12.84 12.84 0 0074.653 2.175zm0 20.713a7.888 7.888 0 117.488-10.356h-7.488v4.936h7.488a7.9 7.9 0 01-7.488 5.42z" fill="#fff"/></svg>