<svg width="106" height="24" fill="none" xmlns="http://www.w3.org/2000/svg"><g clip-path="url(#a)" fill="#fff"><path fill-rule="evenodd" clip-rule="evenodd" d="M9.034 16.8a3.017 3.017 0 01-2.13-.879 2.994 2.994 0 01-.881-2.121V0H0v13.8c0 4.97 4.045 9 9.034 9h6.625v-6H9.034zM27.102 6a5.438 5.438 0 00-3.833 1.582 5.4 5.4 0 00-1.587 3.818 5.383 5.383 0 001.587 3.818 5.423 5.423 0 003.833 1.582 5.43 5.43 0 003.833-1.582 5.39 5.39 0 000-7.636A5.43 5.43 0 0027.102 6zM15.66 11.4C15.66 5.104 20.783 0 27.102 0c6.32 0 11.443 5.104 11.443 11.4s-5.123 11.4-11.443 11.4c-6.32 0-11.443-5.104-11.443-11.4zM92.148 6a5.43 5.43 0 00-3.833 1.582 5.39 5.39 0 000 7.636 5.431 5.431 0 007.666 0 5.39 5.39 0 000-7.636A5.431 5.431 0 0092.148 6zm-11.444 5.4c0-6.296 5.124-11.4 11.444-11.4 6.32 0 11.443 5.104 11.443 11.4s-5.124 11.4-11.443 11.4c-6.32 0-11.444-5.104-11.444-11.4zM51.194 0C44.873 0 39.75 5.104 39.75 11.4s5.123 11.4 11.443 11.4h16.864c1.186 0 2.33-.18 3.405-.514L74.682 24l3.474-6.482a11.37 11.37 0 001.344-5.361V11.4C79.5 5.104 74.376 0 68.057 0H51.193zm22.283 11.4a5.39 5.39 0 00-1.587-3.818A5.43 5.43 0 0068.057 6H51.193a5.438 5.438 0 00-3.833 1.582 5.4 5.4 0 00-1.587 3.818 5.383 5.383 0 001.587 3.818 5.423 5.423 0 003.833 1.582h16.864c1.43 0 2.802-.563 3.818-1.567a5.39 5.39 0 001.602-3.791V11.4z"/><path d="M106 1.5a1.499 1.499 0 01-1.506 1.5c-.399 0-.782-.158-1.065-.44A1.499 1.499 0 01104.494 0c.399 0 .782.158 1.065.44.282.28.441.662.441 1.06z"/></g><defs><clipPath id="a"><path fill="#fff" d="M0 0H106V24H0z"/></clipPath></defs></svg>